<svg xmlns="http://www.w3.org/2000/svg" xmlns:xlink="http://www.w3.org/1999/xlink" width="1920" zoomAndPan="magnify" viewBox="0 0 1440 809.999993" height="1080" preserveAspectRatio="xMidYMid meet" version="1.0"><defs><clipPath id="23c38420f4"><path d="M 274.214844 53.386719 L 1165.964844 53.386719 L 1165.964844 624 L 274.214844 624 Z M 274.214844 53.386719 " clip-rule="nonzero"/></clipPath><clipPath id="324fca34a2"><path d="M 585 559 L 738 559 L 738 756.886719 L 585 756.886719 Z M 585 559 " clip-rule="nonzero"/></clipPath><clipPath id="d2a8e03be5"><path d="M 709 559 L 862 559 L 862 756.886719 L 709 756.886719 Z M 709 559 " clip-rule="nonzero"/></clipPath></defs><rect x="-144" width="1728" fill="#ffffff" y="-80.999999" height="971.999992" fill-opacity="1"/><rect x="-144" width="1728" fill="#ffffff" y="-80.999999" height="971.999992" fill-opacity="1"/><g clip-path="url(#23c38420f4)"><path fill="#ffbd52" d="M 274.492188 53.363281 L 1165.742188 53.363281 L 1165.742188 623.828125 L 274.492188 623.828125 Z M 274.492188 53.363281 " fill-opacity="1" fill-rule="nonzero"/></g><path fill="#ffffff" d="M 1117.089844 170.625 L 1117.089844 507.3125 C 1079.625 507.3125 1049.246094 537.695312 1049.246094 575.167969 L 391.734375 575.167969 C 391.734375 537.695312 361.355469 507.3125 323.890625 507.3125 C 323.640625 507.3125 323.390625 507.3125 323.140625 507.320312 L 323.140625 170.621094 C 323.390625 170.625 323.640625 170.625 323.890625 170.625 C 361.355469 170.625 391.734375 140.242188 391.734375 102.769531 C 391.734375 102.519531 391.734375 102.269531 391.730469 102.015625 L 1049.257812 102.015625 C 1049.253906 102.269531 1049.253906 102.519531 1049.253906 102.769531 C 1049.253906 140.242188 1079.625 170.625 1117.089844 170.625 Z M 1117.089844 170.625 " fill-opacity="1" fill-rule="nonzero"/><g clip-path="url(#324fca34a2)"><path fill="#ff4d4d" d="M 642.578125 559.191406 L 585.726562 713.429688 L 656.355469 680.519531 L 683.925781 756.851562 L 737.488281 599.65625 Z M 642.578125 559.191406 " fill-opacity="1" fill-rule="nonzero"/></g><g clip-path="url(#d2a8e03be5)"><path fill="#ff4d4d" d="M 804.679688 559.191406 L 861.53125 713.429688 L 790.90625 680.519531 L 763.335938 756.851562 L 709.769531 599.65625 Z M 804.679688 559.191406 " fill-opacity="1" fill-rule="nonzero"/></g><path fill="#ffbd52" d="M 826.03125 517.519531 C 826.03125 530.339844 810.109375 539.898438 805.484375 551.054688 C 800.691406 562.613281 805.011719 580.589844 796.304688 589.300781 C 787.59375 598.011719 769.617188 593.695312 758.0625 598.484375 C 746.917969 603.109375 737.351562 619.035156 724.535156 619.035156 C 711.714844 619.035156 702.15625 603.109375 691.007812 598.484375 C 679.449219 593.691406 661.472656 598.011719 652.765625 589.300781 C 644.054688 580.589844 648.371094 562.613281 643.582031 551.054688 C 638.960938 539.90625 623.039062 530.339844 623.039062 517.519531 C 623.039062 504.699219 638.960938 495.136719 643.582031 483.984375 C 648.375 472.425781 644.054688 454.445312 652.765625 445.734375 C 661.472656 437.027344 679.449219 441.339844 691.007812 436.550781 C 702.152344 431.929688 711.714844 416.003906 724.535156 416.003906 C 737.351562 416.003906 746.917969 431.929688 758.0625 436.550781 C 769.617188 441.347656 787.59375 437.027344 796.304688 445.734375 C 805.011719 454.445312 800.699219 472.425781 805.484375 483.984375 C 810.113281 495.136719 826.03125 504.699219 826.03125 517.519531 Z M 826.03125 517.519531 " fill-opacity="1" fill-rule="nonzero"/><path fill="#f7a334" d="M 769.089844 472.953125 C 770.546875 474.410156 771.933594 475.9375 773.242188 477.535156 C 774.550781 479.128906 775.777344 480.785156 776.925781 482.503906 C 778.070312 484.21875 779.132812 485.988281 780.105469 487.808594 C 781.078125 489.628906 781.957031 491.492188 782.746094 493.398438 C 783.539062 495.304688 784.230469 497.246094 784.832031 499.222656 C 785.429688 501.199219 785.929688 503.199219 786.335938 505.222656 C 786.738281 507.246094 787.039062 509.285156 787.242188 511.339844 C 787.445312 513.394531 787.546875 515.453125 787.546875 517.519531 C 787.546875 519.582031 787.445312 521.640625 787.242188 523.695312 C 787.039062 525.75 786.738281 527.789062 786.335938 529.8125 C 785.933594 531.839844 785.429688 533.839844 784.832031 535.8125 C 784.234375 537.789062 783.539062 539.730469 782.75 541.636719 C 781.960938 543.542969 781.078125 545.410156 780.105469 547.230469 C 779.132812 549.050781 778.074219 550.816406 776.925781 552.535156 C 775.78125 554.25 774.550781 555.90625 773.242188 557.503906 C 771.933594 559.097656 770.546875 560.625 769.089844 562.085938 C 767.628906 563.542969 766.101562 564.929688 764.507812 566.238281 C 762.914062 567.546875 761.257812 568.777344 759.539062 569.921875 C 757.824219 571.070312 756.054688 572.128906 754.238281 573.101562 C 752.417969 574.078125 750.554688 574.957031 748.644531 575.746094 C 746.738281 576.539062 744.796875 577.230469 742.824219 577.832031 C 740.847656 578.429688 738.847656 578.933594 736.824219 579.335938 C 734.800781 579.738281 732.761719 580.039062 730.707031 580.242188 C 728.652344 580.445312 726.59375 580.546875 724.53125 580.546875 C 722.46875 580.546875 720.410156 580.445312 718.355469 580.242188 C 716.300781 580.039062 714.261719 579.738281 712.238281 579.335938 C 710.214844 578.933594 708.214844 578.429688 706.238281 577.832031 C 704.265625 577.234375 702.324219 576.539062 700.417969 575.75 C 698.511719 574.957031 696.648438 574.078125 694.828125 573.105469 C 693.007812 572.132812 691.238281 571.070312 689.523438 569.925781 C 687.804688 568.777344 686.152344 567.550781 684.554688 566.238281 C 682.960938 564.929688 681.433594 563.546875 679.972656 562.085938 C 678.515625 560.625 677.128906 559.097656 675.820312 557.503906 C 674.511719 555.90625 673.28125 554.253906 672.136719 552.535156 C 670.988281 550.820312 669.929688 549.050781 668.957031 547.230469 C 667.984375 545.410156 667.101562 543.546875 666.3125 541.640625 C 665.523438 539.730469 664.828125 537.792969 664.230469 535.816406 C 663.628906 533.839844 663.128906 531.839844 662.726562 529.816406 C 662.324219 527.792969 662.023438 525.753906 661.820312 523.699219 C 661.617188 521.644531 661.515625 519.585938 661.515625 517.519531 C 661.515625 515.457031 661.617188 513.398438 661.820312 511.34375 C 662.019531 509.289062 662.324219 507.25 662.726562 505.222656 C 663.128906 503.199219 663.628906 501.199219 664.230469 499.222656 C 664.828125 497.25 665.523438 495.308594 666.3125 493.402344 C 667.101562 491.492188 667.984375 489.628906 668.957031 487.808594 C 669.929688 485.988281 670.988281 484.21875 672.136719 482.503906 C 673.28125 480.789062 674.507812 479.132812 675.820312 477.535156 C 677.128906 475.941406 678.511719 474.414062 679.972656 472.953125 C 681.429688 471.492188 682.957031 470.109375 684.554688 468.800781 C 686.148438 467.488281 687.804688 466.261719 689.519531 465.113281 C 691.238281 463.96875 693.003906 462.90625 694.824219 461.933594 C 696.644531 460.960938 698.507812 460.082031 700.414062 459.289062 C 702.320312 458.5 704.261719 457.804688 706.238281 457.207031 C 708.210938 456.605469 710.210938 456.105469 712.234375 455.703125 C 714.261719 455.300781 716.300781 455 718.351562 454.796875 C 720.40625 454.59375 722.464844 454.492188 724.53125 454.492188 C 726.59375 454.492188 728.652344 454.59375 730.707031 454.796875 C 732.761719 454.996094 734.796875 455.300781 736.824219 455.703125 C 738.847656 456.105469 740.847656 456.605469 742.820312 457.207031 C 744.796875 457.804688 746.738281 458.5 748.644531 459.289062 C 750.550781 460.078125 752.414062 460.960938 754.234375 461.933594 C 756.054688 462.90625 757.824219 463.96875 759.539062 465.113281 C 761.253906 466.261719 762.910156 467.488281 764.503906 468.796875 C 766.101562 470.109375 767.628906 471.492188 769.089844 472.953125 Z M 769.089844 472.953125 " fill-opacity="1" fill-rule="nonzero"/><path fill="#004966" d="M 495.394531 254.675781 C 496.234375 256.554688 496.265625 258.386719 495.492188 260.167969 C 494.714844 261.949219 493.480469 263.585938 491.796875 265.074219 C 490.113281 266.566406 488.1875 267.859375 486.015625 268.960938 C 483.847656 270.0625 481.789062 270.839844 479.847656 271.296875 C 477.707031 271.746094 475.460938 271.960938 473.097656 271.929688 C 470.730469 271.894531 468.367188 271.605469 466.003906 271.058594 C 463.636719 270.507812 461.339844 269.699219 459.105469 268.625 C 456.867188 267.558594 454.8125 266.246094 452.933594 264.6875 C 450.664062 262.808594 448.898438 260.554688 447.640625 257.933594 C 446.378906 255.308594 445.453125 252.507812 444.871094 249.527344 C 444.289062 246.546875 443.980469 243.550781 443.945312 240.535156 C 443.914062 237.523438 443.996094 234.691406 444.191406 232.03125 C 444.386719 229.636719 444.871094 227.140625 445.648438 224.550781 C 446.421875 221.957031 447.507812 219.410156 448.898438 216.917969 C 450.292969 214.421875 451.976562 212.105469 453.949219 209.972656 C 455.925781 207.832031 458.242188 206.019531 460.894531 204.527344 C 462.90625 203.359375 465.152344 202.566406 467.648438 202.144531 C 470.140625 201.722656 472.667969 201.625 475.226562 201.855469 C 477.78125 202.082031 480.214844 202.628906 482.511719 203.503906 C 484.8125 204.378906 486.769531 205.558594 488.390625 207.046875 C 489.425781 207.957031 490.515625 209.21875 491.644531 210.839844 C 492.773438 212.460938 493.601562 214.109375 494.121094 215.792969 C 494.640625 217.476562 494.65625 219.046875 494.171875 220.507812 C 493.6875 221.964844 492.375 222.957031 490.234375 223.46875 C 489.328125 223.734375 488.515625 223.777344 487.804688 223.613281 C 487.089844 223.453125 486.445312 223.160156 485.859375 222.738281 C 485.277344 222.316406 484.722656 221.816406 484.203125 221.234375 C 483.683594 220.652344 483.199219 220.070312 482.746094 219.484375 C 481.195312 217.609375 479.378906 216.328125 477.304688 215.644531 C 475.230469 214.964844 473.171875 214.804688 471.132812 215.160156 C 469.089844 215.511719 467.179688 216.359375 465.398438 217.6875 C 463.617188 219.019531 462.242188 220.71875 461.265625 222.792969 C 460.226562 224.996094 459.40625 227.410156 458.789062 230.035156 C 458.171875 232.660156 457.832031 235.3125 457.769531 238.003906 C 457.707031 240.691406 457.945312 243.300781 458.5 245.828125 C 459.046875 248.355469 460.003906 250.589844 461.363281 252.535156 C 462.398438 254.085938 463.679688 255.355469 465.203125 256.324219 C 466.726562 257.296875 468.359375 257.976562 470.113281 258.367188 C 471.859375 258.757812 473.628906 258.820312 475.410156 258.5625 C 477.1875 258.304688 478.921875 257.722656 480.605469 256.816406 C 481.125 256.558594 481.691406 256.183594 482.308594 255.695312 C 482.925781 255.210938 483.550781 254.710938 484.203125 254.191406 C 484.847656 253.671875 485.515625 253.1875 486.195312 252.734375 C 486.875 252.285156 487.605469 251.957031 488.378906 251.765625 C 489.542969 251.375 490.824219 251.410156 492.21875 251.863281 C 493.628906 252.308594 494.679688 253.25 495.394531 254.675781 Z M 495.394531 254.675781 " fill-opacity="1" fill-rule="nonzero"/><path fill="#004966" d="M 517.160156 213.851562 L 516.964844 229.109375 L 520.851562 229.109375 C 523.503906 229.046875 525.875 229.011719 527.945312 229.011719 C 530.015625 229.011719 532.316406 229.046875 534.84375 229.109375 L 535.328125 229.109375 C 536.105469 229.109375 536.871094 229.125 537.613281 229.15625 C 538.355469 229.191406 539.085938 229.199219 539.796875 229.199219 C 540.574219 229.265625 541.320312 229.378906 542.035156 229.542969 C 542.75 229.703125 543.460938 229.886719 544.175781 230.078125 C 545.277344 230.46875 546.183594 231.050781 546.898438 231.828125 C 547.542969 232.671875 547.867188 233.609375 547.867188 234.644531 C 547.867188 234.972656 547.867188 235.34375 547.867188 235.765625 C 547.867188 236.1875 547.804688 236.558594 547.675781 236.882812 C 547.542969 237.597656 547.121094 238.242188 546.414062 238.832031 C 546.085938 239.285156 545.472656 239.605469 544.570312 239.800781 C 543.726562 240.0625 542.886719 240.222656 542.042969 240.285156 C 541.132812 240.480469 540.226562 240.578125 539.320312 240.578125 L 534.753906 240.578125 L 516.777344 240.675781 L 516.582031 259.726562 L 535.921875 259.921875 L 540.488281 259.921875 C 541.007812 259.921875 541.492188 259.921875 541.945312 259.921875 C 542.394531 259.921875 542.816406 259.957031 543.207031 260.019531 C 543.726562 260.148438 544.191406 260.230469 544.613281 260.261719 C 545.039062 260.296875 545.441406 260.378906 545.832031 260.507812 C 546.605469 260.765625 547.257812 261.125 547.777344 261.578125 C 548.421875 262.226562 548.84375 262.90625 549.039062 263.621094 C 549.101562 263.945312 549.152344 264.289062 549.1875 264.640625 C 549.21875 264.996094 549.203125 265.371094 549.140625 265.761719 C 549.140625 266.800781 548.816406 267.734375 548.171875 268.578125 C 547.394531 269.488281 546.488281 270.070312 545.449219 270.328125 C 544.089844 270.910156 542.59375 271.199219 540.980469 271.199219 C 540.265625 271.261719 539.523438 271.296875 538.742188 271.296875 C 537.960938 271.296875 537.21875 271.332031 536.503906 271.394531 L 535.921875 271.394531 C 530.871094 271.523438 525.621094 271.523438 520.179688 271.394531 C 518.882812 271.394531 517.84375 271.375 517.066406 271.347656 C 516.292969 271.3125 515.59375 271.300781 514.980469 271.300781 C 514.363281 271.300781 513.730469 271.300781 513.085938 271.300781 C 512.433594 271.300781 511.59375 271.300781 510.554688 271.300781 C 509.066406 271.433594 507.835938 271.171875 506.863281 270.527344 C 506.152344 270.074219 505.601562 269.457031 505.210938 268.675781 C 505.015625 268.484375 504.917969 268.289062 504.917969 268.09375 C 504.855469 267.964844 504.785156 267.867188 504.722656 267.804688 C 504.660156 267.742188 504.59375 267.644531 504.53125 267.511719 C 504.398438 267.1875 504.300781 266.851562 504.238281 266.492188 C 504.175781 266.136719 504.140625 265.792969 504.140625 265.46875 C 504.078125 265.144531 504.027344 264.824219 503.992188 264.5 C 503.960938 264.171875 503.914062 263.855469 503.84375 263.527344 L 503.84375 261.976562 C 503.84375 261.71875 503.863281 261.457031 503.898438 261.199219 C 503.929688 260.941406 503.941406 260.679688 503.941406 260.421875 L 503.941406 252.84375 L 504.136719 238.847656 L 504.136719 225.917969 C 504.136719 223.585938 504.152344 221.511719 504.1875 219.699219 C 504.222656 217.882812 504.269531 215.90625 504.335938 213.765625 L 504.335938 213.28125 C 504.398438 212.566406 504.449219 211.90625 504.484375 211.289062 C 504.519531 210.671875 504.535156 210.046875 504.535156 209.394531 C 504.597656 208.097656 504.957031 206.835938 505.601562 205.605469 C 505.859375 205.085938 506.140625 204.632812 506.429688 204.246094 C 506.722656 203.859375 507.125 203.53125 507.644531 203.277344 C 508.617188 202.695312 509.621094 202.402344 510.660156 202.402344 C 511.179688 202.402344 511.566406 202.4375 511.824219 202.5 L 511.824219 202.402344 C 512.988281 202.402344 513.929688 202.402344 514.644531 202.402344 C 515.355469 202.402344 516.050781 202.402344 516.730469 202.402344 C 517.410156 202.402344 518.140625 202.386719 518.917969 202.351562 C 519.691406 202.316406 520.765625 202.300781 522.125 202.300781 C 524.714844 202.238281 527.175781 202.203125 529.507812 202.203125 C 531.84375 202.203125 534.234375 202.238281 536.699219 202.300781 L 537.085938 202.300781 C 537.800781 202.363281 538.542969 202.398438 539.324219 202.398438 C 540.101562 202.398438 540.847656 202.429688 541.5625 202.492188 C 542.273438 202.492188 542.988281 202.574219 543.703125 202.738281 C 544.414062 202.898438 545.128906 203.109375 545.84375 203.371094 C 546.941406 203.699219 547.851562 204.246094 548.5625 205.023438 C 549.144531 205.929688 549.4375 206.835938 549.4375 207.746094 C 549.4375 208.132812 549.4375 208.503906 549.4375 208.863281 C 549.4375 209.21875 549.375 209.558594 549.242188 209.886719 C 549.179688 210.535156 548.785156 211.214844 548.078125 211.929688 C 547.816406 212.058594 547.542969 212.21875 547.25 212.414062 C 546.960938 212.609375 546.617188 212.769531 546.230469 212.898438 C 545.84375 213.03125 545.4375 213.109375 545.015625 213.144531 C 544.59375 213.179688 544.1875 213.222656 543.800781 213.289062 C 543.28125 213.417969 542.8125 213.480469 542.390625 213.480469 C 541.96875 213.480469 541.5 213.480469 540.980469 213.480469 L 536.609375 213.480469 L 517.171875 213.578125 L 517.171875 213.851562 Z M 517.160156 213.851562 " fill-opacity="1" fill-rule="nonzero"/><path fill="#004966" d="M 607.339844 266.726562 C 607.402344 267.375 607.339844 267.984375 607.144531 268.574219 C 607.011719 268.960938 606.835938 269.289062 606.609375 269.542969 C 606.378906 269.800781 606.105469 270.0625 605.78125 270.320312 C 605.199219 270.707031 604.484375 271.0625 603.640625 271.386719 C 603.121094 271.519531 602.621094 271.632812 602.132812 271.730469 C 601.648438 271.828125 601.148438 271.8125 600.628906 271.679688 C 599.589844 271.609375 598.679688 271.222656 597.90625 270.515625 C 596.804688 269.605469 595.898438 268.601562 595.183594 267.5 C 594.859375 266.980469 594.503906 266.398438 594.117188 265.75 C 593.726562 265.105469 593.367188 264.417969 593.046875 263.707031 L 582.261719 243.195312 C 581.742188 243.195312 581.222656 243.214844 580.710938 243.25 C 580.191406 243.28125 579.671875 243.328125 579.160156 243.390625 C 577.800781 243.523438 576.515625 243.554688 575.316406 243.488281 C 574.121094 243.425781 572.871094 243.425781 571.574219 243.488281 L 569.726562 243.488281 L 569.726562 261.078125 C 569.726562 261.597656 569.707031 262.085938 569.671875 262.535156 C 569.640625 262.992188 569.621094 263.476562 569.621094 263.992188 C 569.621094 264.316406 569.605469 264.738281 569.578125 265.253906 C 569.542969 265.773438 569.496094 266.257812 569.429688 266.707031 C 569.296875 267.421875 569.007812 268.152344 568.554688 268.894531 C 568.097656 269.640625 567.488281 270.269531 566.710938 270.789062 C 565.355469 271.628906 563.699219 271.855469 561.757812 271.46875 C 560.914062 271.273438 560.109375 270.949219 559.328125 270.496094 C 559.066406 270.304688 558.84375 270.058594 558.648438 269.765625 C 558.453125 269.476562 558.292969 269.167969 558.164062 268.84375 C 558.03125 268.515625 557.917969 268.179688 557.820312 267.820312 C 557.722656 267.46875 557.609375 267.125 557.476562 266.800781 C 557.285156 266.152344 557.1875 265.539062 557.1875 264.949219 L 557.1875 209.742188 C 557.1875 209.355469 557.203125 208.949219 557.238281 208.527344 C 557.273438 208.105469 557.320312 207.734375 557.386719 207.410156 C 557.449219 206.695312 557.679688 205.980469 558.066406 205.269531 C 558.261719 204.492188 558.585938 203.9375 559.035156 203.613281 C 559.425781 203.222656 560.023438 202.882812 560.832031 202.589844 C 561.644531 202.300781 562.824219 202.183594 564.378906 202.25 C 567.292969 202.3125 570.175781 202.34375 573.023438 202.34375 C 575.871094 202.34375 578.726562 202.40625 581.574219 202.539062 C 583.449219 202.671875 585.441406 202.882812 587.546875 203.171875 C 589.652344 203.464844 591.609375 203.964844 593.425781 204.679688 C 594.589844 205.136719 595.664062 205.585938 596.632812 206.039062 C 597.867188 206.75 598.835938 207.429688 599.550781 208.082031 C 601.816406 210.152344 603.53125 212.648438 604.695312 215.566406 C 605.859375 218.480469 606.449219 221.433594 606.449219 224.410156 C 606.449219 227.910156 605.621094 231.117188 603.972656 234.035156 C 602.324219 236.953125 599.679688 239.121094 596.050781 240.546875 C 595.917969 240.679688 595.742188 240.757812 595.515625 240.792969 C 595.285156 240.828125 595.109375 240.875 594.976562 240.9375 L 603.921875 258.917969 L 604.792969 260.46875 C 604.925781 260.726562 605.085938 261.023438 605.277344 261.34375 C 605.472656 261.667969 605.632812 261.992188 605.761719 262.3125 C 605.957031 262.636719 606.132812 262.992188 606.300781 263.378906 C 606.460938 263.769531 606.640625 264.128906 606.835938 264.449219 C 607.046875 265.402344 607.207031 266.144531 607.339844 266.726562 Z M 583.042969 232.125 C 584.207031 232.125 585.328125 231.914062 586.394531 231.488281 C 587.460938 231.066406 588.4375 230.503906 589.3125 229.789062 C 590.183594 229.074219 590.914062 228.253906 591.496094 227.3125 C 592.078125 226.375 592.402344 225.355469 592.464844 224.253906 C 592.722656 221.011719 591.882812 218.601562 589.9375 217.007812 C 587.992188 215.421875 585.4375 214.566406 582.261719 214.433594 C 580.386719 214.304688 578.324219 214.242188 576.09375 214.242188 C 573.863281 214.242188 571.734375 214.242188 569.730469 214.242188 C 569.792969 216.902344 569.8125 219.601562 569.78125 222.355469 C 569.746094 225.113281 569.730469 228.367188 569.730469 232.125 Z M 583.042969 232.125 " fill-opacity="1" fill-rule="nonzero"/><path fill="#004966" d="M 662.535156 205.203125 C 663.25 206.050781 663.601562 206.921875 663.601562 207.832031 C 663.601562 208.21875 663.585938 208.625 663.550781 209.046875 C 663.515625 209.46875 663.472656 209.839844 663.402344 210.164062 C 663.207031 210.878906 662.785156 211.558594 662.140625 212.207031 C 661.621094 212.597656 660.910156 212.886719 660 213.082031 C 659.542969 213.214844 659.09375 213.308594 658.644531 213.375 C 658.1875 213.4375 657.703125 213.53125 657.1875 213.664062 C 656.730469 213.726562 656.28125 213.761719 655.828125 213.761719 C 655.375 213.761719 654.886719 213.761719 654.375 213.761719 L 649.421875 213.761719 C 648.257812 213.824219 647.105469 213.859375 645.972656 213.859375 C 644.839844 213.859375 643.71875 213.859375 642.625 213.859375 C 642.6875 215.867188 642.722656 218.019531 642.722656 220.320312 C 642.722656 222.621094 642.703125 225.292969 642.675781 228.339844 C 642.640625 231.386719 642.613281 234.914062 642.578125 238.933594 C 642.542969 242.953125 642.527344 247.613281 642.527344 252.929688 L 642.527344 260.316406 C 642.527344 260.964844 642.5625 261.449219 642.625 261.769531 C 642.625 262.027344 642.625 262.273438 642.625 262.5 C 642.625 262.730469 642.589844 263.003906 642.527344 263.328125 C 642.394531 263.910156 642.296875 264.589844 642.234375 265.371094 C 642.234375 265.699219 642.203125 266.003906 642.140625 266.296875 C 642.078125 266.589844 641.980469 266.894531 641.847656 267.222656 C 641.589844 267.484375 641.460938 267.671875 641.460938 267.804688 L 641.167969 268.386719 C 640.84375 269.035156 640.226562 269.648438 639.320312 270.234375 C 637.894531 270.949219 636.304688 271.109375 634.558594 270.71875 C 633.457031 270.589844 632.613281 270.296875 632.03125 269.847656 C 631.449219 269.265625 631.027344 268.683594 630.769531 268.09375 C 630.382812 267.382812 630.15625 266.703125 630.09375 266.050781 C 629.898438 265.46875 629.800781 264.851562 629.800781 264.203125 L 629.800781 214.246094 C 629.414062 214.246094 628.601562 214.246094 627.371094 214.246094 C 626.136719 214.246094 624.824219 214.230469 623.433594 214.199219 C 622.039062 214.167969 620.726562 214.121094 619.496094 214.050781 C 618.261719 213.988281 617.421875 213.921875 616.964844 213.859375 C 616.578125 213.796875 615.980469 213.699219 615.167969 213.566406 C 614.359375 213.4375 613.695312 213.308594 613.175781 213.179688 C 611.820312 212.789062 610.746094 212.175781 609.96875 211.328125 C 609.257812 210.492188 608.902344 209.546875 608.902344 208.511719 C 608.902344 208.121094 608.902344 207.734375 608.902344 207.34375 C 608.902344 206.957031 608.964844 206.601562 609.097656 206.277344 C 609.289062 205.5 609.808594 204.851562 610.648438 204.332031 C 610.90625 204.136719 611.3125 203.890625 611.863281 203.601562 C 612.410156 203.308594 612.949219 203.097656 613.46875 202.96875 C 614.242188 202.710938 615.21875 202.515625 616.382812 202.386719 C 616.902344 202.324219 617.417969 202.289062 617.9375 202.289062 C 618.457031 202.289062 619.003906 202.289062 619.585938 202.289062 C 621.851562 202.289062 624.007812 202.289062 626.046875 202.289062 C 628.089844 202.289062 630.238281 202.253906 632.503906 202.191406 C 636.261719 202.128906 640.003906 202.109375 643.730469 202.144531 C 647.457031 202.179688 651.167969 202.257812 654.859375 202.390625 C 655.699219 202.453125 656.507812 202.550781 657.289062 202.683594 C 658.066406 202.8125 658.84375 203.035156 659.625 203.363281 C 660.207031 203.554688 660.753906 203.800781 661.273438 204.09375 C 661.789062 204.378906 662.210938 204.75 662.535156 205.203125 Z M 662.535156 205.203125 " fill-opacity="1" fill-rule="nonzero"/><path fill="#004966" d="M 670.5 260.699219 L 670.597656 253.019531 L 670.695312 238.734375 C 670.757812 236.660156 670.792969 234.519531 670.792969 232.316406 C 670.792969 230.113281 670.792969 227.847656 670.792969 225.515625 C 670.792969 223.179688 670.792969 221.105469 670.792969 219.292969 C 670.792969 217.476562 670.855469 215.4375 670.988281 213.167969 L 670.988281 212.78125 C 671.050781 212.132812 671.101562 211.464844 671.136719 210.789062 C 671.167969 210.109375 671.179688 209.410156 671.179688 208.699219 C 671.242188 207.535156 671.601562 206.265625 672.25 204.90625 C 672.699219 204 673.378906 203.222656 674.292969 202.574219 C 675.324219 202.054688 676.335938 201.796875 677.304688 201.796875 C 677.824219 201.796875 678.292969 201.816406 678.714844 201.847656 C 679.136719 201.882812 679.542969 201.929688 679.929688 201.992188 C 680.769531 202.121094 681.515625 202.511719 682.167969 203.15625 C 682.554688 203.480469 682.910156 204 683.234375 204.707031 C 683.363281 205.097656 683.480469 205.472656 683.578125 205.828125 C 683.671875 206.179688 683.753906 206.558594 683.820312 206.945312 C 683.882812 207.398438 683.9375 207.820312 683.96875 208.207031 C 684.003906 208.59375 684.019531 208.984375 684.019531 209.371094 C 684.019531 209.824219 684.003906 210.234375 683.96875 210.585938 C 683.9375 210.945312 683.917969 211.316406 683.917969 211.707031 L 683.917969 213.355469 L 683.335938 263.796875 L 683.335938 264.765625 C 683.335938 264.960938 683.320312 265.207031 683.285156 265.496094 C 683.25 265.789062 683.207031 266.132812 683.136719 266.519531 C 683.003906 266.84375 682.890625 267.1875 682.792969 267.542969 C 682.699219 267.894531 682.582031 268.273438 682.453125 268.660156 C 682.257812 268.984375 682.046875 269.292969 681.820312 269.585938 C 681.589844 269.875 681.316406 270.15625 680.992188 270.414062 C 680.472656 270.929688 679.632812 271.285156 678.464844 271.480469 C 676.710938 271.867188 675.0625 271.707031 673.507812 270.996094 C 672.734375 270.476562 672.179688 269.828125 671.859375 269.046875 C 671.667969 268.855469 671.570312 268.660156 671.570312 268.464844 C 671.507812 268.335938 671.4375 268.238281 671.375 268.175781 C 671.3125 268.113281 671.242188 268.015625 671.179688 267.882812 C 671.050781 267.558594 670.953125 267.222656 670.890625 266.863281 C 670.828125 266.507812 670.792969 266.132812 670.792969 265.742188 C 670.730469 265.417969 670.679688 265.097656 670.644531 264.773438 C 670.609375 264.449219 670.566406 264.128906 670.496094 263.800781 C 670.433594 263.28125 670.433594 262.734375 670.496094 262.152344 L 670.496094 260.699219 Z M 670.5 260.699219 " fill-opacity="1" fill-rule="nonzero"/><path fill="#004966" d="M 740.078125 205.109375 C 740.660156 205.882812 741.015625 206.792969 741.148438 207.832031 C 741.148438 208.21875 741.128906 208.59375 741.09375 208.949219 C 741.0625 209.304688 741.015625 209.644531 740.945312 209.972656 C 740.882812 210.683594 740.460938 211.363281 739.6875 212.015625 C 739.230469 212.339844 738.648438 212.664062 737.941406 212.984375 C 737.550781 213.117188 737.144531 213.195312 736.722656 213.230469 C 736.300781 213.265625 735.832031 213.308594 735.3125 213.378906 C 734.925781 213.511719 734.503906 213.574219 734.054688 213.574219 C 733.597656 213.574219 733.144531 213.574219 732.695312 213.574219 L 728.324219 213.574219 L 708.011719 213.667969 L 708.011719 213.960938 L 707.914062 229.800781 C 708.433594 229.800781 709 229.800781 709.617188 229.800781 C 710.234375 229.800781 710.992188 229.765625 711.898438 229.703125 C 714.488281 229.703125 716.808594 229.703125 718.84375 229.703125 C 720.886719 229.703125 723.136719 229.738281 725.59375 229.800781 L 726.179688 229.800781 C 726.890625 229.800781 727.617188 229.816406 728.363281 229.851562 C 729.105469 229.886719 729.871094 229.902344 730.644531 229.902344 C 731.359375 229.964844 732.074219 230.046875 732.785156 230.148438 C 733.5 230.246094 734.214844 230.421875 734.925781 230.683594 C 736.089844 231.074219 736.933594 231.691406 737.453125 232.535156 C 738.167969 233.378906 738.523438 234.253906 738.523438 235.160156 C 738.523438 235.546875 738.523438 235.925781 738.523438 236.277344 C 738.523438 236.632812 738.457031 237.007812 738.328125 237.398438 C 738.265625 237.917969 737.84375 238.5625 737.066406 239.34375 C 736.546875 239.800781 735.929688 240.089844 735.21875 240.21875 C 734.890625 240.347656 734.519531 240.460938 734.097656 240.558594 C 733.675781 240.65625 733.238281 240.738281 732.785156 240.804688 C 732.328125 240.867188 731.894531 240.917969 731.472656 240.949219 C 731.050781 240.980469 730.582031 241 730.0625 241 L 725.59375 241 L 707.714844 241.097656 L 707.425781 263.644531 L 707.425781 264.417969 C 707.425781 264.746094 707.40625 265.050781 707.375 265.34375 C 707.339844 265.632812 707.292969 265.941406 707.226562 266.269531 C 707.09375 266.59375 706.980469 266.929688 706.882812 267.289062 C 706.785156 267.644531 706.671875 267.984375 706.539062 268.3125 C 706.085938 269.21875 705.667969 269.835938 705.28125 270.160156 C 704.566406 270.679688 703.691406 271.035156 702.652344 271.226562 C 700.90625 271.617188 699.253906 271.421875 697.699219 270.644531 C 697.375 270.453125 697.066406 270.207031 696.777344 269.914062 C 696.484375 269.625 696.238281 269.253906 696.046875 268.796875 C 695.914062 268.539062 695.851562 268.347656 695.851562 268.214844 L 695.5625 267.632812 C 695.367188 267.308594 695.234375 266.96875 695.171875 266.609375 C 695.109375 266.257812 695.042969 265.914062 694.976562 265.589844 C 694.976562 265.261719 694.960938 264.945312 694.933594 264.617188 C 694.898438 264.292969 694.851562 263.972656 694.785156 263.648438 C 694.722656 263.128906 694.722656 262.613281 694.785156 262.09375 L 694.785156 260.542969 L 694.882812 252.964844 L 694.976562 238.96875 C 695.042969 236.894531 695.074219 234.789062 695.074219 232.648438 C 695.074219 230.507812 695.074219 228.3125 695.074219 226.039062 C 695.011719 223.703125 694.996094 221.632812 695.03125 219.816406 C 695.0625 218.003906 695.144531 216.027344 695.273438 213.886719 L 695.273438 213.402344 C 695.339844 212.6875 695.371094 212.027344 695.371094 211.410156 C 695.371094 210.792969 695.433594 210.164062 695.566406 209.515625 C 695.699219 208.085938 696.015625 206.824219 696.535156 205.722656 C 696.988281 204.621094 697.636719 203.847656 698.484375 203.390625 C 699.453125 202.808594 700.492188 202.515625 701.59375 202.515625 C 702.113281 202.515625 702.527344 202.550781 702.855469 202.613281 L 702.855469 202.515625 C 704.019531 202.515625 704.960938 202.515625 705.671875 202.515625 C 706.386719 202.515625 707.066406 202.515625 707.714844 202.515625 C 708.359375 202.515625 709.074219 202.5 709.855469 202.472656 C 710.632812 202.4375 711.671875 202.417969 712.964844 202.417969 C 718.148438 202.355469 723.265625 202.355469 728.316406 202.417969 L 728.804688 202.417969 C 729.515625 202.480469 730.242188 202.515625 730.988281 202.515625 C 731.730469 202.515625 732.496094 202.550781 733.269531 202.613281 C 733.984375 202.613281 734.699219 202.695312 735.410156 202.859375 C 736.125 203.023438 736.839844 203.230469 737.550781 203.492188 C 738.652344 203.777344 739.496094 204.324219 740.078125 205.109375 Z M 740.078125 205.109375 " fill-opacity="1" fill-rule="nonzero"/><path fill="#004966" d="M 750.574219 260.699219 L 750.671875 253.019531 L 750.769531 238.734375 C 750.832031 236.660156 750.867188 234.519531 750.867188 232.316406 C 750.867188 230.113281 750.867188 227.847656 750.867188 225.515625 C 750.867188 223.179688 750.867188 221.105469 750.867188 219.292969 C 750.867188 217.476562 750.929688 215.4375 751.058594 213.167969 L 751.058594 212.78125 C 751.121094 212.132812 751.171875 211.464844 751.207031 210.789062 C 751.242188 210.109375 751.253906 209.410156 751.253906 208.699219 C 751.316406 207.535156 751.675781 206.265625 752.320312 204.90625 C 752.773438 204 753.449219 203.222656 754.363281 202.574219 C 755.398438 202.054688 756.40625 201.796875 757.378906 201.796875 C 757.894531 201.796875 758.363281 201.816406 758.785156 201.847656 C 759.207031 201.882812 759.613281 201.929688 760.003906 201.992188 C 760.839844 202.121094 761.589844 202.511719 762.238281 203.15625 C 762.628906 203.480469 762.980469 204 763.304688 204.707031 C 763.4375 205.097656 763.550781 205.472656 763.648438 205.828125 C 763.746094 206.179688 763.824219 206.558594 763.894531 206.945312 C 763.957031 207.398438 764.007812 207.820312 764.042969 208.207031 C 764.078125 208.59375 764.089844 208.984375 764.089844 209.371094 C 764.089844 209.824219 764.070312 210.234375 764.042969 210.585938 C 764.007812 210.945312 763.992188 211.316406 763.992188 211.707031 L 763.992188 213.355469 L 763.410156 263.796875 L 763.410156 264.765625 C 763.410156 264.960938 763.390625 265.207031 763.363281 265.496094 C 763.328125 265.789062 763.285156 266.132812 763.214844 266.519531 C 763.082031 266.84375 762.96875 267.1875 762.871094 267.542969 C 762.777344 267.894531 762.660156 268.273438 762.53125 268.660156 C 762.335938 268.984375 762.125 269.292969 761.898438 269.585938 C 761.667969 269.875 761.394531 270.15625 761.070312 270.414062 C 760.550781 270.929688 759.710938 271.285156 758.542969 271.480469 C 756.789062 271.867188 755.140625 271.707031 753.585938 270.996094 C 752.8125 270.476562 752.257812 269.828125 751.9375 269.046875 C 751.746094 268.855469 751.648438 268.660156 751.648438 268.464844 C 751.585938 268.335938 751.515625 268.238281 751.453125 268.175781 C 751.390625 268.113281 751.320312 268.015625 751.257812 267.882812 C 751.128906 267.558594 751.03125 267.222656 750.96875 266.863281 C 750.90625 266.507812 750.871094 266.132812 750.871094 265.742188 C 750.808594 265.417969 750.757812 265.097656 750.722656 264.773438 C 750.6875 264.449219 750.644531 264.128906 750.574219 263.800781 C 750.511719 263.28125 750.511719 262.734375 750.574219 262.152344 Z M 750.574219 260.699219 " fill-opacity="1" fill-rule="nonzero"/><path fill="#004966" d="M 826.367188 254.675781 C 827.207031 256.554688 827.238281 258.386719 826.464844 260.167969 C 825.6875 261.949219 824.457031 263.585938 822.773438 265.074219 C 821.089844 266.566406 819.160156 267.859375 816.992188 268.960938 C 814.820312 270.0625 812.761719 270.839844 810.820312 271.296875 C 808.679688 271.746094 806.433594 271.960938 804.070312 271.929688 C 801.703125 271.894531 799.339844 271.605469 796.976562 271.058594 C 794.609375 270.507812 792.3125 269.699219 790.078125 268.625 C 787.839844 267.558594 785.785156 266.246094 783.90625 264.6875 C 781.636719 262.808594 779.875 260.554688 778.613281 257.933594 C 777.351562 255.308594 776.425781 252.507812 775.84375 249.527344 C 775.261719 246.546875 774.953125 243.550781 774.917969 240.535156 C 774.886719 237.523438 774.972656 234.691406 775.164062 232.03125 C 775.359375 229.636719 775.84375 227.140625 776.621094 224.550781 C 777.398438 221.957031 778.480469 219.410156 779.875 216.917969 C 781.265625 214.421875 782.949219 212.105469 784.925781 209.972656 C 786.898438 207.832031 789.214844 206.019531 791.867188 204.527344 C 793.878906 203.359375 796.125 202.566406 798.621094 202.144531 C 801.113281 201.722656 803.640625 201.625 806.199219 201.855469 C 808.753906 202.082031 811.1875 202.628906 813.488281 203.503906 C 815.785156 204.378906 817.742188 205.558594 819.363281 207.046875 C 820.398438 207.957031 821.488281 209.21875 822.617188 210.839844 C 823.746094 212.460938 824.574219 214.109375 825.09375 215.792969 C 825.613281 217.476562 825.628906 219.046875 825.140625 220.507812 C 824.65625 221.964844 823.34375 222.957031 821.203125 223.46875 C 820.292969 223.734375 819.484375 223.777344 818.769531 223.613281 C 818.058594 223.453125 817.414062 223.160156 816.824219 222.738281 C 816.242188 222.316406 815.6875 221.816406 815.171875 221.234375 C 814.652344 220.652344 814.164062 220.070312 813.714844 219.484375 C 812.164062 217.609375 810.347656 216.328125 808.269531 215.644531 C 806.199219 214.964844 804.136719 214.804688 802.101562 215.160156 C 800.058594 215.511719 798.144531 216.359375 796.367188 217.6875 C 794.585938 219.019531 793.210938 220.71875 792.234375 222.792969 C 791.195312 224.996094 790.375 227.410156 789.757812 230.035156 C 789.140625 232.660156 788.796875 235.3125 788.734375 238.003906 C 788.671875 240.691406 788.914062 243.300781 789.464844 245.828125 C 790.015625 248.355469 790.972656 250.589844 792.332031 252.535156 C 793.363281 254.085938 794.648438 255.355469 796.171875 256.324219 C 797.695312 257.296875 799.328125 257.976562 801.078125 258.367188 C 802.824219 258.757812 804.59375 258.820312 806.375 258.5625 C 808.15625 258.304688 809.890625 257.722656 811.574219 256.816406 C 812.09375 256.558594 812.660156 256.183594 813.273438 255.695312 C 813.890625 255.210938 814.519531 254.710938 815.167969 254.191406 C 815.816406 253.671875 816.484375 253.1875 817.160156 252.734375 C 817.839844 252.285156 818.570312 251.957031 819.347656 251.765625 C 820.511719 251.375 821.789062 251.410156 823.1875 251.863281 C 824.601562 252.308594 825.652344 253.25 826.367188 254.675781 Z M 826.367188 254.675781 " fill-opacity="1" fill-rule="nonzero"/><path fill="#004966" d="M 894.78125 264.390625 C 894.84375 264.777344 894.894531 265.15625 894.929688 265.507812 C 894.964844 265.867188 894.972656 266.273438 894.972656 266.726562 C 894.972656 267.5 894.746094 268.214844 894.296875 268.867188 C 894.101562 269.191406 893.839844 269.5 893.519531 269.789062 C 893.195312 270.082031 892.804688 270.328125 892.355469 270.519531 C 890.734375 271.429688 889.015625 271.753906 887.207031 271.492188 C 886.300781 271.226562 885.488281 270.8125 884.777344 270.230469 C 884.644531 270.097656 884.546875 270.019531 884.484375 269.984375 C 884.421875 269.949219 884.355469 269.871094 884.292969 269.738281 C 884.226562 269.675781 884.160156 269.597656 884.097656 269.492188 C 884.035156 269.394531 883.9375 269.316406 883.804688 269.246094 C 883.480469 268.921875 883.222656 268.613281 883.03125 268.324219 C 882.835938 268.03125 882.640625 267.722656 882.449219 267.398438 C 882.316406 267.074219 882.175781 266.765625 882.007812 266.472656 C 881.847656 266.183594 881.667969 265.875 881.472656 265.550781 C 881.339844 265.292969 881.210938 265.046875 881.082031 264.820312 C 880.953125 264.589844 880.855469 264.351562 880.792969 264.085938 C 880.53125 263.503906 880.371094 262.984375 880.308594 262.535156 L 878.265625 257.773438 C 873.796875 257.773438 869.339844 257.792969 864.90625 257.828125 C 860.464844 257.859375 856.015625 257.84375 851.546875 257.773438 L 849.503906 262.535156 C 849.371094 262.792969 849.292969 263.054688 849.257812 263.3125 C 849.222656 263.570312 849.144531 263.832031 849.011719 264.085938 C 848.878906 264.34375 848.765625 264.589844 848.667969 264.820312 C 848.570312 265.046875 848.457031 265.285156 848.328125 265.550781 C 848.132812 265.875 847.957031 266.183594 847.789062 266.472656 C 847.628906 266.765625 847.449219 267.074219 847.253906 267.398438 C 847.121094 267.722656 846.960938 268.03125 846.769531 268.324219 C 846.574219 268.613281 846.3125 268.921875 845.992188 269.246094 C 845.863281 269.316406 845.765625 269.394531 845.703125 269.492188 C 845.640625 269.589844 845.570312 269.671875 845.507812 269.738281 C 845.445312 269.871094 845.375 269.949219 845.3125 269.984375 C 845.25 270.019531 845.152344 270.097656 845.023438 270.230469 C 844.308594 270.8125 843.5 271.234375 842.589844 271.492188 C 840.777344 271.746094 839.058594 271.429688 837.445312 270.519531 C 836.988281 270.328125 836.597656 270.082031 836.28125 269.789062 C 835.953125 269.5 835.699219 269.191406 835.503906 268.867188 C 835.046875 268.21875 834.824219 267.507812 834.824219 266.726562 C 834.824219 266.273438 834.839844 265.867188 834.875 265.507812 C 834.910156 265.15625 834.957031 264.777344 835.023438 264.390625 C 835.15625 263.808594 835.316406 263.226562 835.507812 262.644531 L 835.800781 261.769531 L 856.015625 212.007812 L 856.597656 210.457031 C 856.726562 210.066406 856.886719 209.714844 857.082031 209.390625 C 857.273438 209.0625 857.433594 208.675781 857.566406 208.222656 C 857.890625 207.386719 858.246094 206.636719 858.632812 205.988281 C 858.828125 205.597656 859.054688 205.246094 859.3125 204.917969 C 859.570312 204.59375 859.832031 204.273438 860.089844 203.949219 C 860.476562 203.429688 861.023438 203.011719 861.738281 202.6875 C 862.644531 202.363281 863.695312 202.203125 864.894531 202.203125 C 866.09375 202.203125 867.140625 202.363281 868.050781 202.6875 C 868.761719 203.011719 869.3125 203.433594 869.703125 203.949219 C 870.15625 204.53125 870.640625 205.210938 871.160156 205.992188 C 871.546875 206.644531 871.902344 207.386719 872.226562 208.230469 C 872.359375 208.679688 872.519531 209.074219 872.710938 209.394531 C 872.90625 209.71875 873.066406 210.074219 873.195312 210.460938 L 873.78125 212.015625 L 893.992188 261.777344 L 894.285156 262.648438 C 894.488281 263.226562 894.648438 263.808594 894.78125 264.390625 Z M 871.746094 240.582031 C 870.902344 238.703125 870.046875 236.757812 869.171875 234.75 C 868.300781 232.738281 867.375 230.703125 866.40625 228.625 C 866.144531 228.042969 865.886719 227.441406 865.628906 226.828125 C 865.371094 226.210938 865.109375 225.609375 864.855469 225.027344 C 864.660156 225.609375 864.429688 226.210938 864.175781 226.828125 C 863.917969 227.441406 863.65625 228.042969 863.398438 228.625 C 862.429688 230.695312 861.503906 232.738281 860.628906 234.75 C 859.757812 236.757812 858.894531 238.703125 858.058594 240.582031 L 856.3125 244.859375 L 873.511719 244.859375 Z M 871.746094 240.582031 " fill-opacity="1" fill-rule="nonzero"/><path fill="#004966" d="M 943.757812 205.203125 C 944.46875 206.050781 944.824219 206.921875 944.824219 207.832031 C 944.824219 208.21875 944.804688 208.625 944.773438 209.046875 C 944.738281 209.46875 944.691406 209.839844 944.625 210.164062 C 944.429688 210.878906 944.007812 211.558594 943.363281 212.207031 C 942.84375 212.597656 942.128906 212.886719 941.222656 213.082031 C 940.765625 213.214844 940.316406 213.308594 939.863281 213.375 C 939.40625 213.4375 938.921875 213.53125 938.410156 213.664062 C 937.953125 213.726562 937.5 213.761719 937.050781 213.761719 C 936.59375 213.761719 936.109375 213.761719 935.59375 213.761719 L 930.640625 213.761719 C 929.476562 213.824219 928.324219 213.859375 927.195312 213.859375 C 926.058594 213.859375 924.941406 213.859375 923.84375 213.859375 C 923.90625 215.867188 923.941406 218.019531 923.941406 220.320312 C 923.941406 222.621094 923.925781 225.292969 923.898438 228.339844 C 923.863281 231.386719 923.832031 234.914062 923.800781 238.933594 C 923.765625 242.953125 923.75 247.613281 923.75 252.929688 L 923.75 260.316406 C 923.75 260.964844 923.78125 261.449219 923.84375 261.769531 C 923.84375 262.027344 923.84375 262.273438 923.84375 262.5 C 923.84375 262.730469 923.8125 263.003906 923.75 263.328125 C 923.617188 263.910156 923.519531 264.589844 923.457031 265.371094 C 923.457031 265.699219 923.421875 266.003906 923.359375 266.296875 C 923.296875 266.589844 923.199219 266.894531 923.070312 267.222656 C 922.8125 267.484375 922.679688 267.671875 922.679688 267.804688 L 922.390625 268.386719 C 922.066406 269.035156 921.449219 269.648438 920.539062 270.234375 C 919.113281 270.949219 917.527344 271.109375 915.78125 270.71875 C 914.679688 270.589844 913.835938 270.296875 913.253906 269.847656 C 912.671875 269.265625 912.25 268.683594 911.992188 268.09375 C 911.605469 267.382812 911.375 266.703125 911.3125 266.050781 C 911.117188 265.46875 911.023438 264.851562 911.023438 264.203125 L 911.023438 214.246094 C 910.632812 214.246094 909.824219 214.246094 908.589844 214.246094 C 907.359375 214.246094 906.046875 214.230469 904.652344 214.199219 C 903.261719 214.167969 901.949219 214.121094 900.714844 214.050781 C 899.484375 213.988281 898.644531 213.921875 898.1875 213.859375 C 897.800781 213.796875 897.199219 213.699219 896.390625 213.566406 C 895.578125 213.4375 894.917969 213.308594 894.398438 213.179688 C 893.039062 212.789062 891.964844 212.175781 891.191406 211.328125 C 890.476562 210.492188 890.125 209.546875 890.125 208.511719 C 890.125 208.121094 890.125 207.734375 890.125 207.34375 C 890.125 206.957031 890.1875 206.601562 890.316406 206.277344 C 890.511719 205.5 891.03125 204.851562 891.871094 204.332031 C 892.125 204.136719 892.53125 203.890625 893.085938 203.601562 C 893.632812 203.308594 894.167969 203.097656 894.6875 202.96875 C 895.464844 202.710938 896.441406 202.515625 897.605469 202.386719 C 898.125 202.324219 898.636719 202.289062 899.15625 202.289062 C 899.675781 202.289062 900.222656 202.289062 900.804688 202.289062 C 903.070312 202.289062 905.230469 202.289062 907.265625 202.289062 C 909.304688 202.289062 911.460938 202.253906 913.726562 202.191406 C 917.480469 202.128906 921.226562 202.109375 924.953125 202.144531 C 928.679688 202.179688 932.386719 202.257812 936.082031 202.390625 C 936.917969 202.453125 937.730469 202.550781 938.511719 202.683594 C 939.289062 202.8125 940.0625 203.035156 940.84375 203.363281 C 941.425781 203.554688 941.976562 203.800781 942.496094 204.09375 C 943.007812 204.378906 943.429688 204.75 943.757812 205.203125 Z M 943.757812 205.203125 " fill-opacity="1" fill-rule="nonzero"/><path fill="#004966" d="M 965.910156 213.851562 L 965.714844 229.109375 L 969.601562 229.109375 C 972.257812 229.046875 974.625 229.011719 976.695312 229.011719 C 978.769531 229.011719 981.066406 229.046875 983.597656 229.109375 L 984.082031 229.109375 C 984.855469 229.109375 985.621094 229.125 986.363281 229.15625 C 987.105469 229.191406 987.835938 229.199219 988.550781 229.199219 C 989.324219 229.265625 990.074219 229.378906 990.785156 229.542969 C 991.5 229.703125 992.214844 229.886719 992.925781 230.078125 C 994.027344 230.46875 994.933594 231.050781 995.648438 231.828125 C 996.292969 232.671875 996.617188 233.609375 996.617188 234.644531 C 996.617188 234.972656 996.617188 235.34375 996.617188 235.765625 C 996.617188 236.1875 996.554688 236.558594 996.425781 236.882812 C 996.292969 237.597656 995.871094 238.242188 995.164062 238.832031 C 994.839844 239.285156 994.222656 239.605469 993.320312 239.800781 C 992.476562 240.0625 991.636719 240.222656 990.792969 240.285156 C 989.882812 240.480469 988.976562 240.578125 988.070312 240.578125 L 983.503906 240.578125 L 965.527344 240.675781 L 965.332031 259.726562 L 984.675781 259.921875 L 989.238281 259.921875 C 989.757812 259.921875 990.246094 259.921875 990.695312 259.921875 C 991.144531 259.921875 991.566406 259.957031 991.957031 260.019531 C 992.476562 260.148438 992.945312 260.230469 993.367188 260.261719 C 993.789062 260.296875 994.191406 260.378906 994.582031 260.507812 C 995.359375 260.765625 996.007812 261.125 996.527344 261.578125 C 997.171875 262.226562 997.59375 262.90625 997.789062 263.621094 C 997.851562 263.945312 997.902344 264.289062 997.9375 264.640625 C 997.972656 264.996094 997.953125 265.371094 997.890625 265.761719 C 997.890625 266.800781 997.566406 267.734375 996.921875 268.578125 C 996.144531 269.488281 995.238281 270.070312 994.199219 270.328125 C 992.839844 270.910156 991.34375 271.199219 989.730469 271.199219 C 989.015625 271.261719 988.273438 271.296875 987.492188 271.296875 C 986.710938 271.296875 985.96875 271.332031 985.257812 271.394531 L 984.675781 271.394531 C 979.625 271.523438 974.375 271.523438 968.933594 271.394531 C 967.640625 271.394531 966.601562 271.375 965.824219 271.347656 C 965.046875 271.3125 964.351562 271.300781 963.734375 271.300781 C 963.121094 271.300781 962.484375 271.300781 961.839844 271.300781 C 961.191406 271.300781 960.351562 271.300781 959.3125 271.300781 C 957.824219 271.433594 956.589844 271.171875 955.621094 270.527344 C 954.90625 270.074219 954.359375 269.457031 953.964844 268.675781 C 953.773438 268.484375 953.675781 268.289062 953.675781 268.09375 C 953.613281 267.964844 953.542969 267.867188 953.480469 267.804688 C 953.417969 267.742188 953.347656 267.644531 953.285156 267.511719 C 953.15625 267.1875 953.058594 266.851562 952.996094 266.492188 C 952.933594 266.136719 952.898438 265.792969 952.898438 265.46875 C 952.835938 265.144531 952.785156 264.824219 952.75 264.5 C 952.714844 264.171875 952.671875 263.855469 952.601562 263.527344 L 952.601562 261.976562 C 952.601562 261.71875 952.617188 261.457031 952.652344 261.199219 C 952.6875 260.941406 952.699219 260.679688 952.699219 260.421875 L 952.699219 252.84375 L 952.894531 238.847656 L 952.894531 225.917969 C 952.894531 223.585938 952.910156 221.511719 952.945312 219.699219 C 952.980469 217.882812 953.023438 215.90625 953.09375 213.765625 L 953.09375 213.28125 C 953.15625 212.566406 953.207031 211.90625 953.242188 211.289062 C 953.273438 210.671875 953.285156 210.046875 953.285156 209.394531 C 953.347656 208.097656 953.707031 206.835938 954.355469 205.605469 C 954.609375 205.085938 954.890625 204.632812 955.179688 204.246094 C 955.472656 203.859375 955.878906 203.53125 956.398438 203.277344 C 957.367188 202.695312 958.371094 202.402344 959.410156 202.402344 C 959.929688 202.402344 960.316406 202.4375 960.574219 202.5 L 960.574219 202.402344 C 961.738281 202.402344 962.679688 202.402344 963.394531 202.402344 C 964.105469 202.402344 964.804688 202.402344 965.480469 202.402344 C 966.160156 202.402344 966.890625 202.386719 967.667969 202.351562 C 968.445312 202.316406 969.515625 202.300781 970.875 202.300781 C 973.464844 202.238281 975.925781 202.203125 978.257812 202.203125 C 980.59375 202.203125 982.984375 202.238281 985.449219 202.300781 L 985.839844 202.300781 C 986.550781 202.363281 987.292969 202.398438 988.074219 202.398438 C 988.855469 202.398438 989.597656 202.429688 990.3125 202.492188 C 991.027344 202.492188 991.738281 202.574219 992.453125 202.738281 C 993.164062 202.898438 993.878906 203.109375 994.59375 203.371094 C 995.695312 203.699219 996.601562 204.246094 997.316406 205.023438 C 997.898438 205.929688 998.1875 206.835938 998.1875 207.746094 C 998.1875 208.132812 998.1875 208.503906 998.1875 208.863281 C 998.1875 209.21875 998.125 209.558594 997.992188 209.886719 C 997.929688 210.535156 997.539062 211.214844 996.828125 211.929688 C 996.566406 212.058594 996.292969 212.21875 996.003906 212.414062 C 995.710938 212.609375 995.367188 212.769531 994.980469 212.898438 C 994.59375 213.03125 994.1875 213.109375 993.765625 213.144531 C 993.34375 213.179688 992.9375 213.222656 992.550781 213.289062 C 992.03125 213.417969 991.5625 213.480469 991.140625 213.480469 C 990.71875 213.480469 990.25 213.480469 989.730469 213.480469 L 985.359375 213.480469 L 965.921875 213.578125 L 965.921875 213.851562 Z M 965.910156 213.851562 " fill-opacity="1" fill-rule="nonzero"/><path fill="#004966" d="M 994.902344 332.664062 L 454.179688 332.664062 C 450.222656 332.664062 447.023438 329.460938 447.023438 325.503906 C 447.023438 321.550781 450.222656 318.347656 454.179688 318.347656 L 994.902344 318.347656 C 998.855469 318.347656 1002.058594 321.550781 1002.058594 325.503906 C 1002.058594 329.460938 998.855469 332.664062 994.902344 332.664062 Z M 994.902344 332.664062 " fill-opacity="1" fill-rule="nonzero"/><path fill="#004966" d="M 994.902344 376.566406 L 454.179688 376.566406 C 450.222656 376.566406 447.023438 373.367188 447.023438 369.410156 C 447.023438 365.453125 450.222656 362.253906 454.179688 362.253906 L 994.902344 362.253906 C 998.855469 362.253906 1002.058594 365.453125 1002.058594 369.410156 C 1002.058594 373.359375 998.855469 376.566406 994.902344 376.566406 Z M 994.902344 376.566406 " fill-opacity="1" fill-rule="nonzero"/><path fill="#f7a334" d="M 332.613281 535.511719 C 333.628906 535.675781 334.632812 535.890625 335.628906 536.152344 C 336.625 536.417969 337.605469 536.730469 338.570312 537.089844 C 339.535156 537.449219 340.476562 537.855469 341.402344 538.308594 C 342.328125 538.761719 343.226562 539.257812 344.105469 539.800781 C 344.980469 540.34375 345.828125 540.925781 346.644531 541.550781 C 347.464844 542.175781 348.25 542.835938 349.003906 543.539062 C 349.757812 544.242188 350.472656 544.980469 351.15625 545.75 C 351.835938 546.523438 352.476562 547.328125 353.078125 548.164062 C 353.683594 549 354.242188 549.863281 354.757812 550.753906 C 355.277344 551.640625 355.75 552.554688 356.175781 553.492188 C 356.605469 554.429688 356.984375 555.386719 357.316406 556.359375 C 357.652344 557.335938 357.9375 558.324219 358.171875 559.324219 C 358.410156 560.328125 358.597656 561.339844 358.734375 562.359375 C 358.871094 563.378906 358.957031 564.40625 358.992188 565.433594 C 359.03125 566.464844 359.015625 567.492188 358.953125 568.519531 C 358.886719 569.546875 358.773438 570.570312 358.609375 571.585938 C 358.441406 572.601562 358.226562 573.609375 357.964844 574.605469 C 357.699219 575.601562 357.390625 576.578125 357.027344 577.542969 C 356.667969 578.507812 356.261719 579.453125 355.808594 580.378906 C 355.355469 581.304688 354.859375 582.203125 354.316406 583.082031 C 353.777344 583.957031 353.195312 584.804688 352.570312 585.621094 C 351.945312 586.441406 351.28125 587.226562 350.578125 587.980469 C 349.878906 588.734375 349.140625 589.453125 348.367188 590.132812 C 347.597656 590.816406 346.792969 591.457031 345.957031 592.058594 C 345.121094 592.660156 344.257812 593.21875 343.367188 593.738281 C 342.476562 594.253906 341.566406 594.726562 340.628906 595.15625 C 339.691406 595.582031 338.734375 595.964844 337.761719 596.296875 C 336.789062 596.628906 335.800781 596.914062 334.796875 597.152344 C 333.796875 597.390625 332.785156 597.574219 331.761719 597.714844 C 330.742188 597.851562 329.71875 597.9375 328.6875 597.972656 C 327.660156 598.011719 326.632812 597.996094 325.605469 597.929688 C 324.578125 597.867188 323.554688 597.753906 322.539062 597.585938 C 321.523438 597.421875 320.515625 597.207031 319.519531 596.945312 C 318.523438 596.679688 317.546875 596.367188 316.582031 596.007812 C 315.617188 595.648438 314.671875 595.242188 313.746094 594.789062 C 312.820312 594.335938 311.921875 593.839844 311.046875 593.296875 C 310.167969 592.753906 309.324219 592.171875 308.503906 591.546875 C 307.683594 590.921875 306.898438 590.257812 306.144531 589.558594 C 305.390625 588.855469 304.675781 588.117188 303.996094 587.347656 C 303.3125 586.574219 302.671875 585.769531 302.070312 584.933594 C 301.46875 584.097656 300.90625 583.234375 300.390625 582.34375 C 299.875 581.453125 299.402344 580.539062 298.972656 579.605469 C 298.546875 578.667969 298.164062 577.710938 297.832031 576.738281 C 297.5 575.761719 297.214844 574.773438 296.976562 573.773438 C 296.738281 572.769531 296.554688 571.757812 296.417969 570.738281 C 296.277344 569.71875 296.191406 568.691406 296.15625 567.664062 C 296.121094 566.632812 296.132812 565.605469 296.199219 564.578125 C 296.261719 563.550781 296.378906 562.527344 296.542969 561.511719 C 296.707031 560.496094 296.921875 559.488281 297.183594 558.492188 C 297.449219 557.496094 297.761719 556.515625 298.121094 555.550781 C 298.480469 554.585938 298.886719 553.640625 299.339844 552.71875 C 299.792969 551.792969 300.289062 550.890625 300.832031 550.015625 C 301.375 549.140625 301.957031 548.292969 302.582031 547.472656 C 303.207031 546.65625 303.867188 545.871094 304.570312 545.117188 C 305.273438 544.363281 306.007812 543.644531 306.78125 542.964844 C 307.554688 542.28125 308.359375 541.640625 309.191406 541.039062 C 310.027344 540.4375 310.890625 539.875 311.78125 539.359375 C 312.671875 538.84375 313.585938 538.371094 314.523438 537.941406 C 315.457031 537.515625 316.414062 537.132812 317.386719 536.800781 C 318.363281 536.464844 319.351562 536.179688 320.351562 535.945312 C 321.355469 535.707031 322.367188 535.519531 323.386719 535.382812 C 324.40625 535.246094 325.433594 535.160156 326.460938 535.125 C 327.488281 535.085938 328.519531 535.101562 329.546875 535.164062 C 330.574219 535.230469 331.59375 535.34375 332.613281 535.511719 Z M 332.613281 535.511719 " fill-opacity="1" fill-rule="nonzero"/><path fill="#f7a334" d="M 1129.292969 544.304688 C 1130.023438 545.035156 1130.714844 545.796875 1131.367188 546.59375 C 1132.019531 547.386719 1132.632812 548.214844 1133.203125 549.070312 C 1133.777344 549.925781 1134.304688 550.808594 1134.789062 551.71875 C 1135.277344 552.625 1135.714844 553.554688 1136.109375 554.507812 C 1136.503906 555.457031 1136.851562 556.425781 1137.148438 557.414062 C 1137.449219 558.398438 1137.699219 559.394531 1137.898438 560.40625 C 1138.101562 561.417969 1138.25 562.433594 1138.351562 563.457031 C 1138.453125 564.484375 1138.503906 565.511719 1138.503906 566.539062 C 1138.503906 567.570312 1138.453125 568.597656 1138.351562 569.621094 C 1138.25 570.648438 1138.101562 571.664062 1137.898438 572.675781 C 1137.699219 573.683594 1137.449219 574.683594 1137.148438 575.667969 C 1136.851562 576.65625 1136.503906 577.621094 1136.109375 578.574219 C 1135.714844 579.527344 1135.277344 580.457031 1134.792969 581.363281 C 1134.304688 582.273438 1133.777344 583.15625 1133.203125 584.011719 C 1132.632812 584.867188 1132.019531 585.691406 1131.367188 586.488281 C 1130.714844 587.285156 1130.023438 588.046875 1129.296875 588.777344 C 1128.566406 589.503906 1127.804688 590.195312 1127.007812 590.847656 C 1126.214844 591.5 1125.386719 592.113281 1124.53125 592.6875 C 1123.675781 593.257812 1122.792969 593.789062 1121.882812 594.273438 C 1120.976562 594.757812 1120.046875 595.199219 1119.09375 595.59375 C 1118.144531 595.988281 1117.175781 596.332031 1116.191406 596.632812 C 1115.207031 596.929688 1114.207031 597.179688 1113.199219 597.382812 C 1112.1875 597.582031 1111.171875 597.734375 1110.144531 597.835938 C 1109.121094 597.9375 1108.09375 597.984375 1107.066406 597.984375 C 1106.035156 597.984375 1105.007812 597.9375 1103.984375 597.835938 C 1102.957031 597.734375 1101.941406 597.582031 1100.929688 597.382812 C 1099.921875 597.179688 1098.921875 596.929688 1097.9375 596.632812 C 1096.953125 596.332031 1095.984375 595.988281 1095.035156 595.59375 C 1094.082031 595.199219 1093.152344 594.757812 1092.246094 594.273438 C 1091.335938 593.789062 1090.453125 593.257812 1089.597656 592.6875 C 1088.742188 592.113281 1087.914062 591.503906 1087.121094 590.847656 C 1086.324219 590.195312 1085.5625 589.503906 1084.832031 588.777344 C 1084.105469 588.046875 1083.414062 587.285156 1082.761719 586.488281 C 1082.109375 585.695312 1081.496094 584.867188 1080.925781 584.011719 C 1080.351562 583.15625 1079.824219 582.273438 1079.335938 581.363281 C 1078.851562 580.457031 1078.414062 579.527344 1078.019531 578.574219 C 1077.625 577.625 1077.277344 576.65625 1076.980469 575.667969 C 1076.679688 574.683594 1076.429688 573.6875 1076.230469 572.675781 C 1076.027344 571.667969 1075.878906 570.648438 1075.777344 569.625 C 1075.675781 568.597656 1075.625 567.570312 1075.625 566.542969 C 1075.625 565.511719 1075.675781 564.484375 1075.777344 563.460938 C 1075.878906 562.433594 1076.027344 561.417969 1076.230469 560.40625 C 1076.429688 559.398438 1076.679688 558.398438 1076.980469 557.414062 C 1077.277344 556.429688 1077.625 555.460938 1078.019531 554.507812 C 1078.410156 553.558594 1078.851562 552.628906 1079.335938 551.71875 C 1079.824219 550.808594 1080.351562 549.929688 1080.921875 549.070312 C 1081.496094 548.214844 1082.109375 547.390625 1082.761719 546.59375 C 1083.414062 545.796875 1084.105469 545.035156 1084.832031 544.308594 C 1085.5625 543.578125 1086.324219 542.886719 1087.121094 542.234375 C 1087.914062 541.582031 1088.742188 540.96875 1089.597656 540.394531 C 1090.453125 539.824219 1091.335938 539.296875 1092.242188 538.808594 C 1093.152344 538.324219 1094.082031 537.882812 1095.03125 537.488281 C 1095.984375 537.097656 1096.953125 536.75 1097.9375 536.449219 C 1098.921875 536.152344 1099.921875 535.902344 1100.929688 535.699219 C 1101.941406 535.5 1102.957031 535.347656 1103.980469 535.246094 C 1105.007812 535.148438 1106.035156 535.097656 1107.0625 535.097656 C 1108.09375 535.097656 1109.121094 535.148438 1110.144531 535.246094 C 1111.167969 535.347656 1112.1875 535.5 1113.195312 535.699219 C 1114.207031 535.902344 1115.203125 536.152344 1116.191406 536.449219 C 1117.175781 536.75 1118.144531 537.097656 1119.09375 537.488281 C 1120.046875 537.882812 1120.976562 538.324219 1121.882812 538.808594 C 1122.792969 539.292969 1123.675781 539.824219 1124.53125 540.394531 C 1125.386719 540.96875 1126.210938 541.582031 1127.007812 542.234375 C 1127.804688 542.886719 1128.566406 543.578125 1129.292969 544.304688 Z M 1129.292969 544.304688 " fill-opacity="1" fill-rule="nonzero"/><path fill="#f7a334" d="M 356.609375 100.984375 C 357.003906 101.9375 357.351562 102.90625 357.648438 103.890625 C 357.949219 104.875 358.199219 105.875 358.398438 106.882812 C 358.601562 107.894531 358.75 108.910156 358.851562 109.9375 C 358.953125 110.960938 359.003906 111.988281 359.003906 113.019531 C 359.003906 114.046875 358.953125 115.074219 358.851562 116.101562 C 358.75 117.125 358.601562 118.140625 358.398438 119.152344 C 358.199219 120.164062 357.949219 121.160156 357.648438 122.144531 C 357.351562 123.132812 357.003906 124.101562 356.609375 125.050781 C 356.21875 126.003906 355.777344 126.933594 355.292969 127.839844 C 354.804688 128.75 354.277344 129.632812 353.707031 130.488281 C 353.132812 131.34375 352.519531 132.171875 351.867188 132.964844 C 351.214844 133.761719 350.523438 134.523438 349.796875 135.253906 C 349.066406 135.980469 348.304688 136.671875 347.511719 137.324219 C 346.714844 137.976562 345.886719 138.589844 345.03125 139.164062 C 344.175781 139.734375 343.292969 140.265625 342.386719 140.75 C 341.476562 141.234375 340.546875 141.675781 339.597656 142.070312 C 338.644531 142.464844 337.675781 142.808594 336.691406 143.109375 C 335.707031 143.40625 334.707031 143.65625 333.699219 143.859375 C 332.6875 144.058594 331.671875 144.210938 330.648438 144.3125 C 329.621094 144.414062 328.59375 144.460938 327.566406 144.460938 C 326.535156 144.460938 325.507812 144.414062 324.484375 144.3125 C 323.457031 144.210938 322.441406 144.058594 321.433594 143.859375 C 320.421875 143.65625 319.425781 143.40625 318.4375 143.109375 C 317.453125 142.808594 316.484375 142.464844 315.535156 142.070312 C 314.582031 141.675781 313.652344 141.234375 312.746094 140.75 C 311.835938 140.265625 310.953125 139.734375 310.097656 139.164062 C 309.242188 138.589844 308.417969 137.976562 307.621094 137.324219 C 306.824219 136.671875 306.0625 135.980469 305.335938 135.253906 C 304.605469 134.523438 303.914062 133.761719 303.261719 132.964844 C 302.609375 132.171875 301.996094 131.34375 301.425781 130.488281 C 300.851562 129.632812 300.324219 128.75 299.839844 127.839844 C 299.351562 126.933594 298.914062 126.003906 298.519531 125.050781 C 298.125 124.101562 297.777344 123.132812 297.480469 122.144531 C 297.179688 121.160156 296.929688 120.164062 296.730469 119.152344 C 296.53125 118.140625 296.378906 117.125 296.277344 116.101562 C 296.175781 115.074219 296.125 114.046875 296.125 113.019531 C 296.125 111.988281 296.175781 110.960938 296.277344 109.9375 C 296.378906 108.910156 296.53125 107.894531 296.730469 106.882812 C 296.929688 105.875 297.179688 104.875 297.480469 103.890625 C 297.777344 102.90625 298.125 101.9375 298.519531 100.984375 C 298.914062 100.03125 299.351562 99.101562 299.839844 98.195312 C 300.324219 97.285156 300.851562 96.40625 301.425781 95.546875 C 301.996094 94.691406 302.609375 93.867188 303.261719 93.070312 C 303.914062 92.273438 304.605469 91.511719 305.335938 90.78125 C 306.0625 90.054688 306.824219 89.363281 307.621094 88.710938 C 308.417969 88.058594 309.242188 87.445312 310.097656 86.871094 C 310.953125 86.300781 311.835938 85.769531 312.746094 85.285156 C 313.652344 84.800781 314.582031 84.359375 315.535156 83.964844 C 316.484375 83.574219 317.453125 83.226562 318.4375 82.925781 C 319.425781 82.628906 320.421875 82.378906 321.433594 82.175781 C 322.441406 81.976562 323.457031 81.824219 324.484375 81.722656 C 325.507812 81.625 326.535156 81.574219 327.566406 81.574219 C 328.59375 81.574219 329.621094 81.625 330.648438 81.722656 C 331.671875 81.824219 332.6875 81.976562 333.699219 82.175781 C 334.707031 82.378906 335.707031 82.628906 336.691406 82.925781 C 337.675781 83.226562 338.644531 83.574219 339.597656 83.964844 C 340.546875 84.359375 341.476562 84.800781 342.386719 85.285156 C 343.292969 85.769531 344.175781 86.300781 345.03125 86.871094 C 345.886719 87.445312 346.714844 88.058594 347.511719 88.710938 C 348.304688 89.363281 349.066406 90.054688 349.796875 90.78125 C 350.523438 91.511719 351.214844 92.273438 351.867188 93.070312 C 352.519531 93.867188 353.132812 94.691406 353.707031 95.546875 C 354.277344 96.40625 354.804688 97.285156 355.292969 98.195312 C 355.777344 99.101562 356.21875 100.03125 356.609375 100.984375 Z M 356.609375 100.984375 " fill-opacity="1" fill-rule="nonzero"/><path fill="#f7a334" d="M 1114.367188 82.492188 C 1115.371094 82.730469 1116.359375 83.015625 1117.332031 83.347656 C 1118.304688 83.683594 1119.261719 84.0625 1120.199219 84.492188 C 1121.136719 84.917969 1122.046875 85.390625 1122.9375 85.910156 C 1123.828125 86.425781 1124.691406 86.984375 1125.527344 87.589844 C 1126.363281 88.191406 1127.167969 88.832031 1127.9375 89.511719 C 1128.710938 90.195312 1129.449219 90.910156 1130.148438 91.664062 C 1130.851562 92.417969 1131.515625 93.207031 1132.140625 94.023438 C 1132.761719 94.84375 1133.347656 95.691406 1133.886719 96.566406 C 1134.429688 97.441406 1134.925781 98.34375 1135.378906 99.269531 C 1135.832031 100.191406 1136.238281 101.136719 1136.597656 102.101562 C 1136.957031 103.066406 1137.269531 104.046875 1137.535156 105.042969 C 1137.796875 106.039062 1138.011719 107.042969 1138.175781 108.0625 C 1138.339844 109.078125 1138.457031 110.101562 1138.519531 111.128906 C 1138.585938 112.15625 1138.597656 113.183594 1138.5625 114.214844 C 1138.523438 115.242188 1138.4375 116.269531 1138.300781 117.289062 C 1138.164062 118.308594 1137.976562 119.320312 1137.742188 120.324219 C 1137.503906 121.324219 1137.21875 122.3125 1136.886719 123.289062 C 1136.550781 124.261719 1136.171875 125.21875 1135.742188 126.15625 C 1135.316406 127.089844 1134.84375 128.003906 1134.324219 128.894531 C 1133.808594 129.785156 1133.25 130.648438 1132.644531 131.484375 C 1132.042969 132.320312 1131.402344 133.125 1130.722656 133.894531 C 1130.039062 134.667969 1129.324219 135.40625 1128.570312 136.105469 C 1127.816406 136.808594 1127.03125 137.472656 1126.210938 138.097656 C 1125.394531 138.722656 1124.546875 139.304688 1123.667969 139.847656 C 1122.792969 140.386719 1121.894531 140.882812 1120.96875 141.335938 C 1120.042969 141.789062 1119.097656 142.195312 1118.132812 142.558594 C 1117.167969 142.917969 1116.191406 143.230469 1115.195312 143.492188 C 1114.199219 143.757812 1113.191406 143.96875 1112.175781 144.136719 C 1111.160156 144.300781 1110.136719 144.414062 1109.109375 144.480469 C 1108.082031 144.542969 1107.054688 144.558594 1106.027344 144.519531 C 1104.996094 144.484375 1103.972656 144.398438 1102.953125 144.261719 C 1101.929688 144.125 1100.921875 143.9375 1099.917969 143.699219 C 1098.914062 143.460938 1097.925781 143.175781 1096.953125 142.84375 C 1095.980469 142.511719 1095.023438 142.128906 1094.085938 141.703125 C 1093.152344 141.273438 1092.238281 140.800781 1091.347656 140.285156 C 1090.457031 139.765625 1089.59375 139.207031 1088.757812 138.605469 C 1087.921875 138.003906 1087.121094 137.359375 1086.347656 136.679688 C 1085.574219 136 1084.839844 135.28125 1084.136719 134.527344 C 1083.433594 133.773438 1082.773438 132.988281 1082.148438 132.167969 C 1081.523438 131.351562 1080.941406 130.503906 1080.398438 129.625 C 1079.855469 128.75 1079.359375 127.851562 1078.90625 126.925781 C 1078.453125 126 1078.046875 125.054688 1077.6875 124.089844 C 1077.328125 123.125 1077.015625 122.144531 1076.753906 121.148438 C 1076.488281 120.152344 1076.273438 119.148438 1076.109375 118.132812 C 1075.945312 117.113281 1075.828125 116.09375 1075.765625 115.066406 C 1075.699219 114.035156 1075.6875 113.007812 1075.722656 111.980469 C 1075.761719 110.949219 1075.847656 109.925781 1075.984375 108.902344 C 1076.121094 107.882812 1076.308594 106.871094 1076.546875 105.871094 C 1076.78125 104.867188 1077.066406 103.878906 1077.402344 102.90625 C 1077.734375 101.929688 1078.117188 100.976562 1078.542969 100.039062 C 1078.96875 99.101562 1079.441406 98.1875 1079.960938 97.296875 C 1080.476562 96.40625 1081.039062 95.542969 1081.640625 94.707031 C 1082.242188 93.875 1082.882812 93.070312 1083.5625 92.296875 C 1084.246094 91.523438 1084.960938 90.789062 1085.714844 90.085938 C 1086.46875 89.382812 1087.253906 88.71875 1088.074219 88.09375 C 1088.894531 87.472656 1089.738281 86.886719 1090.617188 86.347656 C 1091.492188 85.804688 1092.390625 85.308594 1093.316406 84.855469 C 1094.242188 84.402344 1095.1875 83.996094 1096.152344 83.636719 C 1097.117188 83.277344 1098.097656 82.964844 1099.089844 82.699219 C 1100.085938 82.4375 1101.09375 82.222656 1102.109375 82.058594 C 1103.125 81.890625 1104.148438 81.777344 1105.175781 81.714844 C 1106.203125 81.648438 1107.230469 81.632812 1108.261719 81.671875 C 1109.289062 81.707031 1110.3125 81.792969 1111.335938 81.933594 C 1112.355469 82.070312 1113.367188 82.257812 1114.367188 82.492188 Z M 1114.367188 82.492188 " fill-opacity="1" fill-rule="nonzero"/></svg>