<svg xmlns="http://www.w3.org/2000/svg" xmlns:xlink="http://www.w3.org/1999/xlink" width="1920" zoomAndPan="magnify" viewBox="0 0 1440 809.999993" height="1080" preserveAspectRatio="xMidYMid meet" version="1.0"><defs><clipPath id="4e9f7d1115"><path d="M 555 98.792969 L 720 98.792969 L 720 688 L 555 688 Z M 555 98.792969 " clip-rule="nonzero"/></clipPath><clipPath id="238e58b06f"><path d="M 366.1875 687 L 1073 687 L 1073 711.542969 L 366.1875 711.542969 Z M 366.1875 687 " clip-rule="nonzero"/></clipPath></defs><rect x="-144" width="1728" fill="#ffffff" y="-80.999999" height="971.999992" fill-opacity="1"/><rect x="-144" width="1728" fill="#ffffff" y="-80.999999" height="971.999992" fill-opacity="1"/><g clip-path="url(#4e9f7d1115)"><path fill="#4e9a06" d="M 555.019531 98.792969 L 719.8125 98.792969 L 719.8125 687.976562 L 555.019531 687.976562 Z M 555.019531 98.792969 " fill-opacity="1" fill-rule="nonzero"/></g><path fill="#f57900" d="M 719.8125 263.765625 L 884.609375 263.765625 L 884.609375 687.976562 L 719.8125 687.976562 Z M 719.8125 263.765625 " fill-opacity="1" fill-rule="nonzero"/><path fill="#cc0000" d="M 884.609375 475.871094 L 1049.402344 475.871094 L 1049.402344 687.976562 L 884.609375 687.976562 Z M 884.609375 475.871094 " fill-opacity="1" fill-rule="nonzero"/><path fill="#8ae234" d="M 578.5625 122.359375 L 696.273438 122.359375 L 696.273438 687.976562 L 578.5625 687.976562 Z M 578.5625 122.359375 " fill-opacity="1" fill-rule="nonzero"/><path fill="#fcaf3e" d="M 743.355469 287.332031 L 861.066406 287.332031 L 861.066406 687.976562 L 743.355469 687.976562 Z M 743.355469 287.332031 " fill-opacity="1" fill-rule="nonzero"/><path fill="#ef2929" d="M 908.152344 499.4375 L 1025.863281 499.4375 L 1025.863281 687.976562 L 908.152344 687.976562 Z M 908.152344 499.4375 " fill-opacity="1" fill-rule="nonzero"/><path fill="#204a87" d="M 390.222656 358.035156 L 555.019531 358.035156 L 555.019531 687.976562 L 390.222656 687.976562 Z M 390.222656 358.035156 " fill-opacity="1" fill-rule="nonzero"/><path fill="#729fcf" d="M 413.765625 381.601562 L 531.476562 381.601562 L 531.476562 687.976562 L 413.765625 687.976562 Z M 413.765625 381.601562 " fill-opacity="1" fill-rule="nonzero"/><g clip-path="url(#238e58b06f)"><path fill="#555753" d="M 378.453125 687.976562 L 1061.175781 687.976562 C 1067.695312 687.976562 1072.945312 693.230469 1072.945312 699.757812 C 1072.945312 706.289062 1067.695312 711.542969 1061.175781 711.542969 L 378.453125 711.542969 C 371.933594 711.542969 366.683594 706.289062 366.683594 699.757812 C 366.683594 693.230469 371.933594 687.976562 378.453125 687.976562 Z M 378.453125 687.976562 " fill-opacity="1" fill-rule="nonzero"/></g></svg>