<?xml version="1.0" encoding="UTF-8"?>
<svg version="1.1" xmlns="http://www.w3.org/2000/svg" width="601" height="601">
<path d="M0 0 C198.33 0 396.66 0 601 0 C601 198.33 601 396.66 601 601 C402.67 601 204.34 601 0 601 C0 402.67 0 204.34 0 0 Z " fill="#FEFEFE" transform="translate(0,0)"/>
<path d="M0 0 C1.55521173 0.00031721 3.11044535 0.0116478 4.66552734 0.03173828 C5.89316299 0.03598312 5.89316299 0.03598312 7.14559937 0.04031372 C9.76436877 0.05152546 12.38279848 0.07663149 15.00146484 0.10205078 C16.77489741 0.11207931 18.54833533 0.12120538 20.32177734 0.12939453 C24.6734711 0.151468 29.02491034 0.18600434 33.37646484 0.22705078 C34.94822089 3.37056288 34.56047836 6.73948595 34.57958984 10.19189453 C34.58528992 10.98100723 34.59098999 11.77011993 34.59686279 12.58314514 C34.60631409 14.25341449 34.61284729 15.92370249 34.61669922 17.59399414 C34.62641354 20.1510459 34.65743816 22.70729683 34.68896484 25.26416016 C34.69549406 26.88590017 34.70074485 28.50764593 34.70458984 30.12939453 C34.71693665 30.89509262 34.72928345 31.66079071 34.74200439 32.44969177 C34.73000953 35.30368552 34.67734396 37.64658487 33.34838867 40.21044922 C30.18938312 41.83903646 26.96757791 41.63329648 23.49755859 41.59033203 C22.34574852 41.59107979 22.34574852 41.59107979 21.17066956 41.59184265 C19.54921884 41.58950411 17.92776436 41.57978847 16.30639648 41.56323242 C13.81965841 41.53960488 11.33399001 41.54267701 8.84716797 41.54931641 C7.27229176 41.54374072 5.69742008 41.53663153 4.12255859 41.52783203 C3.37671005 41.52874344 2.63086151 41.52965485 1.8624115 41.53059387 C-3.39249225 41.45809369 -3.39249225 41.45809369 -5.62353516 39.22705078 C-5.82335541 36.45369651 -5.90332716 33.78235435 -5.88916016 31.00830078 C-5.89107361 30.19462036 -5.89298706 29.38093994 -5.8949585 28.54260254 C-5.89632043 26.82104178 -5.89262343 25.09947076 -5.88427734 23.37792969 C-5.87357774 20.73755908 -5.88417216 18.09786889 -5.89697266 15.45751953 C-5.89565106 13.78694511 -5.89308867 12.11637111 -5.88916016 10.44580078 C-5.89320862 9.65306763 -5.89725708 8.86033447 -5.90142822 8.0435791 C-5.83549705 0.36565236 -5.83549705 0.36565236 0 0 Z " fill="#399B4A" transform="translate(238.62353515625,205.77294921875)"/>
<path d="M0 0 C1.22264305 -0.0049926 1.22264305 -0.0049926 2.46998596 -0.01008606 C4.19751418 -0.01515867 5.92505223 -0.01749428 7.65258789 -0.01733398 C10.3017587 -0.01951917 12.95051241 -0.03766746 15.59960938 -0.05664062 C17.27473815 -0.05957469 18.94986892 -0.0615594 20.625 -0.0625 C21.42087021 -0.06968552 22.21674042 -0.07687103 23.03672791 -0.08427429 C28.65008398 -0.06085352 28.65008398 -0.06085352 30.87890625 2.16796875 C31.07864358 4.86932198 31.15872198 7.46594086 31.14453125 10.16796875 C31.14740143 11.35519531 31.14740143 11.35519531 31.15032959 12.56640625 C31.15169143 14.24088865 31.14799507 15.9153816 31.13964844 17.58984375 C31.12894865 20.15779256 31.1395435 22.72504178 31.15234375 25.29296875 C31.15102215 26.9179703 31.14845976 28.54297141 31.14453125 30.16796875 C31.14857971 30.93882812 31.15262817 31.7096875 31.15679932 32.50390625 C31.10882757 37.93804743 31.10882757 37.93804743 28.87890625 40.16796875 C26.09380401 40.35550186 23.40990979 40.42358107 20.625 40.3984375 C19.80894791 40.39797928 18.99289581 40.39752106 18.15211487 40.39704895 C16.4263463 40.39402619 14.70058047 40.38613917 12.97485352 40.3737793 C10.32363292 40.35551853 7.67276129 40.35326961 5.02148438 40.35351562 C3.34765321 40.34860069 1.67382443 40.34277248 0 40.3359375 C-0.79789444 40.33482468 -1.59578888 40.33371185 -2.41786194 40.33256531 C-8.00504474 40.28401776 -8.00504474 40.28401776 -9.12109375 39.16796875 C-9.2221263 36.36803278 -9.26079463 33.59328231 -9.25390625 30.79296875 C-9.25486298 29.95330566 -9.2558197 29.11364258 -9.25680542 28.24853516 C-9.25748723 26.4697258 -9.25563292 24.69091398 -9.25146484 22.91210938 C-9.24611658 20.17963099 -9.2514098 17.44731699 -9.2578125 14.71484375 C-9.25715172 12.99088505 -9.25587056 11.26692646 -9.25390625 9.54296875 C-9.25593048 8.72006348 -9.25795471 7.8971582 -9.26004028 7.04931641 C-9.22679113 -0.94067822 -7.26257361 0.01012911 0 0 Z " fill="#369A47" transform="translate(242.12109375,109.83203125)"/>
<path d="M0 0 C0.79148437 -0.0033284 1.58296875 -0.0066568 2.3984375 -0.01008606 C4.07291075 -0.01515165 5.7473941 -0.0174945 7.421875 -0.01733398 C9.98975135 -0.01952252 12.55719959 -0.03768734 15.125 -0.05664062 C16.74999853 -0.05957416 18.3749991 -0.06155922 20 -0.0625 C21.15628906 -0.07327827 21.15628906 -0.07327827 22.3359375 -0.08427429 C27.7711728 -0.06085845 27.7711728 -0.06085845 30 2.16796875 C30.19973733 4.86932198 30.27981573 7.46594086 30.265625 10.16796875 C30.26849518 11.35519531 30.26849518 11.35519531 30.27142334 12.56640625 C30.27278518 14.24088865 30.26908882 15.9153816 30.26074219 17.58984375 C30.2500424 20.15779256 30.26063725 22.72504178 30.2734375 25.29296875 C30.2721159 26.9179703 30.26955351 28.54297141 30.265625 30.16796875 C30.26967346 30.93882812 30.27372192 31.7096875 30.27789307 32.50390625 C30.22992132 37.93804743 30.22992132 37.93804743 28 40.16796875 C25.21489776 40.35550186 22.53100354 40.42358107 19.74609375 40.3984375 C18.93004166 40.39797928 18.11398956 40.39752106 17.27320862 40.39704895 C15.54744005 40.39402619 13.82167422 40.38613917 12.09594727 40.3737793 C9.44472667 40.35551853 6.79385504 40.35326961 4.14257812 40.35351562 C2.46874696 40.34860069 0.79491818 40.34277248 -0.87890625 40.3359375 C-1.67680069 40.33482468 -2.47469513 40.33371185 -3.29676819 40.33256531 C-8.88395099 40.28401776 -8.88395099 40.28401776 -10 39.16796875 C-10.08861992 36.35633495 -10.11522355 33.5693862 -10.09765625 30.7578125 C-10.0962413 29.91577774 -10.09482635 29.07374298 -10.09336853 28.20619202 C-10.08775263 25.5059154 -10.07519748 22.80572047 -10.0625 20.10546875 C-10.05748705 18.27929807 -10.05292379 16.45312609 -10.04882812 14.62695312 C-10.03777804 10.14059333 -10.02050279 5.65429491 -10 1.16796875 C-6.84665706 -0.40870272 -3.46237759 0.00499834 0 0 Z " fill="#369947" transform="translate(291,109.83203125)"/>
<path d="M0 0 C1.15628906 0.00607269 1.15628906 0.00607269 2.3359375 0.01226807 C3.12742187 0.01035461 3.91890625 0.00844116 4.734375 0.00646973 C6.4088574 0.00510789 8.08335035 0.00880425 9.7578125 0.01715088 C12.32576131 0.02785067 14.89301053 0.01725582 17.4609375 0.00445557 C19.08593905 0.00577716 20.71094016 0.00833956 22.3359375 0.01226807 C23.10679687 0.0082196 23.87765625 0.00417114 24.671875 0 C30.10601618 0.04797174 30.10601618 0.04797174 32.3359375 2.27789307 C32.53567483 4.97924629 32.61575323 7.57586518 32.6015625 10.27789307 C32.60443268 11.46511963 32.60443268 11.46511963 32.60736084 12.67633057 C32.60872268 14.35081296 32.60502632 16.02530592 32.59667969 17.69976807 C32.5859799 20.26771688 32.59657475 22.8349661 32.609375 25.40289307 C32.6080534 27.02789462 32.60549101 28.65289573 32.6015625 30.27789307 C32.60561096 31.04875244 32.60965942 31.81961182 32.61383057 32.61383057 C32.56585882 38.04797174 32.56585882 38.04797174 30.3359375 40.27789307 C27.55083526 40.46542617 24.86694104 40.53350538 22.08203125 40.50836182 C21.26597916 40.50790359 20.44992706 40.50744537 19.60914612 40.50697327 C17.88337755 40.50395051 16.15761172 40.49606348 14.43188477 40.48370361 C11.78066417 40.46544284 9.12979254 40.46319393 6.47851562 40.46343994 C4.80468446 40.458525 3.13085568 40.45269679 1.45703125 40.44586182 C0.65913681 40.44474899 -0.13875763 40.44363617 -0.96083069 40.44248962 C-6.54801349 40.39394208 -6.54801349 40.39394208 -7.6640625 39.27789307 C-7.77747224 36.56234914 -7.8282427 33.87319263 -7.83203125 31.15679932 C-7.83535965 30.34170395 -7.83868805 29.52660858 -7.84211731 28.68681335 C-7.84718992 26.95928514 -7.84952553 25.23174708 -7.84936523 23.50421143 C-7.85155042 20.85504062 -7.86969871 18.20628691 -7.88867188 15.55718994 C-7.89160594 13.88206116 -7.89359065 12.2069304 -7.89453125 10.53179932 C-7.90171677 9.73592911 -7.90890228 8.9400589 -7.91630554 8.12007141 C-7.8879927 1.33420989 -6.82211073 0.06022452 0 0 Z " fill="#369A47" transform="translate(288.6640625,205.72210693359375)"/>
<path d="M0 0 C1.15628906 0.00607269 1.15628906 0.00607269 2.3359375 0.01226807 C3.12742187 0.01035461 3.91890625 0.00844116 4.734375 0.00646973 C6.4088574 0.00510789 8.08335035 0.00880425 9.7578125 0.01715088 C12.32576131 0.02785067 14.89301053 0.01725582 17.4609375 0.00445557 C19.08593905 0.00577716 20.71094016 0.00833956 22.3359375 0.01226807 C23.10679687 0.0082196 23.87765625 0.00417114 24.671875 0 C30.10601618 0.04797174 30.10601618 0.04797174 32.3359375 2.27789307 C32.53567483 4.97924629 32.61575323 7.57586518 32.6015625 10.27789307 C32.60443268 11.46511963 32.60443268 11.46511963 32.60736084 12.67633057 C32.60872268 14.35081296 32.60502632 16.02530592 32.59667969 17.69976807 C32.5859799 20.26771688 32.59657475 22.8349661 32.609375 25.40289307 C32.6080534 27.02789462 32.60549101 28.65289573 32.6015625 30.27789307 C32.60561096 31.04875244 32.60965942 31.81961182 32.61383057 32.61383057 C32.56585882 38.04797174 32.56585882 38.04797174 30.3359375 40.27789307 C27.55083526 40.46542617 24.86694104 40.53350538 22.08203125 40.50836182 C21.26597916 40.50790359 20.44992706 40.50744537 19.60914612 40.50697327 C17.88337755 40.50395051 16.15761172 40.49606348 14.43188477 40.48370361 C11.78066417 40.46544284 9.12979254 40.46319393 6.47851562 40.46343994 C4.80468446 40.458525 3.13085568 40.45269679 1.45703125 40.44586182 C0.65913681 40.44474899 -0.13875763 40.44363617 -0.96083069 40.44248962 C-6.54801349 40.39394208 -6.54801349 40.39394208 -7.6640625 39.27789307 C-7.77747224 36.56234914 -7.8282427 33.87319263 -7.83203125 31.15679932 C-7.83535965 30.34170395 -7.83868805 29.52660858 -7.84211731 28.68681335 C-7.84718992 26.95928514 -7.84952553 25.23174708 -7.84936523 23.50421143 C-7.85155042 20.85504062 -7.86969871 18.20628691 -7.88867188 15.55718994 C-7.89160594 13.88206116 -7.89359065 12.2069304 -7.89453125 10.53179932 C-7.90171677 9.73592911 -7.90890228 8.9400589 -7.91630554 8.12007141 C-7.8879927 1.33420989 -6.82211073 0.06022452 0 0 Z " fill="#369A47" transform="translate(288.6640625,157.72210693359375)"/>
<path d="M0 0 C1.15628906 0.00607269 1.15628906 0.00607269 2.3359375 0.01226807 C3.12742188 0.01035461 3.91890625 0.00844116 4.734375 0.00646973 C6.4088574 0.00510789 8.08335035 0.00880425 9.7578125 0.01715088 C12.32576131 0.02785067 14.89301053 0.01725582 17.4609375 0.00445557 C19.08593905 0.00577716 20.71094016 0.00833956 22.3359375 0.01226807 C23.10679687 0.0082196 23.87765625 0.00417114 24.671875 0 C30.10601618 0.04797174 30.10601618 0.04797174 32.3359375 2.27789307 C32.53567483 4.97924629 32.61575323 7.57586518 32.6015625 10.27789307 C32.60443268 11.46511963 32.60443268 11.46511963 32.60736084 12.67633057 C32.60872268 14.35081296 32.60502632 16.02530592 32.59667969 17.69976807 C32.5859799 20.26771688 32.59657475 22.8349661 32.609375 25.40289307 C32.6080534 27.02789462 32.60549101 28.65289573 32.6015625 30.27789307 C32.60561096 31.04875244 32.60965942 31.81961182 32.61383057 32.61383057 C32.56585882 38.04797174 32.56585882 38.04797174 30.3359375 40.27789307 C27.55083526 40.46542617 24.86694104 40.53350538 22.08203125 40.50836182 C21.26597916 40.50790359 20.44992706 40.50744537 19.60914612 40.50697327 C17.88337755 40.50395051 16.15761172 40.49606348 14.43188477 40.48370361 C11.78066417 40.46544284 9.12979254 40.46319393 6.47851562 40.46343994 C4.80468446 40.458525 3.13085568 40.45269679 1.45703125 40.44586182 C0.65913681 40.44474899 -0.13875763 40.44363617 -0.96083069 40.44248962 C-6.54801349 40.39394208 -6.54801349 40.39394208 -7.6640625 39.27789307 C-7.77747224 36.56234914 -7.8282427 33.87319263 -7.83203125 31.15679932 C-7.83535965 30.34170395 -7.83868805 29.52660858 -7.84211731 28.68681335 C-7.84718992 26.95928514 -7.84952553 25.23174708 -7.84936523 23.50421143 C-7.85155042 20.85504062 -7.86969871 18.20628691 -7.88867188 15.55718994 C-7.89160594 13.88206116 -7.89359065 12.2069304 -7.89453125 10.53179932 C-7.90171677 9.73592911 -7.90890228 8.9400589 -7.91630554 8.12007141 C-7.8879927 1.33420989 -6.82211073 0.06022452 0 0 Z " fill="#369A48" transform="translate(240.6640625,157.72210693359375)"/>
<path d="M0 0 C1.15628906 0.00607269 1.15628906 0.00607269 2.3359375 0.01226807 C3.12742187 0.01035461 3.91890625 0.00844116 4.734375 0.00646973 C6.4088574 0.00510789 8.08335035 0.00880425 9.7578125 0.01715088 C12.32576131 0.02785067 14.89301053 0.01725582 17.4609375 0.00445557 C19.08593905 0.00577716 20.71094016 0.00833956 22.3359375 0.01226807 C23.10679687 0.0082196 23.87765625 0.00417114 24.671875 0 C30.10601618 0.04797174 30.10601618 0.04797174 32.3359375 2.27789307 C32.53567483 4.97924629 32.61575323 7.57586518 32.6015625 10.27789307 C32.60443268 11.46511963 32.60443268 11.46511963 32.60736084 12.67633057 C32.60872268 14.35081296 32.60502632 16.02530592 32.59667969 17.69976807 C32.5859799 20.26771688 32.59657475 22.8349661 32.609375 25.40289307 C32.6080534 27.02789462 32.60549101 28.65289573 32.6015625 30.27789307 C32.60561096 31.04875244 32.60965942 31.81961182 32.61383057 32.61383057 C32.56585882 38.04797174 32.56585882 38.04797174 30.3359375 40.27789307 C27.55083526 40.46542617 24.86694104 40.53350538 22.08203125 40.50836182 C21.26597916 40.50790359 20.44992706 40.50744537 19.60914612 40.50697327 C17.88337755 40.50395051 16.15761172 40.49606348 14.43188477 40.48370361 C11.78066417 40.46544284 9.12979254 40.46319393 6.47851562 40.46343994 C4.80468446 40.458525 3.13085568 40.45269679 1.45703125 40.44586182 C0.65913681 40.44474899 -0.13875763 40.44363617 -0.96083069 40.44248962 C-6.54801349 40.39394208 -6.54801349 40.39394208 -7.6640625 39.27789307 C-7.77747224 36.56234914 -7.8282427 33.87319263 -7.83203125 31.15679932 C-7.83535965 30.34170395 -7.83868805 29.52660858 -7.84211731 28.68681335 C-7.84718992 26.95928514 -7.84952553 25.23174708 -7.84936523 23.50421143 C-7.85155042 20.85504062 -7.86969871 18.20628691 -7.88867188 15.55718994 C-7.89160594 13.88206116 -7.89359065 12.2069304 -7.89453125 10.53179932 C-7.90171677 9.73592911 -7.90890228 8.9400589 -7.91630554 8.12007141 C-7.8879927 1.33420989 -6.82211073 0.06022452 0 0 Z " fill="#369947" transform="translate(288.6640625,61.72210693359375)"/>
<path d="M0 0 C1.15628906 0.00607269 1.15628906 0.00607269 2.3359375 0.01226807 C3.12742187 0.01035461 3.91890625 0.00844116 4.734375 0.00646973 C6.4088574 0.00510789 8.08335035 0.00880425 9.7578125 0.01715088 C12.32576131 0.02785067 14.89301053 0.01725582 17.4609375 0.00445557 C19.08593905 0.00577716 20.71094016 0.00833956 22.3359375 0.01226807 C23.10679687 0.0082196 23.87765625 0.00417114 24.671875 0 C30.10601618 0.04797174 30.10601618 0.04797174 32.3359375 2.27789307 C32.53567483 4.97924629 32.61575323 7.57586518 32.6015625 10.27789307 C32.60443268 11.46511963 32.60443268 11.46511963 32.60736084 12.67633057 C32.60872268 14.35081296 32.60502632 16.02530592 32.59667969 17.69976807 C32.5859799 20.26771688 32.59657475 22.8349661 32.609375 25.40289307 C32.6080534 27.02789462 32.60549101 28.65289573 32.6015625 30.27789307 C32.60561096 31.04875244 32.60965942 31.81961182 32.61383057 32.61383057 C32.56585882 38.04797174 32.56585882 38.04797174 30.3359375 40.27789307 C27.63458427 40.4776304 25.03796539 40.5577088 22.3359375 40.54351807 C21.54445313 40.54543152 20.75296875 40.54734497 19.9375 40.54931641 C18.2630176 40.55067824 16.58852465 40.54698188 14.9140625 40.53863525 C12.34611369 40.52793547 9.77886447 40.53853032 7.2109375 40.55133057 C5.58593595 40.55000897 3.96093484 40.54744658 2.3359375 40.54351807 C1.17964844 40.54959076 1.17964844 40.54959076 0 40.55578613 C-5.43414118 40.50781439 -5.43414118 40.50781439 -7.6640625 38.27789307 C-7.86379983 35.57653984 -7.94387823 32.97992095 -7.9296875 30.27789307 C-7.93160095 29.48640869 -7.9335144 28.69492432 -7.93548584 27.87945557 C-7.93684768 26.20497317 -7.93315132 24.53048022 -7.92480469 22.85601807 C-7.9141049 20.28806925 -7.92469975 17.72082003 -7.9375 15.15289307 C-7.9361784 13.52789152 -7.93361601 11.9028904 -7.9296875 10.27789307 C-7.93373596 9.50703369 -7.93778442 8.73617432 -7.94195557 7.94195557 C-7.88279826 1.24073741 -6.70121815 0.0591573 0 0 Z " fill="#369947" transform="translate(336.6640625,157.72210693359375)"/>
<path d="M0 0 C1.15628906 0.00607269 1.15628906 0.00607269 2.3359375 0.01226807 C3.12742187 0.01035461 3.91890625 0.00844116 4.734375 0.00646973 C6.4088574 0.00510789 8.08335035 0.00880425 9.7578125 0.01715088 C12.32576131 0.02785067 14.89301053 0.01725582 17.4609375 0.00445557 C19.08593905 0.00577716 20.71094016 0.00833956 22.3359375 0.01226807 C23.10679687 0.0082196 23.87765625 0.00417114 24.671875 0 C30.10601618 0.04797174 30.10601618 0.04797174 32.3359375 2.27789307 C32.53567483 4.97924629 32.61575323 7.57586518 32.6015625 10.27789307 C32.60443268 11.46511963 32.60443268 11.46511963 32.60736084 12.67633057 C32.60872268 14.35081296 32.60502632 16.02530592 32.59667969 17.69976807 C32.5859799 20.26771688 32.59657475 22.8349661 32.609375 25.40289307 C32.6080534 27.02789462 32.60549101 28.65289573 32.6015625 30.27789307 C32.60561096 31.04875244 32.60965942 31.81961182 32.61383057 32.61383057 C32.56585882 38.04797174 32.56585882 38.04797174 30.3359375 40.27789307 C27.63458427 40.4776304 25.03796539 40.5577088 22.3359375 40.54351807 C21.54445313 40.54543152 20.75296875 40.54734497 19.9375 40.54931641 C18.2630176 40.55067824 16.58852465 40.54698188 14.9140625 40.53863525 C12.34611369 40.52793547 9.77886447 40.53853032 7.2109375 40.55133057 C5.58593595 40.55000897 3.96093484 40.54744658 2.3359375 40.54351807 C1.17964844 40.54959076 1.17964844 40.54959076 0 40.55578613 C-5.43414118 40.50781439 -5.43414118 40.50781439 -7.6640625 38.27789307 C-7.86379983 35.57653984 -7.94387823 32.97992095 -7.9296875 30.27789307 C-7.93160095 29.48640869 -7.9335144 28.69492432 -7.93548584 27.87945557 C-7.93684768 26.20497317 -7.93315132 24.53048022 -7.92480469 22.85601807 C-7.9141049 20.28806925 -7.92469975 17.72082003 -7.9375 15.15289307 C-7.9361784 13.52789152 -7.93361601 11.9028904 -7.9296875 10.27789307 C-7.93373596 9.50703369 -7.93778442 8.73617432 -7.94195557 7.94195557 C-7.88279826 1.24073741 -6.70121815 0.0591573 0 0 Z " fill="#359947" transform="translate(336.6640625,61.72210693359375)"/>
<path d="M0 0 C5.27811704 3.0517508 9.06296684 7.71272782 12.1875 12.875 C13.64708584 19.68640058 13.45997483 25.64625877 9.9453125 31.75390625 C6.66189682 36.55026837 2.32599252 40.63805197 -3.25 42.5 C-9.87396894 43.50129763 -15.55760799 43.49372844 -21.3125 39.8125 C-25.68662255 36.40773428 -29.11940397 32.66017772 -31.25 27.5 C-32.1135639 19.90867083 -32.08517516 12.70655525 -27.25 6.5 C-19.97442689 -1.20659047 -10.15583169 -4.47410909 0 0 Z " fill="#C8242B" transform="translate(262.25,61.5)"/>
<path d="M0 0 C5.62560727 3.51600455 8.24967992 7.58906787 10 13.875 C10.93485844 20.93194023 11.25681397 27.1620441 6.875 33.0625 C1.85254066 38.42377604 -2.04103687 40.02858008 -9.375 40.375 C-15.4651574 40.20833663 -19.63279983 39.23146995 -24 34.875 C-28.86079581 29.25254103 -28.54145552 22.48786857 -28.30859375 15.375 C-27.76534395 9.21358459 -26.26503976 5.68597522 -21.625 1.4375 C-15.43495044 -2.84175792 -6.9308421 -2.50238281 0 0 Z " fill="#2E241E" transform="translate(436,275.125)"/>
<path d="M0 0 C22.65661253 0 22.65661253 0 28.828125 5.68359375 C33.62845313 10.89890352 34.37651832 15.34705818 34.2734375 22.3359375 C33.74772657 27.45786398 32.08034091 31.93477052 28.38671875 35.6015625 C19.51411265 42.32979152 11.55929246 41 0 41 C0 27.47 0 13.94 0 0 Z " fill="#322923" transform="translate(245,322)"/>
<path d="M0 0 C108.57 0 217.14 0 329 0 C329 0.99 329 1.98 329 3 C220.76 3 112.52 3 1 3 C0.67 2.01 0.34 1.02 0 0 Z " fill="#64AD72" transform="translate(136,428)"/>
<path d="M0 0 C11 0 11 0 13.50219727 2.15551758 C14.01838623 3.14189209 14.5345752 4.1282666 15.06640625 5.14453125 C15.65357422 6.21380859 16.24074219 7.28308594 16.84570312 8.38476562 C17.69551758 10.08149414 17.69551758 10.08149414 18.5625 11.8125 C19.16384766 12.93205078 19.76519531 14.05160156 20.38476562 15.20507812 C21.49680274 17.27847319 22.591305 19.36143638 23.66235352 21.45629883 C25.01399272 24.13332001 25.01399272 24.13332001 27 27 C27.33 18.09 27.66 9.18 28 0 C30.64 0 33.28 0 36 0 C36 13.53 36 27.06 36 41 C25 41 25 41 22.45703125 38.6484375 C21.91433594 37.56820312 21.37164062 36.48796875 20.8125 35.375 C20.50699219 34.80048096 20.20148438 34.22596191 19.88671875 33.6340332 C19.23723257 32.41080122 18.60426444 31.1786772 17.98681641 29.93896484 C16.65160079 27.31544124 15.17623806 24.78288368 13.69213867 22.24145508 C12.10527427 19.50742063 10.55639915 16.75149136 9 14 C8.67 22.91 8.34 31.82 8 41 C5.36 41 2.72 41 0 41 C0 27.47 0 13.94 0 0 Z " fill="#342A24" transform="translate(174,274)"/>
<path d="M0 0 C19.61538462 0 19.61538462 0 26.375 4.625 C28.86713882 8.26735674 28.6430303 11.72078645 28 16 C26.47751335 19.33497076 24.58494669 21.46573854 22 24 C22.721875 25.07121094 23.44375 26.14242188 24.1875 27.24609375 C25.1251205 28.6431483 26.06261397 30.04028812 27 31.4375 C27.47695313 32.14455078 27.95390625 32.85160156 28.4453125 33.58007812 C28.89648438 34.25361328 29.34765625 34.92714844 29.8125 35.62109375 C30.23144531 36.2442749 30.65039062 36.86745605 31.08203125 37.50952148 C32 39 32 39 32 40 C28.39699031 40.86383634 25.56627257 41.10625169 22 40 C18.68675727 36.17336343 14 30.2483596 14 25 C12.35 25 10.7 25 9 25 C9 30.28 9 35.56 9 41 C6.03 41 3.06 41 0 41 C0 27.47 0 13.94 0 0 Z " fill="#342B25" transform="translate(318,322)"/>
<path d="M0 0 C1.37478516 0.01740234 1.37478516 0.01740234 2.77734375 0.03515625 C3.69644531 0.04417969 4.61554688 0.05320312 5.5625 0.0625 C6.27277344 0.07410156 6.98304688 0.08570313 7.71484375 0.09765625 C10.96065002 6.93456733 13.38985744 13.90367686 15.71484375 21.09765625 C16.15580848 22.41855211 16.59859468 23.73884095 17.04296875 25.05859375 C17.26863525 25.72938965 17.49430176 26.40018555 17.72680664 27.09130859 C17.94973389 27.75340332 18.17266113 28.41549805 18.40234375 29.09765625 C19.63537122 32.76238185 20.77670316 36.34509389 21.71484375 40.09765625 C18.74484375 40.09765625 15.77484375 40.09765625 12.71484375 40.09765625 C11.21663316 36.72668242 10.71484375 34.89323506 10.71484375 31.09765625 C5.43484375 31.09765625 0.15484375 31.09765625 -5.28515625 31.09765625 C-5.94515625 34.06765625 -6.60515625 37.03765625 -7.28515625 40.09765625 C-10.25515625 40.09765625 -13.22515625 40.09765625 -16.28515625 40.09765625 C-14.91133863 33.11408334 -12.79717089 26.74530476 -10.28515625 20.09765625 C-9.68961116 18.46810284 -9.09602086 16.83783429 -8.50390625 15.20703125 C-7.86850034 13.46223567 -7.23308361 11.71744402 -6.59765625 9.97265625 C-6.1332312 8.69092529 -6.1332312 8.69092529 -5.65942383 7.38330078 C-5.36704834 6.58520996 -5.07467285 5.78711914 -4.7734375 4.96484375 C-4.37958862 3.88372314 -4.37958862 3.88372314 -3.9777832 2.78076172 C-2.94646165 0.27461762 -2.7949966 0.1194443 0 0 Z " fill="#2E241E" transform="translate(367.28515625,321.90234375)"/>
<path d="M0 0 C2.97 0 5.94 0 9 0 C9.01458252 0.89307861 9.02916504 1.78615723 9.04418945 2.70629883 C9.10527077 6.02217278 9.17942478 9.33721899 9.26245117 12.65258789 C9.29569001 14.08704628 9.32372535 15.52163513 9.34643555 16.95629883 C9.38000271 19.01960807 9.43231413 21.08172303 9.48828125 23.14453125 C9.51446533 24.38565674 9.54064941 25.62678223 9.56762695 26.90551758 C9.75828622 29.95341828 9.75828622 29.95341828 11.31323242 31.90893555 C14.14151845 33.73837689 16.74128389 33.2909568 20 33 C20.99 32.34 21.98 31.68 23 31 C23.51254128 27.7998894 23.51254128 27.7998894 23.51171875 24.0234375 C23.52966995 23.33819 23.54762115 22.6529425 23.56611633 21.94692993 C23.62033708 19.75634941 23.65415053 17.5659881 23.6875 15.375 C23.72066294 13.89059441 23.75515165 12.40621779 23.79101562 10.921875 C23.87606815 7.28146088 23.94282356 3.64097056 24 0 C26.97 0 29.94 0 33 0 C33.09935088 4.30495015 33.17169268 8.60928183 33.21972656 12.91503906 C33.23976332 14.37772252 33.26700104 15.84032666 33.30175781 17.30273438 C33.35063225 19.4129601 33.37304659 21.52212136 33.390625 23.6328125 C33.41157227 24.90012207 33.43251953 26.16743164 33.45410156 27.47314453 C32.74432129 32.98577129 30.28222839 35.98490253 26 39.375 C20.9797328 41.95561251 15.47743902 41.74657722 10 41 C5.02849744 38.69180238 2.66624011 35.72689667 0 31 C-0.45410156 27.47314453 -0.45410156 27.47314453 -0.390625 23.6328125 C-0.38496521 22.95322479 -0.37930542 22.27363708 -0.37347412 21.57345581 C-0.35125351 19.42322451 -0.30109198 17.27471926 -0.25 15.125 C-0.22991614 13.6588784 -0.21166868 12.19273042 -0.1953125 10.7265625 C-0.15143811 7.15048992 -0.08251443 3.57541369 0 0 Z " fill="#312822" transform="translate(334,274)"/>
<path d="M0 0 C2.701875 -0.103125 5.40375 -0.20625 8.1875 -0.3125 C9.02949951 -0.35802002 9.87149902 -0.40354004 10.73901367 -0.45043945 C14.93482417 -0.52774251 16.55909622 -0.33438052 20.0234375 2.29296875 C22.56826128 5.77827089 22.54792297 7.77316569 22 12 C21.01 13.485 21.01 13.485 20 15 C20.66 15.70125 21.32 16.4025 22 17.125 C24.36494446 20.52460766 24.67568691 21.94587851 24 26 C21.84909549 29.33761045 20.79587201 30.73470933 17 32 C15.66474283 32.07973476 14.32587917 32.10771338 12.98828125 32.09765625 C11.96408081 32.09390991 11.96408081 32.09390991 10.91918945 32.09008789 C9.62887817 32.07643188 9.62887817 32.07643188 8.3125 32.0625 C4.1978125 32.0315625 4.1978125 32.0315625 0 32 C0 21.44 0 10.88 0 0 Z " fill="#322A25" transform="translate(187,496)"/>
<path d="M0 0 C7.59 0 15.18 0 23 0 C23 2.64 23 5.28 23 8 C18.38 8 13.76 8 9 8 C9 10.64 9 13.28 9 16 C13.29 16 17.58 16 22 16 C22 18.31 22 20.62 22 23 C17.71 23 13.42 23 9 23 C9 26.3 9 29.6 9 33 C13.62 33 18.24 33 23 33 C23 35.64 23 38.28 23 41 C15.41 41 7.82 41 0 41 C0 27.47 0 13.94 0 0 Z " fill="#342B25" transform="translate(287,322)"/>
<path d="M0 0 C7.92 0 15.84 0 24 0 C24 2.31 24 4.62 24 7 C23 8 23 8 19.83984375 8.09765625 C17.90818359 8.08025391 17.90818359 8.08025391 15.9375 8.0625 C14.64714844 8.05347656 13.35679687 8.04445313 12.02734375 8.03515625 C11.02832031 8.02355469 10.02929688 8.01195312 9 8 C9 10.64 9 13.28 9 16 C13.29 16 17.58 16 22 16 C22 18.31 22 20.62 22 23 C17.71 23 13.42 23 9 23 C9 26.3 9 29.6 9 33 C13.62 33 18.24 33 23 33 C23 35.31 23 37.62 23 40 C15.41 40 7.82 40 0 40 C0 26.8 0 13.6 0 0 Z " fill="#342B26" transform="translate(214,322)"/>
<path d="M0 0 C1.11375 0.495 1.11375 0.495 2.25 1 C1.67415568 3.38564077 1.02772405 5.66682784 0.25 8 C-0.41 7.835 -1.07 7.67 -1.75 7.5 C-5.48099794 6.87816701 -8.96873378 6.93591074 -12.75 7 C-13.08 8.65 -13.41 10.3 -13.75 12 C-12.76 12.53625 -11.77 13.0725 -10.75 13.625 C0.1875 19.875 0.1875 19.875 2.25 24 C2.7864289 28.47610345 2.83328477 31.94560061 0.625 35.9375 C-4.66066535 40.52768307 -10.24762681 40.23154009 -16.9453125 40.265625 C-19.72594316 40.00227836 -21.38042927 39.42854504 -23.75 38 C-23.75 35.36 -23.75 32.72 -23.75 30 C-22.76 30.33 -21.77 30.66 -20.75 31 C-16.2893637 32.28095666 -11.02273753 33.13636877 -6.75 31 C-6.83765228 28.58898639 -6.83765228 28.58898639 -7.75 26 C-10.12692841 24.26970703 -10.12692841 24.26970703 -13.0625 23 C-20.84111446 18.99956971 -20.84111446 18.99956971 -22.75 15 C-23.61630701 10.70456109 -23.85527861 6.89958052 -21.59765625 3.01953125 C-15.73605552 -3.01404799 -7.55953416 -2.01587578 0 0 Z " fill="#2D241E" transform="translate(240.75,275)"/>
<path d="M0 0 C7.59 0 15.18 0 23 0 C23 2.31 23 4.62 23 7 C18.05 7 13.1 7 8 7 C8 10.63 8 14.26 8 18 C12.62 18 17.24 18 22 18 C22 20.31 22 22.62 22 25 C17.71 25 13.42 25 9 25 C9 30.28 9 35.56 9 41 C6.03 41 3.06 41 0 41 C0 27.47 0 13.94 0 0 Z " fill="#312822" transform="translate(183,322)"/>
<path d="M0 0 C2.97 0 5.94 0 9 0 C9 10.89 9 21.78 9 33 C14.28 33 19.56 33 25 33 C25 35.64 25 38.28 25 41 C16.75 41 8.5 41 0 41 C0 27.47 0 13.94 0 0 Z " fill="#382F29" transform="translate(394,322)"/>
<path d="M0 0 C9.9 0 19.8 0 30 0 C30 2.64 30 5.28 30 8 C26.37 8 22.74 8 19 8 C19 18.56 19 29.12 19 40 C16.36 40 13.72 40 11 40 C11 29.44 11 18.88 11 8 C7.37 8 3.74 8 0 8 C0 5.36 0 2.72 0 0 Z " fill="#2D241F" transform="translate(373,274)"/>
<path d="M0 0 C9.9 0 19.8 0 30 0 C30 2.64 30 5.28 30 8 C26.37 8 22.74 8 19 8 C19 18.56 19 29.12 19 40 C16.36 40 13.72 40 11 40 C11 29.44 11 18.88 11 8 C7.37 8 3.74 8 0 8 C0 5.36 0 2.72 0 0 Z " fill="#2F251F" transform="translate(298,274)"/>
<path d="M0 0 C9.9 0 19.8 0 30 0 C30 2.64 30 5.28 30 8 C26.37 8 22.74 8 19 8 C19 18.56 19 29.12 19 40 C16.36 40 13.72 40 11 40 C11 29.11 11 18.22 11 7 C7.37 7 3.74 7 0 7 C0 4.69 0 2.38 0 0 Z " fill="#2D241E" transform="translate(247,274)"/>
<path d="M0 0 C1.32 0 2.64 0 4 0 C4.33 3.63 4.66 7.26 5 11 C5.66 10.67 6.32 10.34 7 10 C11.66403007 9.54124294 13.93033563 9.37602912 18 11.75 C21.03280545 16.67830886 20.86564338 21.36162017 20 27 C18.19196596 30.07365786 17.13960536 31.43019732 14 33 C9.76028942 33.23553948 6.63821698 33.32845886 3 31 C3 31.66 3 32.32 3 33 C2.01 33 1.02 33 0 33 C0 22.11 0 11.22 0 0 Z " fill="#4D4742" transform="translate(333,378)"/>
<path d="M0 0 C3.6688268 1.01209015 5.49000323 2.02752919 7.74609375 5.125 C9.4240373 8.7046129 9.26343796 12.16250731 8.625 16 C7.07228802 20.06662662 6.26220598 21.57519602 2.625 24 C-0.09783905 24.31254378 -2.61942486 24.13333428 -5.375 24 C-5.705 23.67 -6.035 23.34 -6.375 23 C-6.705 26.3 -7.035 29.6 -7.375 33 C-8.695 33 -10.015 33 -11.375 33 C-11.375 22.44 -11.375 11.88 -11.375 1 C-8.9 1.495 -8.9 1.495 -6.375 2 C-3.375 0 -3.375 0 0 0 Z " fill="#362D29" transform="translate(325.375,455)"/>
<path d="M0 0 C1.32 0 2.64 0 4 0 C4 10.56 4 21.12 4 32 C2.35 31.67 0.7 31.34 -1 31 C-1.33 31.33 -1.66 31.66 -2 32 C-9.09832134 32.70983213 -9.09832134 32.70983213 -12.9375 29.6875 C-15.85139629 25.89060483 -16.34165305 22.8258512 -16.2890625 18.06640625 C-15.81603804 14.6849206 -14.1444493 12.57333916 -12 10 C-9 8 -9 8 -5.375 8.3125 C-2 9 -2 9 -1 10 C-0.67 6.7 -0.34 3.4 0 0 Z " fill="#342C27" transform="translate(363,496)"/>
<path d="M0 0 C3.60381445 0.95726321 5.43981227 2.84617507 8 5.53125 C9.82486599 11.00584798 9.71726665 16.5587667 7.75 21.96875 C5.94031667 24.61864344 4.86739651 26.09755175 2 27.53125 C-2.24649943 28.07171356 -4.25823192 28.01501179 -7.875 25.65625 C-11.87900569 21.65224431 -11.36204669 17.69809057 -11.3828125 12.22045898 C-11.29793566 8.56058736 -11.17686046 5.61067406 -9 2.59375 C-5.88562866 0.4526197 -3.80609592 -0.2883406 0 0 Z " fill="#F6F5F4" transform="translate(428,280.46875)"/>
<path d="M0 0 C3.5386994 1.65139305 4.81070153 2.71605229 7 6 C7.66879075 11.45919887 7.95147808 16.38248726 5.125 21.1875 C1.53981183 24.24545462 -1.14372127 24.39246199 -5.73828125 24.35546875 C-9.35701199 23.78672178 -10.88030223 21.84834388 -13 19 C-14.35113662 14.94659014 -14.5512044 11.23831488 -14 7 C-10.35267737 1.08882194 -6.87421525 -0.59260476 0 0 Z " fill="#372F2A" transform="translate(263,504)"/>
<path d="M0 0 C2.87029869 1.79393668 4.49131638 2.98263276 6 6 C6.55879426 11.09327229 6.5361445 14.94619873 4.1875 19.5625 C1.25111405 22.83447291 -0.52536504 22.94641218 -4.875 23.4375 C-7.41531376 23.42346512 -8.59109065 23.32492797 -10.59765625 21.73046875 C-14.42578766 17.1434075 -15.33958557 14.05152743 -15.29296875 8.26171875 C-14.86344199 4.9457722 -13.39075646 3.25012373 -11 1 C-7.54260443 -0.72869779 -3.78024432 -0.48966895 0 0 Z " fill="#3A342E" transform="translate(419,388)"/>
<path d="M0 0 C2.97 0 5.94 0 9 0 C9 13.53 9 27.06 9 41 C6.03 41 3.06 41 0 41 C0 27.47 0 13.94 0 0 Z " fill="#362C26" transform="translate(283,274)"/>
<path d="M0 0 C2.97 0 5.94 0 9 0 C9 13.53 9 27.06 9 41 C6.03 41 3.06 41 0 41 C0 27.47 0 13.94 0 0 Z " fill="#372E28" transform="translate(155,274)"/>
<path d="M0 0 C9 0 9 0 11.9375 1.75 C15.75965349 5.91962198 16.38497588 9.22747591 16.2578125 14.75 C15.6913804 19.69340743 13.43126272 22.56873728 10 26 C6.7 26 3.4 26 0 26 C0 17.42 0 8.84 0 0 Z " fill="#F4F4F3" transform="translate(254,329)"/>
<path d="M0 0 C4.56944444 2.13888889 4.56944444 2.13888889 6 5 C6.08342159 6.44848582 6.10732861 7.90070869 6.09765625 9.3515625 C6.09443359 10.20234375 6.09121094 11.053125 6.08789062 11.9296875 C6.07951172 12.81914062 6.07113281 13.70859375 6.0625 14.625 C6.05798828 15.5221875 6.05347656 16.419375 6.04882812 17.34375 C6.03702591 19.56256648 6.02056155 21.78125018 6 24 C4.68 24 3.36 24 2 24 C1.67 23.34 1.34 22.68 1 22 C0.01 22.66 -0.98 23.32 -2 24 C-4.15625 24.30078125 -4.15625 24.30078125 -6.5 24.3125 C-7.66015625 24.33763672 -7.66015625 24.33763672 -8.84375 24.36328125 C-11.53688625 23.90954634 -12.39750483 23.18522069 -14 21 C-14.4375 17.5 -14.4375 17.5 -14 14 C-10.98927402 10.97517225 -8.42308643 10.560898 -4.25 10.3125 C-3.26515625 10.24675781 -2.2803125 10.18101562 -1.265625 10.11328125 C-0.51796875 10.07589844 0.2296875 10.03851563 1 10 C0.67 8.35 0.34 6.7 0 5 C-1.27875 4.938125 -2.5575 4.87625 -3.875 4.8125 C-4.95394531 4.76029297 -4.95394531 4.76029297 -6.0546875 4.70703125 C-6.69664062 4.80371094 -7.33859375 4.90039062 -8 5 C-8.99 6.485 -8.99 6.485 -10 8 C-11.32 8 -12.64 8 -14 8 C-13.12269491 5.29497597 -12.28331029 3.31599994 -10.375 1.1875 C-6.948246 -0.525877 -3.71555916 -0.56028273 0 0 Z " fill="#3E3632" transform="translate(266,455)"/>
<path d="M0 0 C14 0 14 0 19 4 C19.51780959 7.2622004 19.77909754 8.93230345 19 12 C16.82425584 14.69105198 15.08934144 16.45532928 12 18 C8.99525503 18.13559318 6.00931153 18.04299016 3 18 C3 21.96 3 25.92 3 30 C2.01 30 1.02 30 0 30 C0 20.1 0 10.2 0 0 Z " fill="#241B15" transform="translate(179,381)"/>
<path d="M0 0 C2.31279611 1.15639806 4.17409828 2.17409828 6 4 C6.15655027 5.48638992 6.25066943 6.97949127 6.31640625 8.47265625 C6.35830078 9.37177734 6.40019531 10.27089844 6.44335938 11.19726562 C6.48267578 12.14279297 6.52199219 13.08832031 6.5625 14.0625 C6.60568359 15.01189453 6.64886719 15.96128906 6.69335938 16.93945312 C6.79979276 19.29281353 6.90181008 21.64628354 7 24 C5.865625 23.814375 4.73125 23.62875 3.5625 23.4375 C2.386875 23.293125 1.21125 23.14875 0 23 C-0.33 23.33 -0.66 23.66 -1 24 C-3.1796875 24.23828125 -3.1796875 24.23828125 -5.875 24.3125 C-6.75929688 24.34988281 -7.64359375 24.38726563 -8.5546875 24.42578125 C-11 24 -11 24 -12.79296875 22.13671875 C-14.30987814 19.45144549 -14.53187041 18.03925947 -14 15 C-12.2193615 12.03226916 -10.61142764 11.1557161 -7.28515625 10.30859375 C-4.52855316 9.80126525 -1.77887153 9.36412799 1 9 C0.67 7.68 0.34 6.36 0 5 C-2.64 5 -5.28 5 -8 5 C-8.33 5.99 -8.66 6.98 -9 8 C-10.32 8 -11.64 8 -13 8 C-12.7323244 4.69866765 -12.4396165 3.37496702 -9.875 1.1875 C-6.29668613 -0.29049921 -3.84423208 -0.41188201 0 0 Z " fill="#38302B" transform="translate(322,504)"/>
<path d="M0 0 C3.5 0.75 3.5 0.75 6.5 2.75 C7.015625 2.234375 7.53125 1.71875 8.0625 1.1875 C10.5 -0.25 10.5 -0.25 14.0625 -0.1875 C17.5 0.75 17.5 0.75 19.203125 2.19921875 C21.2324283 6.1905894 20.81436053 10.09566266 20.6875 14.5 C20.66719727 15.83224609 20.66719727 15.83224609 20.64648438 17.19140625 C20.61121309 19.37822578 20.56192752 21.56379966 20.5 23.75 C19.18 23.75 17.86 23.75 16.5 23.75 C16.43941406 22.46222656 16.37882812 21.17445313 16.31640625 19.84765625 C16.23201753 18.16925841 16.1473687 16.49087364 16.0625 14.8125 C16.02318359 13.96236328 15.98386719 13.11222656 15.94335938 12.23632812 C15.90146484 11.42744141 15.85957031 10.61855469 15.81640625 9.78515625 C15.77974854 9.0362915 15.74309082 8.28742676 15.70532227 7.51586914 C15.68228937 5.72538674 15.68228937 5.72538674 14.5 4.75 C12.19 4.75 9.88 4.75 7.5 4.75 C7.17 11.02 6.84 17.29 6.5 23.75 C5.18 23.75 3.86 23.75 2.5 23.75 C2.17 17.15 1.84 10.55 1.5 3.75 C-0.81 4.41 -3.12 5.07 -5.5 5.75 C-7.085869 8.921738 -6.87866445 12.38513822 -7.0625 15.875 C-7.10568359 16.62910156 -7.14886719 17.38320313 -7.19335938 18.16015625 C-7.2994832 20.02321888 -7.40025001 21.88658524 -7.5 23.75 C-8.82 23.75 -10.14 23.75 -11.5 23.75 C-11.5 16.16 -11.5 8.57 -11.5 0.75 C-9.025 1.245 -9.025 1.245 -6.5 1.75 C-3.5 -0.25 -3.5 -0.25 0 0 Z " fill="#312824" transform="translate(288.5,455.25)"/>
<path d="M0 0 C0.33 0.99 0.66 1.98 1 3 C1.66 3 2.32 3 3 3 C3 2.34 3 1.68 3 1 C6.49124017 -1.32749345 7.89222251 -1.50299316 12 -1 C14.17578125 0.3828125 14.17578125 0.3828125 16 3 C16.49496208 6.42864754 16.37580926 9.79508424 16.25 13.25 C16.23195313 14.18585937 16.21390625 15.12171875 16.1953125 16.0859375 C16.14825673 18.39167015 16.08253713 20.69530945 16 23 C14.68 23 13.36 23 12 23 C11.505 13.595 11.505 13.595 11 4 C9.02 4 7.04 4 5 4 C2.51955685 7.72066472 2.55618827 10.86540474 2.375 15.1875 C2.33632813 15.93708984 2.29765625 16.68667969 2.2578125 17.45898438 C2.16371784 19.30559199 2.08077681 21.1527619 2 23 C0.68 23 -0.64 23 -2 23 C-2.33 16.73 -2.66 10.46 -3 4 C-5.31 4 -7.62 4 -10 4 C-10.33 10.27 -10.66 16.54 -11 23 C-12.32 23 -13.64 23 -15 23 C-15 15.41 -15 7.82 -15 0 C-14.01 0 -13.02 0 -12 0 C-11.67 0.66 -11.34 1.32 -11 2 C-10.484375 1.484375 -9.96875 0.96875 -9.4375 0.4375 C-6.0289729 -1.57265701 -3.76893143 -0.79727396 0 0 Z " fill="#423A35" transform="translate(398,505)"/>
<path d="M0 0 C3.80812781 2.05053036 6.71023757 3.74378398 8 8 C8 9.65 8 11.3 8 13 C2.39 13 -3.22 13 -9 13 C-8.34 14.98 -7.68 16.96 -7 19 C-4.21136993 20.39431504 -2.07921132 20.25660094 1 20 C1.66 19.01 2.32 18.02 3 17 C4.32 17 5.64 17 7 17 C6.4336353 20.28491525 5.62788691 21.92565911 3 24 C-1.80262903 24.90354546 -5.84935415 24.68099449 -10.0625 22.1875 C-13.45584038 18.35630925 -13.38804599 14.41836496 -13.359375 9.515625 C-12.77622918 5.43360426 -10.98140974 3.7684519 -8 1 C-5.13391871 -0.43304064 -3.18699217 -0.30644155 0 0 Z " fill="#332B26" transform="translate(228,504)"/>
<path d="M0 0 C3.39762089 1.98194552 4.69546359 2.96926138 5.8125 6.75 C5.874375 7.4925 5.93625 8.235 6 9 C4.68 9 3.36 9 2 9 C1.4225 8.175 0.845 7.35 0.25 6.5 C-1.67345052 3.89453425 -1.67345052 3.89453425 -3.890625 3.52734375 C-7.56907858 3.37066888 -9.42954616 3.57581638 -12.4375 5.8125 C-15.77243625 10.48141076 -15.35200955 15.49105061 -15 21 C-13.9218403 24.98089736 -13.49823043 25.66784638 -10 28 C-6.58461856 28.58369443 -6.58461856 28.58369443 -3 28 C-0.36983839 25.8272578 1.47336894 24.05326212 3 21 C4.32 21.33 5.64 21.66 7 22 C6.16953471 25.32186116 5.25591031 27.67584694 3.125 30.375 C-1.80831431 32.94032344 -6.56321445 32.83246174 -12 32 C-16.08329484 30.27611871 -18.15606694 27.16694778 -19.875 23.1875 C-21.57007011 17.82986767 -21.77626565 13.19941934 -19.875 7.8125 C-14.76732611 0.15098916 -8.84189168 -2.0010597 0 0 Z " fill="#362E29" transform="translate(241,447)"/>
<path d="M0 0 C1.45212891 -0.03867187 1.45212891 -0.03867187 2.93359375 -0.078125 C5.5625 0.25 5.5625 0.25 7.20849609 1.47875977 C8.95917755 3.76891374 8.91011099 5.0583581 8.85546875 7.91796875 C8.84580078 8.81064453 8.83613281 9.70332031 8.82617188 10.62304688 C8.80103516 11.55181641 8.77589844 12.48058594 8.75 13.4375 C8.72969727 14.84805664 8.72969727 14.84805664 8.70898438 16.28710938 C8.67363096 18.60865038 8.62428674 20.92903653 8.5625 23.25 C7.5725 23.25 6.5825 23.25 5.5625 23.25 C5.5625 22.26 5.5625 21.27 5.5625 20.25 C4.9025 20.25 4.2425 20.25 3.5625 20.25 C3.5625 20.91 3.5625 21.57 3.5625 22.25 C0.37264393 23.84492803 -2.96682887 23.62616681 -6.4375 23.25 C-8.4375 22.1875 -8.4375 22.1875 -9.4375 20.25 C-9.9375 16.8125 -9.9375 16.8125 -9.4375 13.25 C-7.5 10.8125 -7.5 10.8125 -4.4375 9.25 C-1.40469442 8.94063354 1.52669621 9.01189774 4.5625 9.25 C4.2325 7.6 3.9025 5.95 3.5625 4.25 C0.2625 4.25 -3.0375 4.25 -6.4375 4.25 C-6.7675 3.26 -7.0975 2.27 -7.4375 1.25 C-4.85741408 -0.04004296 -2.88008426 0.04589776 0 0 Z " fill="#413B35" transform="translate(278.4375,387.75)"/>
<path d="M0 0 C0.99 0 1.98 0 3 0 C3.33 0.66 3.66 1.32 4 2 C4.66 1.34 5.32 0.68 6 0 C7.875 -0.23046875 7.875 -0.23046875 10 -0.1875 C11.051875 -0.17783203 11.051875 -0.17783203 12.125 -0.16796875 C14 0 14 0 16 1 C16 1.66 16 2.32 16 3 C16.474375 2.505 16.94875 2.01 17.4375 1.5 C21.10560943 -0.64718601 24.83575725 -0.78223344 29 0 C31.13560835 1.63142132 31.92013009 2.48957687 32.34057617 5.17651367 C32.3170105 6.40978394 32.3170105 6.40978394 32.29296875 7.66796875 C32.2784668 9.00698242 32.2784668 9.00698242 32.26367188 10.37304688 C32.23853516 11.30181641 32.21339844 12.23058594 32.1875 13.1875 C32.16719727 14.59805664 32.16719727 14.59805664 32.14648438 16.03710938 C32.11113096 18.35865038 32.06178674 20.67903653 32 23 C31.01 23 30.02 23 29 23 C28.93941406 21.71222656 28.87882812 20.42445313 28.81640625 19.09765625 C28.73201753 17.41925841 28.6473687 15.74087364 28.5625 14.0625 C28.52318359 13.21236328 28.48386719 12.36222656 28.44335938 11.48632812 C28.40146484 10.67744141 28.35957031 9.86855469 28.31640625 9.03515625 C28.27974854 8.2862915 28.24309082 7.53742676 28.20532227 6.76586914 C28.18228937 4.97538674 28.18228937 4.97538674 27 4 C24.66702567 3.95907063 22.33294775 3.95758277 20 4 C18.3501993 7.29960141 18.61741639 10.99127884 18.4375 14.625 C18.39431641 15.42679687 18.35113281 16.22859375 18.30664062 17.0546875 C18.20048543 19.0362511 18.09973145 21.01810271 18 23 C16.68 23 15.36 23 14 23 C13.67 16.73 13.34 10.46 13 4 C10.69 4 8.38 4 6 4 C3.51955685 7.72066472 3.55618827 10.86540474 3.375 15.1875 C3.33632813 15.93708984 3.29765625 16.68667969 3.2578125 17.45898438 C3.16371784 19.30559199 3.08077681 21.1527619 3 23 C2.01 23 1.02 23 0 23 C0 15.41 0 7.82 0 0 Z " fill="#47403B" transform="translate(294,388)"/>
<path d="M0 0 C2.5625 1.5 2.5625 1.5 4 4 C4.31058001 6.75837161 4.18622842 9.20657373 4 12 C-0.95 12 -5.9 12 -11 12 C-9.34922098 15.75170424 -9.34922098 15.75170424 -7 19 C-5.14712498 19.07226502 -3.29166122 19.0838122 -1.4375 19.0625 C-0.42558594 19.05347656 0.58632812 19.04445313 1.62890625 19.03515625 C2.41136719 19.02355469 3.19382813 19.01195312 4 19 C4 19.99 4 20.98 4 22 C0.29778834 23.85110583 -3.95906917 23.46454795 -8 23 C-11.49996383 20.95835443 -13.80555258 18.90910064 -15 15 C-15.4785596 10.05488412 -15.52320037 7.95920068 -13.125 3.5625 C-9.44633903 -0.87353235 -5.47713882 -0.67126568 0 0 Z " fill="#2B241E" transform="translate(217,388)"/>
<path d="M0 0 C2.875 1.25 2.875 1.25 5 3 C5.8125 5.1875 5.8125 5.1875 6 7 C3.525 6.505 3.525 6.505 1 6 C1 5.34 1 4.68 1 4 C-1.64 4.33 -4.28 4.66 -7 5 C-7 5.99 -7 6.98 -7 8 C-6.15695312 8.25394531 -5.31390625 8.50789063 -4.4453125 8.76953125 C-3.34960938 9.11371094 -2.25390625 9.45789063 -1.125 9.8125 C-0.03445313 10.14894531 1.05609375 10.48539062 2.1796875 10.83203125 C5 12 5 12 7 15 C7.4375 17.4375 7.4375 17.4375 7 20 C4.79104689 22.72437551 3.06033714 23.83041458 -0.41796875 24.38671875 C-4.57909304 24.56496484 -7.1406898 24.59333323 -10.625 22.1875 C-12 20 -12 20 -12 17 C-10.68 17 -9.36 17 -8 17 C-7.34 17.99 -6.68 18.98 -6 20 C-2.41642759 20.25015873 -2.41642759 20.25015873 1 20 C1.33 18.68 1.66 17.36 2 16 C1.32453125 15.82984375 0.6490625 15.6596875 -0.046875 15.484375 C-9.67955801 12.86740331 -9.67955801 12.86740331 -12 9 C-12 5.54176408 -11.65281014 3.75324247 -9.375 1.125 C-6.04574611 -0.452015 -3.64527529 -0.38371319 0 0 Z " fill="#39302C" transform="translate(374,455)"/>
<path d="M0 0 C2.475 0.495 2.475 0.495 5 1 C5.66 0.67 6.32 0.34 7 0 C9.0234375 -0.23828125 9.0234375 -0.23828125 11.375 -0.3125 C12.14585937 -0.34988281 12.91671875 -0.38726562 13.7109375 -0.42578125 C16 0 16 0 18.2734375 1.41015625 C20.91705027 5.3755754 20.42851043 9.10186312 20.25 13.75 C20.23195313 14.63816406 20.21390625 15.52632813 20.1953125 16.44140625 C20.14827374 18.62870848 20.08257009 20.81379816 20 23 C18.68 23 17.36 23 16 23 C15.93941406 21.71222656 15.87882812 20.42445313 15.81640625 19.09765625 C15.73201753 17.41925841 15.6473687 15.74087364 15.5625 14.0625 C15.52318359 13.21236328 15.48386719 12.36222656 15.44335938 11.48632812 C15.38051758 10.27299805 15.38051758 10.27299805 15.31640625 9.03515625 C15.27974854 8.2862915 15.24309082 7.53742676 15.20532227 6.76586914 C15.18228937 4.97538674 15.18228937 4.97538674 14 4 C10.54178598 3.74996036 10.54178598 3.74996036 7 4 C3.97906785 7.02093215 4.53323166 10.56372072 4.375 14.625 C4.33632812 15.42679687 4.29765625 16.22859375 4.2578125 17.0546875 C4.16346069 19.03607556 4.08063785 21.01800645 4 23 C2.68 23 1.36 23 0 23 C0 15.41 0 7.82 0 0 Z " fill="#413A34" transform="translate(244,388)"/>
<path d="M0 0 C1.32 0 2.64 0 4 0 C4.06058594 1.28777344 4.12117188 2.57554687 4.18359375 3.90234375 C4.26798247 5.58074159 4.3526313 7.25912636 4.4375 8.9375 C4.47681641 9.78763672 4.51613281 10.63777344 4.55664062 11.51367188 C4.59853516 12.32255859 4.64042969 13.13144531 4.68359375 13.96484375 C4.72025146 14.7137085 4.75690918 15.46257324 4.79467773 16.23413086 C4.81771063 18.02461326 4.81771063 18.02461326 6 19 C8.45809998 19.2500773 8.45809998 19.2500773 11 19 C14.02093215 15.97906785 13.46676834 12.43627928 13.625 8.375 C13.66367187 7.57320313 13.70234375 6.77140625 13.7421875 5.9453125 C13.83653931 3.96392444 13.91936215 1.98199355 14 0 C15.32 0 16.64 0 18 0 C18 7.59 18 15.18 18 23 C17.01 23 16.02 23 15 23 C14.67 22.34 14.34 21.68 14 21 C13.34 21.66 12.68 22.32 12 23 C9.94140625 23.30078125 9.94140625 23.30078125 7.5625 23.3125 C6.38880859 23.33763672 6.38880859 23.33763672 5.19140625 23.36328125 C2.43136542 22.90573437 1.70755663 22.18680723 0 20 C-0.34057617 17.82348633 -0.34057617 17.82348633 -0.29296875 15.33203125 C-0.28330078 14.43935547 -0.27363281 13.54667969 -0.26367188 12.62695312 C-0.23853516 11.69818359 -0.21339844 10.76941406 -0.1875 9.8125 C-0.17396484 8.87212891 -0.16042969 7.93175781 -0.14648438 6.96289062 C-0.11113096 4.64134962 -0.06178674 2.32096347 0 0 Z " fill="#3A312D" transform="translate(339,456)"/>
<path d="M0 0 C0.99 0 1.98 0 3 0 C3.06058594 1.20398438 3.12117188 2.40796875 3.18359375 3.6484375 C3.26799732 5.22397077 3.35264541 6.79949096 3.4375 8.375 C3.47681641 9.1690625 3.51613281 9.963125 3.55664062 10.78125 C3.68893404 15.02601221 3.68893404 15.02601221 5 19 C8.41656024 19.16677282 8.41656024 19.16677282 12 19 C15.02093215 15.97906785 14.46676834 12.43627928 14.625 8.375 C14.66367187 7.57320313 14.70234375 6.77140625 14.7421875 5.9453125 C14.83653931 3.96392444 14.91936215 1.98199355 15 0 C16.32 0 17.64 0 19 0 C19 7.59 19 15.18 19 23 C18.01 23 17.02 23 16 23 C16 22.34 16 21.68 16 21 C15.01 21.66 14.02 22.32 13 23 C10.625 23.3359375 10.625 23.3359375 8 23.375 C7.13375 23.40335937 6.2675 23.43171875 5.375 23.4609375 C3 23 3 23 1.19921875 21.5859375 C-0.67195957 17.55101878 -0.31380452 13.63503381 -0.1875 9.25 C-0.17396484 8.36183594 -0.16042969 7.47367187 -0.14648438 6.55859375 C-0.11121309 4.37177422 -0.06192752 2.18620034 0 0 Z " fill="#3C342E" transform="translate(359,388)"/>
<path d="M0 0 C1.6953125 1.1796875 1.6953125 1.1796875 3 3 C3.3984375 5.59375 3.3984375 5.59375 3.375 8.5 C3.38273437 9.4590625 3.39046875 10.418125 3.3984375 11.40625 C3 14 3 14 1.6953125 15.8125 C-1.21187907 17.84887382 -3.59371765 17.48661176 -7 17 C-10.45059312 13.54940688 -10.35108025 9.7111626 -10.3984375 5.0859375 C-9.3047983 -0.63958536 -5.04802707 -0.54086004 0 0 Z " fill="#F6F6F4" transform="translate(418,391)"/>
<path d="M0 0 C1.6953125 1.18359375 1.6953125 1.18359375 3 3 C3.3984375 5.59375 3.3984375 5.59375 3.375 8.5 C3.38273437 9.4590625 3.39046875 10.418125 3.3984375 11.40625 C3 14 3 14 1.6640625 15.8203125 C-0.92572613 17.65626595 -2.92187412 17.38476574 -6 17 C-8.03667615 15.45493534 -8.86073078 14.27853844 -10 12 C-10.44810544 5.05436573 -10.44810544 5.05436573 -8.9375 1.5 C-5.94927177 -0.81346701 -3.65496159 -0.4568702 0 0 Z " fill="#F9F9F9" transform="translate(263,508)"/>
<path d="M0 0 C2.69101234 2.69101234 2.29887549 4.19075946 2.3125 7.9375 C2.32925781 8.99839844 2.34601563 10.05929687 2.36328125 11.15234375 C2 14 2 14 0.66796875 15.8515625 C-1.96270045 17.66284294 -3.90500066 17.45135407 -7 17 C-9.83227905 14.08793844 -10.41129076 11.94762845 -10.375 7.9375 C-10.38273437 7.08027344 -10.39046875 6.22304688 -10.3984375 5.33984375 C-9.38467028 -0.61355395 -5.28438241 -0.4803984 0 0 Z " fill="#F7F7F5" transform="translate(347,391)"/>
<path d="M0 0 C1.32 0 2.64 0 4 0 C4.11629782 4.39561039 4.18728634 8.79082429 4.25 13.1875 C4.30027344 15.05631836 4.30027344 15.05631836 4.3515625 16.96289062 C4.36445313 18.16494141 4.37734375 19.36699219 4.390625 20.60546875 C4.41157227 21.71043701 4.43251953 22.81540527 4.45410156 23.95385742 C3.89629606 27.69565273 2.6332368 29.33514003 0 32 C-3.07102376 32.87048385 -5.88218474 32.61784229 -9 32 C-11.5625 30.3125 -11.5625 30.3125 -13 28 C-13.25 25.25 -13.25 25.25 -13 23 C-12.01 23 -11.02 23 -10 23 C-8.3125 25.5 -8.3125 25.5 -7 28 C-3.70924004 27.62095792 -3.70924004 27.62095792 -1 26 C-0.84193469 24.07521187 -0.748865 22.1450079 -0.68359375 20.21484375 C-0.64169922 19.04501953 -0.59980469 17.87519531 -0.55664062 16.66992188 C-0.49766602 14.82237305 -0.49766602 14.82237305 -0.4375 12.9375 C-0.39431641 11.70193359 -0.35113281 10.46636719 -0.30664062 9.19335938 C-0.20015802 6.12902665 -0.09814576 3.06460927 0 0 Z " fill="#2B221D" transform="translate(299,496)"/>
<path d="M0 0 C3.32979704 0.4855954 4.01256863 0.83989233 6 3.4375 C6.80481836 7.65096084 6.34394875 11.50119508 4.875 15.5 C3 17.4375 3 17.4375 0 18 C-3 17.4375 -3 17.4375 -4.875 16 C-6.56730912 12.1452959 -6.54726039 8.57995711 -6 4.4375 C-4.46998206 0.95245914 -3.77624335 0.55070215 0 0 Z " fill="#FAFAF9" transform="translate(324,458.5625)"/>
<path d="M0 0 C3 0.4375 3 0.4375 4.6640625 1.62109375 C6.50020807 4.11760747 6.39977358 5.86557621 6.375 8.9375 C6.38273437 9.8965625 6.39046875 10.855625 6.3984375 11.84375 C6 14.4375 6 14.4375 4.69921875 16.28515625 C3 17.4375 3 17.4375 -0.5625 17.375 C-4 16.4375 -4 16.4375 -5.4375 14.875 C-6.47904041 10.36165824 -6.80268135 6.22123633 -4.875 1.9375 C-3 0.4375 -3 0.4375 0 0 Z " fill="#F9F8F8" transform="translate(357,507.5625)"/>
<path d="M0 0 C11.25 -0.26785714 11.25 -0.26785714 15 2 C15.125 5.375 15.125 5.375 15 9 C13 11 13 11 9.9609375 11.1953125 C8.77757812 11.17210937 7.59421875 11.14890625 6.375 11.125 C5.18648437 11.10695313 3.99796875 11.08890625 2.7734375 11.0703125 C1.85820312 11.04710937 0.94296875 11.02390625 0 11 C0 7.37 0 3.74 0 0 Z " fill="#F6F5F5" transform="translate(191,513)"/>
<path d="M0 0 C0 0.99 0 1.98 0 3 C-0.62648438 3.04898437 -1.25296875 3.09796875 -1.8984375 3.1484375 C-2.71570313 3.22320312 -3.53296875 3.29796875 -4.375 3.375 C-5.18710937 3.44460938 -5.99921875 3.51421875 -6.8359375 3.5859375 C-9.20334191 3.82892588 -9.20334191 3.82892588 -11 6 C-11.31923475 8.33560151 -11.31923475 8.33560151 -11.25 10.9375 C-11.25515625 11.81277344 -11.2603125 12.68804687 -11.265625 13.58984375 C-11.15833837 16.26105634 -11.15833837 16.26105634 -9 19 C-6.79274927 19.36362818 -6.79274927 19.36362818 -4.375 19.1875 C-3.55773437 19.16042969 -2.74046875 19.13335937 -1.8984375 19.10546875 C-0.95871094 19.05326172 -0.95871094 19.05326172 0 19 C0 20.32 0 21.64 0 23 C-8.96284102 23.78316087 -8.96284102 23.78316087 -13.0625 20.6875 C-16.39978704 16.05835992 -16.78222294 11.54153116 -16 6 C-12.29997003 -1.27247271 -7.59789012 -0.71853952 0 0 Z " fill="#342D27" transform="translate(400,388)"/>
<path d="M0 0 C3.66327268 -0.21548663 6.46750111 -0.19260598 9.9375 1.0625 C12 3 12 3 12.625 6.5 C12 10 12 10 9.9375 11.9375 C6.46750111 13.19260598 3.66327268 13.21548663 0 13 C0 8.71 0 4.42 0 0 Z " fill="#E8E7E5" transform="translate(182,383)"/>
<path d="M0 0 C0.33 0 0.66 0 1 0 C1 1.65 1 3.3 1 5 C-3.95 5 -8.9 5 -14 5 C-12.34922098 8.75170424 -12.34922098 8.75170424 -10 12 C-8.14712498 12.07226502 -6.29166122 12.0838122 -4.4375 12.0625 C-3.42558594 12.05347656 -2.41367188 12.04445313 -1.37109375 12.03515625 C-0.58863281 12.02355469 0.19382813 12.01195312 1 12 C1 12.99 1 13.98 1 15 C-2.69725375 16.84862688 -6.96461442 16.47587094 -11 16 C-13.93423195 14.20353146 -15.47205355 13.0558929 -17 10 C-17.13559318 6.99525503 -17.04299016 4.00931153 -17 1 C-11.39 1.33 -5.78 1.66 0 2 C0 1.34 0 0.68 0 0 Z " fill="#2B241E" transform="translate(220,395)"/>
<path d="M0 0 C2.6875 0.3125 2.6875 0.3125 5 1 C4.67 2.32 4.34 3.64 4 5 C2.02 5 0.04 5 -2 5 C-2.33 11.27 -2.66 17.54 -3 24 C-4.32 24 -5.64 24 -7 24 C-7 16.41 -7 8.82 -7 1 C-6.01 1 -5.02 1 -4 1 C-3.67 1.66 -3.34 2.32 -3 3 C-2.608125 2.484375 -2.21625 1.96875 -1.8125 1.4375 C-1.214375 0.963125 -0.61625 0.48875 0 0 Z " fill="#322925" transform="translate(341,504)"/>
<path d="M0 0 C1.95803507 -0.05389087 3.91648909 -0.09274217 5.875 -0.125 C7.51082031 -0.15980469 7.51082031 -0.15980469 9.1796875 -0.1953125 C12 0 12 0 14 2 C14.25 4.5 14.25 4.5 14 7 C12 9 12 9 9.1796875 9.1953125 C8.08914062 9.17210937 6.99859375 9.14890625 5.875 9.125 C4.77929688 9.10695313 3.68359375 9.08890625 2.5546875 9.0703125 C1.71164063 9.04710937 0.86859375 9.02390625 0 9 C0 6.03 0 3.06 0 0 Z " fill="#FAFAF9" transform="translate(191,500)"/>
<path d="M0 0 C0.99 0 1.98 0 3 0 C3.33 0.99 3.66 1.98 4 3 C4.37125 2.505 4.7425 2.01 5.125 1.5 C7.74694393 -0.59755514 9.73842472 -0.21743835 13 0 C13 0.99 13 1.98 13 3 C11.2984375 3.433125 11.2984375 3.433125 9.5625 3.875 C8.386875 4.24625 7.21125 4.6175 6 5 C4.414131 8.171738 4.62133555 11.63513822 4.4375 15.125 C4.39431641 15.87910156 4.35113281 16.63320313 4.30664062 17.41015625 C4.2005168 19.27321888 4.09974999 21.13658524 4 23 C2.68 23 1.36 23 0 23 C0 15.41 0 7.82 0 0 Z " fill="#38302B" transform="translate(227,388)"/>
<path d="M0 0 C6.38007214 0.48151488 6.38007214 0.48151488 8.71875 2.4375 C10.7202148 6.4404296 10.31435622 10.34581236 10.1875 14.75 C10.17396484 15.63816406 10.16042969 16.52632813 10.14648438 17.44140625 C10.11121309 19.62822578 10.06192752 21.81379966 10 24 C8.68 24 7.36 24 6 24 C5.67 18.06 5.34 12.12 5 6 C2.69 5.34 0.38 4.68 -2 4 C-1.34 2.68 -0.68 1.36 0 0 Z " fill="#3F3732" transform="translate(299,455)"/>
<path d="M0 0 C2.31 0.33 4.62 0.66 7 1 C6.52433594 2.22589844 6.52433594 2.22589844 6.0390625 3.4765625 C4.84890917 7.51234559 4.55640657 11.19509032 4.375 15.375 C4.31699219 16.47908203 4.31699219 16.47908203 4.2578125 17.60546875 C4.16442002 19.40327406 4.0811629 21.20160108 4 23 C2.68 23 1.36 23 0 23 C0 15.41 0 7.82 0 0 Z " fill="#3E3632" transform="translate(277,456)"/>
<path d="M0 0 C5.4952346 -0.36634897 5.4952346 -0.36634897 7.6809082 1.2199707 C9.38322249 3.51713403 9.34720925 4.82938234 9.29296875 7.66796875 C9.28330078 8.56064453 9.27363281 9.45332031 9.26367188 10.37304688 C9.23853516 11.30181641 9.21339844 12.23058594 9.1875 13.1875 C9.17396484 14.12787109 9.16042969 15.06824219 9.14648438 16.03710938 C9.11113096 18.35865038 9.06178674 20.67903653 9 23 C7.68 23 6.36 23 5 23 C4.67 16.73 4.34 10.46 4 4 C1.525 3.01 1.525 3.01 -1 2 C-0.67 1.34 -0.34 0.68 0 0 Z " fill="#2D241F" transform="translate(405,505)"/>
<path d="M0 0 C1.32 0 2.64 0 4 0 C4 7.59 4 15.18 4 23 C3.01 23 2.02 23 1 23 C0.67 22.34 0.34 21.68 0 21 C-1.32 21.33 -2.64 21.66 -4 22 C-3.51917969 21.35675781 -3.03835938 20.71351563 -2.54296875 20.05078125 C-0.51621136 16.04344575 -0.44246425 12.61742446 -0.3125 8.1875 C-0.27833984 7.39923828 -0.24417969 6.61097656 -0.20898438 5.79882812 C-0.12700125 3.86636881 -0.06181155 1.93320965 0 0 Z " fill="#342B26" transform="translate(353,456)"/>
<path d="M0 0 C0.99 0 1.98 0 3 0 C3.33 0.66 3.66 1.32 4 2 C5.32 1.34 6.64 0.68 8 0 C7.51917969 0.80695313 7.03835938 1.61390625 6.54296875 2.4453125 C4.68384175 6.72836458 4.44926461 10.26407898 4.3125 14.875 C4.27833984 15.65875 4.24417969 16.4425 4.20898438 17.25 C4.12719588 19.16618748 4.0619054 21.08306715 4 23 C2.68 23 1.36 23 0 23 C0 15.41 0 7.82 0 0 Z " fill="#2D241F" transform="translate(383,505)"/>
<path d="M0 0 C0.99 0 1.98 0 3 0 C3 10.56 3 21.12 3 32 C2.01 32 1.02 32 0 32 C0 21.44 0 10.88 0 0 Z " fill="#271E19" transform="translate(241,496)"/>
<path d="M0 0 C6.0546875 -0.1953125 6.0546875 -0.1953125 8 0 C10 2 10 2 10.3125 5 C10.1578125 6.485 10.1578125 6.485 10 8 C6.3558226 10.4294516 4.28758728 10.16179575 0 10 C0 6.7 0 3.4 0 0 Z " fill="#F5F3F2" transform="translate(327,330)"/>
<path d="M0 0 C1.32 0 2.64 0 4 0 C4 7.59 4 15.18 4 23 C2.68 23 1.36 23 0 23 C0 15.41 0 7.82 0 0 Z " fill="#2E2520" transform="translate(373,505)"/>
<path d="M0 0 C0.33 0 0.66 0 1 0 C1 4.29 1 8.58 1 13 C0.34 13 -0.32 13 -1 13 C-1 12.34 -1 11.68 -1 11 C-1.66 11 -2.32 11 -3 11 C-3 11.66 -3 12.32 -3 13 C-6.18985607 14.59492803 -9.52932887 14.37616681 -13 14 C-15 12.9375 -15 12.9375 -16 11 C-16.3125 7.4375 -16.3125 7.4375 -16 4 C-15.34 3.34 -14.68 2.68 -14 2 C-13.01 2 -12.02 2 -11 2 C-11.185625 3.134375 -11.37125 4.26875 -11.5625 5.4375 C-11.7790625 7.2009375 -11.7790625 7.2009375 -12 9 C-11.67 9.33 -11.34 9.66 -11 10 C-9.47480724 9.91062197 -7.95318071 9.75462854 -6.4375 9.5625 C-5.61121094 9.46066406 -4.78492188 9.35882813 -3.93359375 9.25390625 C-3.29550781 9.17011719 -2.65742188 9.08632813 -2 9 C-0.86165035 6.11199733 -0.86165035 6.11199733 -1 3.375 C-1 1 -1 1 0 0 Z " fill="#2A221C" transform="translate(285,397)"/>
<path d="M0 0 C0.66 0 1.32 0 2 0 C2.67184618 2.10251861 3.33730968 4.20707763 4 6.3125 C4.37125 7.48425781 4.7425 8.65601563 5.125 9.86328125 C6 13 6 13 6 16 C2.7 16 -0.6 16 -4 16 C-2.96168893 10.51178434 -1.93581306 5.25434973 0 0 Z " fill="#E4E2E0" transform="translate(369,330)"/>
<path d="M0 0 C3.96 0 7.92 0 12 0 C12 0.66 12 1.32 12 2 C8.7 2 5.4 2 2 2 C2 13.88 2 25.76 2 38 C1.34 38 0.68 38 0 38 C0 25.46 0 12.92 0 0 Z " fill="#1E160F" transform="translate(319,323)"/>
<path d="M0 0 C2.55687669 0.34552388 4.57501375 0.75087013 6.8125 2.0625 C8.75458759 5.23116922 8.75824135 8.46383806 8 12 C5.82425584 14.69105198 4.08934144 16.45532928 1 18 C-0.54023996 18.06950541 -2.08334988 18.08452357 -3.625 18.0625 C-4.85089844 18.04896484 -4.85089844 18.04896484 -6.1015625 18.03515625 C-6.72804687 18.02355469 -7.35453125 18.01195312 -8 18 C-8 17.67 -8 17.34 -8 17 C-4.535 16.505 -4.535 16.505 -1 16 C-1 15.34 -1 14.68 -1 14 C0.32 13.34 1.64 12.68 3 12 C3 9.69 3 7.38 3 5 C1.68 4.34 0.36 3.68 -1 3 C-0.67 2.01 -0.34 1.02 0 0 Z " fill="#352D27" transform="translate(190,381)"/>
<path d="M0 0 C0.99 0 1.98 0 3 0 C3.33 0.66 3.66 1.32 4 2 C4.33 1.67 4.66 1.34 5 1 C6.99958364 0.95919217 9.00045254 0.95745644 11 1 C10.401875 1.2475 9.80375 1.495 9.1875 1.75 C6.51443563 3.27746535 5.54714992 4.31827348 4 7 C3.63010978 9.81229514 3.39961941 12.43230942 3.3125 15.25 C3.27833984 15.99507813 3.24417969 16.74015625 3.20898438 17.5078125 C3.12685946 19.33802492 3.06174347 21.16898669 3 23 C2.01 23 1.02 23 0 23 C0 15.41 0 7.82 0 0 Z " fill="#2F2721" transform="translate(294,388)"/>
<path d="M0 0 C-0.75 5.75 -0.75 5.75 -3 8 C-9.32258065 8.33870968 -9.32258065 8.33870968 -12 7 C-11.67 5.35 -11.34 3.7 -11 2 C-7.12315913 0.80712589 -4.08378077 0 0 0 Z " fill="#F2F1F1" transform="translate(324,517)"/>
<path d="M0 0 C7.26 0 14.52 0 22 0 C22 1.98 22 3.96 22 6 C17.38 6 12.76 6 8 6 C8.33 5.34 8.66 4.68 9 4 C12.63 4 16.26 4 20 4 C20 3.34 20 2.68 20 2 C13.4 2 6.8 2 0 2 C0 1.34 0 0.68 0 0 Z " fill="#1F1711" transform="translate(215,323)"/>
<path d="M0 0 C0.22223194 2.74086056 0.34781139 4.43963721 -1.125 6.8125 C-3.83445834 8.52849028 -5.86295684 8.333728 -9 8 C-9.66 7.34 -10.32 6.68 -11 6 C-10.75 3.4375 -10.75 3.4375 -10 1 C-6.78548731 -0.60725635 -3.56387464 -0.05748185 0 0 Z " fill="#F1F0ED" transform="translate(283,400)"/>
<path d="M0 0 C-0.25561323 2.3431213 -0.59270772 4.67843403 -1 7 C-3.95664519 8.4783226 -6.74229737 8.06032783 -10 8 C-10.625 5.625 -10.625 5.625 -11 3 C-7.75987532 -0.24012468 -4.46544827 0 0 0 Z " fill="#F7F6F6" transform="translate(267,468)"/>
<path d="M0 0 C0.66 0 1.32 0 2 0 C4.21491352 23.81032039 4.21491352 23.81032039 2 31 C1.34 31 0.68 31 0 31 C0 20.77 0 10.54 0 0 Z " fill="#1D140D" transform="translate(334,379)"/>
<path d="M0 0 C3.5625 0.375 3.5625 0.375 5.5 2.25 C6.5625 4.375 6.5625 4.375 6.5625 6.375 C2.2725 6.375 -2.0175 6.375 -6.4375 6.375 C-4.97955607 0.5432243 -4.97955607 0.5432243 0 0 Z " fill="#F5F4F4" transform="translate(225.4375,507.625)"/>
<path d="M0 0 C0.33 0 0.66 0 1 0 C1.13277344 0.71027344 1.26554687 1.42054688 1.40234375 2.15234375 C1.57894531 3.07144531 1.75554687 3.99054688 1.9375 4.9375 C2.19853516 6.31228516 2.19853516 6.31228516 2.46484375 7.71484375 C2.77714988 9.95289844 2.77714988 9.95289844 4 11 C5.51928038 11.07179964 7.04167482 11.08392007 8.5625 11.0625 C9.38878906 11.05347656 10.21507812 11.04445313 11.06640625 11.03515625 C11.70449219 11.02355469 12.34257812 11.01195312 13 11 C13 12.32 13 13.64 13 15 C7.95232271 15.44105918 4.22568326 15.70712496 -0.25 13.125 C-2.59725518 8.9334729 -1.79340844 6.52784795 -0.61328125 2.01171875 C-0.41089844 1.34785156 -0.20851563 0.68398438 0 0 Z " fill="#362E27" transform="translate(387,396)"/>
<path d="M0 0 C0.99 0 1.98 0 3 0 C3 6.93 3 13.86 3 21 C2.34 21 1.68 21 1 21 C-0.17426264 18.65147472 -0.11508173 17.26225935 -0.09765625 14.6484375 C-0.09443359 13.79765625 -0.09121094 12.946875 -0.08789062 12.0703125 C-0.07951172 11.18085938 -0.07113281 10.29140625 -0.0625 9.375 C-0.05798828 8.4778125 -0.05347656 7.580625 -0.04882812 6.65625 C-0.03702591 4.43743352 -0.02056155 2.21874982 0 0 Z " fill="#272019" transform="translate(359,388)"/>
<path d="M0 0 C3.125 0.25 3.125 0.25 5 1.5625 C6.125 3.25 6.125 3.25 6.125 6.25 C2.165 6.25 -1.795 6.25 -5.875 6.25 C-3.49662162 0.30405405 -3.49662162 0.30405405 0 0 Z " fill="#F5F4F1" transform="translate(211.875,390.75)"/>
<path d="M0 0 C0.99 0.495 0.99 0.495 2 1 C2.67258667 3.33163378 3.33847444 5.6652039 4 8 C5.02877392 10.91080119 5.02877392 10.91080119 7 13 C10.59919423 13.89592083 10.59919423 13.89592083 14 14 C13.67 14.66 13.34 15.32 13 16 C5.91067194 16.72094862 5.91067194 16.72094862 2 13.625 C-0.97390119 9.48739835 -0.4330424 4.86932121 0 0 Z " fill="#29221B" transform="translate(405,395)"/>
<path d="M0 0 C0.33 0.495 0.66 0.99 1 1.5 C4.17572747 3.88179561 7.10246066 3.19168226 11 3 C11 2.34 11 1.68 11 1 C12.32 0.67 13.64 0.34 15 0 C14.64393309 2.58148508 14.16671807 3.82045747 12.375 5.75 C9.09017113 7.4788573 6.66355972 7.32710355 3 7 C0.5625 6 0.5625 6 -1 5 C-0.67 3.35 -0.34 1.7 0 0 Z " fill="#38322D" transform="translate(337,404)"/>
<path d="M0 0 C0.433125 0.66 0.86625 1.32 1.3125 2 C5.51781411 5.12953609 9.92749266 4.31484528 15 4 C15 4.99 15 5.98 15 7 C11.29012673 8.85493664 7.03860349 8.59596347 3 8 C0.70672475 6.55214852 -0.34437719 5.20749707 -2 3 C-1.34 3 -0.68 3 0 3 C0 2.01 0 1.02 0 0 Z " fill="#302922" transform="translate(206,403)"/>
<path d="M0 0 C0.66 0 1.32 0 2 0 C3.59412284 3.18824568 3.10174735 6.62896662 3.0625 10.125 C3.05798828 10.87910156 3.05347656 11.63320313 3.04882812 12.41015625 C3.03703499 14.27347127 3.01909942 16.13674555 3 18 C2.01 18 1.02 18 0 18 C0 12.06 0 6.12 0 0 Z " fill="#282019" transform="translate(323,393)"/>
<path d="M0 0 C1.42131189 0.24529092 2.84013562 0.5082344 4.25 0.8125 C4.25 1.1425 4.25 1.4725 4.25 1.8125 C3.115625 2.121875 1.98125 2.43125 0.8125 2.75 C-2.53775099 3.44174531 -2.53775099 3.44174531 -3.75 4.8125 C-3.98075082 6.15997084 -4.16153063 7.51627565 -4.3125 8.875 C-4.456875 10.174375 -4.60125 11.47375 -4.75 12.8125 C-5.08 12.8125 -5.41 12.8125 -5.75 12.8125 C-6.08 10.8325 -6.41 8.8525 -6.75 6.8125 C-7.08 9.1225 -7.41 11.4325 -7.75 13.8125 C-8.08 13.8125 -8.41 13.8125 -8.75 13.8125 C-9.10232108 9.32040624 -9.22159647 5.83770972 -7.3125 1.6875 C-4.32422179 -0.49904503 -3.55640169 -0.37524238 0 0 Z " fill="#47403A" transform="translate(412.75,389.1875)"/>
<path d="M0 0 C8.03816794 -0.61832061 8.03816794 -0.61832061 11.625 1.6875 C13 4 13 4 12.75 6.75 C12.5025 7.4925 12.255 8.235 12 9 C11.34 9 10.68 9 10 9 C9.566875 8.195625 9.13375 7.39125 8.6875 6.5625 C7.25503114 3.75402917 7.25503114 3.75402917 4.4375 3.375 C3.633125 3.25125 2.82875 3.1275 2 3 C1.34 2.01 0.68 1.02 0 0 Z " fill="#3A332D" transform="translate(208,388)"/>
<path d="M0 0 C0.33 0 0.66 0 1 0 C1 1.65 1 3.3 1 5 C1.66 5 2.32 5 3 5 C2.04632051 7.38419873 1.42010128 8.73467287 -0.78125 10.125 C-3.27893252 11.11000156 -5.0776682 11.20359799 -7.75 11.125 C-8.54921875 11.10695313 -9.3484375 11.08890625 -10.171875 11.0703125 C-10.77515625 11.04710937 -11.3784375 11.02390625 -12 11 C-12 10.67 -12 10.34 -12 10 C-8.535 9.505 -8.535 9.505 -5 9 C-5 8.34 -5 7.68 -5 7 C-4.0409375 6.6596875 -4.0409375 6.6596875 -3.0625 6.3125 C-0.72806339 5.14749104 -0.72806339 5.14749104 -0.25 2.375 C-0.1675 1.59125 -0.085 0.8075 0 0 Z " fill="#403933" transform="translate(194,388)"/>
<path d="M0 0 C0.33 0.66 0.66 1.32 1 2 C1.66 2 2.32 2 3 2 C3.05437607 3.58294782 3.09296271 5.16644256 3.125 6.75 C3.14820313 7.63171875 3.17140625 8.5134375 3.1953125 9.421875 C2.99139502 12.1135858 2.36551721 13.69904974 1 16 C0.67 16 0.34 16 0 16 C0 10.72 0 5.44 0 0 Z " fill="#362E28" transform="translate(276,335)"/>
<path d="M0 0 C0.33 0 0.66 0 1 0 C1 3.96 1 7.92 1 12 C-0.32 12 -1.64 12 -3 12 C-3 8.7 -3 5.4 -3 2 C-2.01 2.495 -2.01 2.495 -1 3 C-0.67 2.01 -0.34 1.02 0 0 Z " fill="#4A413C" transform="translate(352,393)"/>
<path d="M0 0 C0.66 0.33 1.32 0.66 2 1 C1.67 6.28 1.34 11.56 1 17 C0.34 17 -0.32 17 -1 17 C-1.02684679 14.35409986 -1.04676357 11.70846904 -1.0625 9.0625 C-1.07087891 8.30775391 -1.07925781 7.55300781 -1.08789062 6.77539062 C-1.09652441 4.85005687 -1.05224333 2.92464419 -1 1 C-0.67 0.67 -0.34 0.34 0 0 Z " fill="#241B16" transform="translate(310,393)"/>
<path d="M0 0 C1.09898702 3.29696105 0.87124444 4.40494903 0.0625 7.6875 C-0.22947266 8.89986328 -0.22947266 8.89986328 -0.52734375 10.13671875 C-0.68332031 10.75160156 -0.83929688 11.36648438 -1 12 C-1.99 12 -2.98 12 -4 12 C-4 9.03 -4 6.06 -4 3 C-3.01 3 -2.02 3 -1 3 C-0.67 2.01 -0.34 1.02 0 0 Z " fill="#2D251E" transform="translate(388,391)"/>
<path d="M0 0 C0.66 0 1.32 0 2 0 C2 3.96 2 7.92 2 12 C1.01 12 0.02 12 -1 12 C-1.02698189 10.37509046 -1.04638757 8.75005367 -1.0625 7.125 C-1.07410156 6.22007812 -1.08570313 5.31515625 -1.09765625 4.3828125 C-1 2 -1 2 0 0 Z " fill="#29211B" transform="translate(180,399)"/>
<path d="M0 0 C0.33 0 0.66 0 1 0 C1.04898437 0.68707031 1.09796875 1.37414062 1.1484375 2.08203125 C1.22320312 2.98308594 1.29796875 3.88414062 1.375 4.8125 C1.44460938 5.70582031 1.51421875 6.59914063 1.5859375 7.51953125 C1.86645036 10.24398499 1.86645036 10.24398499 4 13 C3.34 13.66 2.68 14.32 2 15 C1.54188325 16.97235333 1.54188325 16.97235333 1.375 19.125 C1.25125 20.40375 1.1275 21.6825 1 23 C0.67 23 0.34 23 0 23 C0 15.41 0 7.82 0 0 Z " fill="#4C4641" transform="translate(336,379)"/>
<path d="M0 0 C0.33 0 0.66 0 1 0 C1.13277344 0.69867188 1.26554687 1.39734375 1.40234375 2.1171875 C1.57894531 3.02726562 1.75554687 3.93734375 1.9375 4.875 C2.19853516 6.23238281 2.19853516 6.23238281 2.46484375 7.6171875 C2.89963701 9.99956317 2.89963701 9.99956317 4 12 C3.34 12 2.68 12 2 12 C1.67 12.66 1.34 13.32 1 14 C-0.55078125 12.328125 -0.55078125 12.328125 -2 10 C-1.85546875 7.421875 -1.85546875 7.421875 -1.1875 4.75 C-0.97480469 3.85796875 -0.76210938 2.9659375 -0.54296875 2.046875 C-0.36378906 1.37140625 -0.18460937 0.6959375 0 0 Z " fill="#403A34" transform="translate(387,396)"/>
<path d="M0 0 C0.99 0.33 1.98 0.66 3 1 C2.34 1.66 1.68 2.32 1 3 C0.62995706 5.22658154 0.62995706 5.22658154 0.5859375 7.7890625 C0.54726562 8.73007813 0.50859375 9.67109375 0.46875 10.640625 C0.4378125 11.62546875 0.406875 12.6103125 0.375 13.625 C0.33632812 14.61757812 0.29765625 15.61015625 0.2578125 16.6328125 C0.1633686 19.08835385 0.07780125 21.5438841 0 24 C-0.33 24 -0.66 24 -1 24 C-1.02887236 20.18751574 -1.04675492 16.3750593 -1.0625 12.5625 C-1.07087891 11.47388672 -1.07925781 10.38527344 -1.08789062 9.26367188 C-1.09111328 8.22919922 -1.09433594 7.19472656 -1.09765625 6.12890625 C-1.10289307 5.17056885 -1.10812988 4.21223145 -1.11352539 3.22485352 C-1 1 -1 1 0 0 Z " fill="#EFFAEF" transform="translate(232,158)"/>
<path d="M0 0 C0.33 0 0.66 0 1 0 C1 4.29 1 8.58 1 13 C0.34 13 -0.32 13 -1 13 C-1 12.34 -1 11.68 -1 11 C-1.99 11.33 -2.98 11.66 -4 12 C-4 11.34 -4 10.68 -4 10 C-3.01 9.34 -2.02 8.68 -1 8 C-0.83330682 4.45828022 -0.83330682 4.45828022 -1 1 C-0.67 0.67 -0.34 0.34 0 0 Z " fill="#201812" transform="translate(285,397)"/>
<path d="M0 0 C0.66 0.99 1.32 1.98 2 3 C-1.21451269 4.60725635 -4.43612536 4.05748185 -8 4 C-7.34 3.67 -6.68 3.34 -6 3 C-6 2.34 -6 1.68 -6 1 C-4.02 0.67 -2.04 0.34 0 0 Z " fill="#39342F" transform="translate(280,407)"/>
<path d="M0 0 C-0.556875 0.20625 -1.11375 0.4125 -1.6875 0.625 C-4.92501302 2.55000774 -6.68231141 5.03850902 -9 8 C-9.75 6.25 -9.75 6.25 -10 4 C-7.14593539 -0.10985304 -4.8398506 -0.43998642 0 0 Z " fill="#271F1A" transform="translate(305,389)"/>
<path d="M0 0 C0.33 0.66 0.66 1.32 1 2 C-1.97 2.66 -4.94 3.32 -8 4 C-8.33 3.01 -8.66 2.02 -9 1 C-6.04335481 -0.4783226 -3.25770263 -0.06032783 0 0 Z " fill="#342D28" transform="translate(280,388)"/>
<path d="M0 0 C2.97 0 5.94 0 9 0 C9.33 0.99 9.66 1.98 10 3 C6.7 2.67 3.4 2.34 0 2 C0 1.34 0 0.68 0 0 Z " fill="#261E18" transform="translate(410,388)"/>
<path d="M0 0 C-0.33 1.32 -0.66 2.64 -1 4 C-1 3.34 -1 2.68 -1 2 C-5.455 1.01 -5.455 1.01 -10 0 C-10 -0.33 -10 -0.66 -10 -1 C-3.375 -2.25 -3.375 -2.25 0 0 Z " fill="#3B332D" transform="translate(326,391)"/>
<path d="M0 0 C1.5 1.375 1.5 1.375 3 3 C3 3.66 3 4.32 3 5 C2.01 5.33 1.02 5.66 0 6 C-0.33 7.98 -0.66 9.96 -1 12 C-1.33 12 -1.66 12 -2 12 C-2.28571429 3.42857143 -2.28571429 3.42857143 0 0 Z " fill="#645D5A" transform="translate(204,391)"/>
<path d="M0 0 C2.97 0 5.94 0 9 0 C9 0.66 9 1.32 9 2 C4.545 2.495 4.545 2.495 0 3 C0 2.01 0 1.02 0 0 Z " fill="#2B231D" transform="translate(314,388)"/>
<path d="M0 0 C-0.3125 1.875 -0.3125 1.875 -1 4 C-1.99 4.66 -2.98 5.32 -4 6 C-4 5.34 -4 4.68 -4 4 C-4.66 3.67 -5.32 3.34 -6 3 C-5.34 3 -4.68 3 -4 3 C-4 2.34 -4 1.68 -4 1 C-2 0 -2 0 0 0 Z " fill="#302921" transform="translate(352,404)"/>
<path d="M0 0 C1.66519519 0.34060811 3.33157466 0.67558396 5 1 C5 1.33 5 1.66 5 2 C0.545 2.495 0.545 2.495 -4 3 C-4 2.34 -4 1.68 -4 1 C-4.66 0.67 -5.32 0.34 -6 0 C-3.44211818 -1.27894091 -2.70140697 -0.77183056 0 0 Z " fill="#5D5752" transform="translate(278,398)"/>
<path d="M0 0 C0 0.99 0 1.98 0 3 C-1.32 3.33 -2.64 3.66 -4 4 C-4 3.67 -4 3.34 -4 3 C-6.97 2.505 -6.97 2.505 -10 2 C-10 1.67 -10 1.34 -10 1 C-2.25 0 -2.25 0 0 0 Z " fill="#463E39" transform="translate(221,407)"/>
</svg>
