<?xml version="1.0" encoding="UTF-8"?>
<svg version="1.1" xmlns="http://www.w3.org/2000/svg" width="1134" height="1125">
<path d="M0 0 C6.23693987 2.4970774 11.29543529 7.46630647 15 13 C15 13.99 15 14.98 15 16 C15.70382812 16.20367187 16.40765625 16.40734375 17.1328125 16.6171875 C20.85765417 18.41363703 23.19056818 21.07165252 25.875 24.125 C26.39803711 24.70741455 26.92107422 25.2898291 27.45996094 25.88989258 C28.50101138 27.05181948 29.53822248 28.21719942 30.57128906 29.38623047 C31.81428842 30.79023351 33.07371973 32.17965529 34.3359375 33.56640625 C39 38.73494898 39 38.73494898 39 41 C39.66 41 40.32 41 41 41 C41.556875 42.051875 42.11375 43.10375 42.6875 44.1875 C44.67437717 47.68919487 47.11306664 50.18709057 50 53 C53 57.44827586 53 57.44827586 53 60 C53.5671875 60.18046875 54.134375 60.3609375 54.71875 60.546875 C58.07818205 62.6867872 59.59357255 65.8600727 61.5 69.25 C62.25899525 70.56852758 63.01939765 71.8862462 63.78125 73.203125 C64.14943848 73.84475586 64.51762695 74.48638672 64.89697266 75.14746094 C65.92716231 76.87766879 67.05058688 78.55140428 68.1796875 80.21875 C69.73886895 82.60101865 70.74919212 84.56981685 71.625 87.25 C72.69156972 90.97187706 72.69156972 90.97187706 75 93 C75 94.32 75 95.64 75 97 C75.99 97.33 76.98 97.66 78 98 C79.0625 99.96875 79.0625 99.96875 80 102.5 C80.3403125 103.40363281 80.680625 104.30726563 81.03125 105.23828125 C81.89826493 107.709973 82.70925537 110.19063787 83.5 112.6875 C84.41328225 115.54213085 85.46087858 117.90800196 87.0625 120.4375 C89.30685401 124.07815059 89.92920572 127.77695504 90.60546875 131.9609375 C90.80001215 133.98664774 90.80001215 133.98664774 92 135 C92.49360585 137.49776456 92.94588625 139.99111866 93.375 142.5 C94.57898277 149.24860078 95.90520436 155.81040871 99 162 C99.05883025 165.17315686 99.02096183 168.32966708 98.9609375 171.50195312 C98.92419624 174.62802222 99.0026871 177.0080613 100 180 C100.09467677 181.86531107 100.130721 183.73385142 100.1328125 185.6015625 C100.13506836 186.72393311 100.13732422 187.84630371 100.13964844 189.00268555 C100.13481445 190.19804932 100.12998047 191.39341309 100.125 192.625 C100.12016602 193.8416333 100.11533203 195.0582666 100.11035156 196.31176758 C100.0867412 199.87480675 100.0485013 203.43721813 100 207 C99.98743164 207.92570801 99.97486328 208.85141602 99.96191406 209.80517578 C99.68913221 223.94251272 99.68913221 223.94251272 95.90625 229.9140625 C94.5916901 232.93981675 94.63758606 235.78107246 94.5 239.0625 C94.27763383 244.06044428 93.90421046 247.0510513 91.04296875 251.08984375 C89.06116182 254.7194452 88.57894294 258.8852798 87.80859375 262.9140625 C86.97570265 266.09272902 85.7233854 268.22818431 84 271 C83.23042646 273.41754921 82.63365918 275.83909327 82.0390625 278.3046875 C81.09496208 280.7536698 80.17256402 282.24945454 78.625 284.3203125 C75.89130037 287.99145118 74.11884922 291.78569773 72.375 296 C72.08882812 296.67289063 71.80265625 297.34578125 71.5078125 298.0390625 C70.3878034 300.67617483 69.27988026 303.31781303 68.19238281 305.96850586 C66.56406003 309.88352912 64.68431337 312.72849308 62 316 C61.2884375 317.4540625 61.2884375 317.4540625 60.5625 318.9375 C59.12909712 321.74696965 57.52481926 323.80500193 55.45703125 326.16015625 C52.91285384 329.37277705 50.86858487 332.91415798 48.74609375 336.4140625 C47.03742107 338.94457998 45.1856183 340.88296805 43 343 C42.566875 343.763125 42.13375 344.52625 41.6875 345.3125 C40.11489977 347.81701148 38.62298522 349.41688094 36.5 351.4375 C33.45041372 354.37200755 31.82899907 357.16781146 30 361 C26.7 364 26.7 364 24 364 C23.60941406 364.89912109 23.60941406 364.89912109 23.2109375 365.81640625 C21.91715749 368.14938374 20.70531236 369.29777781 18.625 370.9375 C15.64243522 373.38504801 13.40431775 375.97521316 11 379 C5.71153846 384 5.71153846 384 3 384 C2.6596875 384.86625 2.6596875 384.86625 2.3125 385.75 C0.65238361 388.59591381 -1.39187957 389.99841921 -4 392 C-4.825 392.886875 -5.65 393.77375 -6.5 394.6875 C-9.22865336 397.21150435 -10.48703166 397.33538437 -14 398 C-14.28230469 398.57621094 -14.56460937 399.15242188 -14.85546875 399.74609375 C-18.18967925 406.31209872 -25.48554282 411.13685993 -32.078125 414.05078125 C-34.95473608 415.47154648 -37.3267703 417.44533585 -39.84375 419.41796875 C-43.0346007 421.75908204 -46.45145689 423.66854311 -49.8984375 425.60546875 C-52.26754115 426.98249826 -52.26754115 426.98249826 -54 430 C-55.62330024 430.6763751 -57.24905824 431.34745757 -58.88671875 431.98828125 C-61.43452914 433.20802781 -63.54103764 434.75983725 -65.8125 436.4375 C-70.01631227 439.49540326 -74.05193439 441.42881343 -78.96875 443.078125 C-81.34098193 443.93901099 -81.34098193 443.93901099 -83 447 C-84.92358398 448.02734375 -84.92358398 448.02734375 -87.24609375 448.9375 C-88.08333984 449.27523438 -88.92058594 449.61296875 -89.78320312 449.9609375 C-91.09708008 450.47527344 -91.09708008 450.47527344 -92.4375 451 C-94.16813833 451.6804875 -95.8961343 452.36774308 -97.62109375 453.0625 C-98.3886499 453.36285156 -99.15620605 453.66320312 -99.94702148 453.97265625 C-102.11208275 455.05608803 -103.31583043 456.28974565 -105 458 C-107.59953332 459.0885723 -110.15661494 460.07537637 -112.8125 461 C-117.72283804 462.73785236 -122.36785621 464.58769243 -127 467 C-132.78004282 469.76767014 -138.51040162 472.26576908 -144.625 474.1875 C-147.4602963 475.15746979 -150.18333361 476.31964297 -152.9375 477.5 C-157.37482987 479.37927371 -161.77119934 480.92828843 -166.40234375 482.24609375 C-169.47931121 483.13910837 -172.51945164 484.12262634 -175.5625 485.125 C-176.57441406 485.45757813 -177.58632813 485.79015625 -178.62890625 486.1328125 C-180.92382348 486.7834209 -180.92382348 486.7834209 -182 488 C-183.051875 488.12375 -184.10375 488.2475 -185.1875 488.375 C-188.90833198 488.78212 -188.90833198 488.78212 -191.58984375 490.34375 C-196.05124957 492.51057253 -200.60963696 493.78935599 -205.375 495.125 C-206.2825 495.38925781 -207.19 495.65351562 -208.125 495.92578125 C-212.21315073 497.08625055 -216.18216162 498.10968176 -220.41015625 498.5859375 C-223.34655157 498.92462945 -225.40388349 499.33137736 -228.0625 500.5 C-231.67199115 501.96947664 -235.12500831 502.52551122 -239 503 C-239.33 503.33 -239.66 503.66 -240 504 C-242.0279979 504.2253331 -244.05674874 504.44767185 -246.08984375 504.62109375 C-248.2328948 504.86222227 -248.2328948 504.86222227 -250 507 C-254.80022493 508.70007966 -259.32823029 509.29266338 -264.38671875 509.71484375 C-267.02289428 510.00249818 -269.53607664 510.49381176 -272.125 511.0625 C-275.33069655 511.75917106 -278.16100674 512.06927852 -281.4375 511.9375 C-284.92457889 511.58445246 -284.92457889 511.58445246 -286.44897461 513.46044922 C-288.43866297 515.43541771 -289.61659568 515.47321426 -292.37890625 515.6953125 C-293.21744141 515.77136719 -294.05597656 515.84742188 -294.91992188 515.92578125 C-295.79197266 515.99152344 -296.66402344 516.05726563 -297.5625 516.125 C-299.29324476 516.27018389 -301.02373271 516.41847279 -302.75390625 516.5703125 C-303.90354858 516.65949951 -303.90354858 516.65949951 -305.07641602 516.75048828 C-307.0804286 516.90336255 -307.0804286 516.90336255 -309 518 C-311.37402501 518.07116382 -313.75000677 518.08409085 -316.125 518.0625 C-317.40632813 518.05347656 -318.68765625 518.04445313 -320.0078125 518.03515625 C-321.48894531 518.01775391 -321.48894531 518.01775391 -323 518 C-326.77565982 507.69941349 -326.77565982 507.69941349 -328.0625 503.6875 C-328.96796492 500.87347196 -328.96796492 500.87347196 -330.625 497.9375 C-332.01861875 494.96022357 -332.28507743 493.23087753 -332 490 C-332.66 490 -333.32 490 -334 490 C-334.32613281 489.01 -334.65226562 488.02 -334.98828125 487 C-337.96308602 477.99919169 -340.99998055 469.13893211 -344.89453125 460.484375 C-354.59165701 438.69154114 -354.59165701 438.69154114 -354 431 C-354.66 431 -355.32 431 -356 431 C-358.40870803 426.64138546 -359.88082614 422.33054735 -361.25390625 417.578125 C-362.81357704 412.18868668 -364.51541111 406.94572065 -366.87890625 401.8515625 C-369.43699044 396.15749777 -371.38191715 390.28919586 -373.35546875 384.37304688 C-374.69088424 380.45441815 -376.06943145 376.71566766 -377.99609375 373.046875 C-380.45129485 368.33229727 -381.9716627 363.37100514 -383.5625 358.3125 C-385.30062211 352.78981931 -387.00088043 347.96602184 -390 343 C-391.22585872 339.46874043 -392.1393199 335.84731468 -393.10546875 332.23828125 C-394.27162974 328.04158723 -395.61396263 324.69173003 -398 321 C-398.7013284 318.67684969 -399.36485174 316.34210921 -400 314 C-400.53069172 312.62072697 -401.07258322 311.24571641 -401.625 309.875 C-402.81611956 306.79843994 -403.31285232 304.33709142 -403 301 C-403.99 300.67 -404.98 300.34 -406 300 C-407.17522392 297.3475226 -408.15295728 294.8053307 -409.0625 292.0625 C-409.45719482 290.91019897 -409.45719482 290.91019897 -409.85986328 289.73461914 C-411.70926012 284.21025805 -413.08557062 278.76090508 -414 273 C-414.66 273 -415.32 273 -416 273 C-419.51723134 265.25920808 -422.00864176 257.69981318 -423.91015625 249.4453125 C-425.08630001 245.7271806 -426.81080332 243.20545819 -429 240 C-431.53780231 233.61633061 -433.92252847 226.91896352 -433 220 C-431 218 -431 218 -428.6875 217.734375 C-427.3571875 217.74210937 -427.3571875 217.74210937 -426 217.75 C-425.113125 217.74484375 -424.22625 217.7396875 -423.3125 217.734375 C-421 218 -421 218 -419 220 C-416.63776545 220.54215219 -414.32528578 220.98585629 -411.9375 221.375 C-405.85315013 222.44082566 -399.82680965 223.65255677 -393.8125 225.0625 C-393.10665771 225.22476074 -392.40081543 225.38702148 -391.67358398 225.55419922 C-388.8870126 226.21471488 -386.21109135 226.91434952 -383.5546875 227.9921875 C-379.90135413 229.43341075 -376.13943687 230.20882367 -372.3125 231.0625 C-364.25227618 232.87386191 -364.25227618 232.87386191 -362 234 C-360.081875 234.185625 -360.081875 234.185625 -358.125 234.375 C-343.10869565 235.89130435 -343.10869565 235.89130435 -340 239 C-338.17093765 239.20837419 -336.33611866 239.36749659 -334.5 239.5 C-329.11111111 239.88888889 -329.11111111 239.88888889 -328 241 C-324.44256151 241.28659671 -320.88500847 241.4490807 -317.3203125 241.62109375 C-314 242 -314 242 -311 244 C-308.8925092 244.34836951 -308.8925092 244.34836951 -306.5859375 244.37890625 C-305.74289062 244.41306641 -304.89984375 244.44722656 -304.03125 244.48242188 C-303.1546875 244.50884766 -302.278125 244.53527344 -301.375 244.5625 C-299.63266664 244.62218635 -297.89046107 244.68577496 -296.1484375 244.75390625 C-294.99093994 244.78979858 -294.99093994 244.78979858 -293.81005859 244.82641602 C-292 245 -292 245 -291 246 C-288.73478703 246.21762366 -286.46344298 246.37194157 -284.19140625 246.5 C-283.50948715 246.54060547 -282.82756805 246.58121094 -282.12498474 246.62304688 C-279.93772176 246.75312291 -277.75018411 246.87722303 -275.5625 247 C-272.68848475 247.16168507 -269.81488861 247.3291357 -266.94140625 247.5 C-265.65951416 247.5721875 -264.37762207 247.644375 -263.05688477 247.71875 C-260 248 -260 248 -258 249 C-255.52288581 249.16980143 -253.07020902 249.28296714 -250.58984375 249.3515625 C-249.83818939 249.37521378 -249.08653503 249.39886505 -248.31210327 249.42323303 C-245.85404083 249.49724637 -243.39587495 249.56226526 -240.9375 249.625 C-239.69037735 249.65818832 -239.69037735 249.65818832 -238.4180603 249.69204712 C-227.70499638 249.96756987 -217.02471862 250.08547217 -206.3125 249.6875 C-205.28181396 249.65285645 -204.25112793 249.61821289 -203.18920898 249.58251953 C-202.25665283 249.53853027 -201.32409668 249.49454102 -200.36328125 249.44921875 C-199.56188721 249.41143311 -198.76049316 249.37364746 -197.93481445 249.3347168 C-195.76690207 249.15104911 -195.76690207 249.15104911 -194 247 C-191.46359394 246.88074238 -189.03044704 246.85945818 -186.5 246.9375 C-181.60700418 247.26945 -181.60700418 247.26945 -177 246 C-173.91994088 245.68499395 -170.83900088 245.48916352 -167.75 245.28125 C-165.04134007 245.16812508 -165.04134007 245.16812508 -163 244 C-161.700625 243.87625 -160.40125 243.7525 -159.0625 243.625 C-154.56315157 243.16719666 -150.44786785 242.08106494 -146.11328125 240.82421875 C-141.22382896 239.52977153 -136.25749414 238.65623212 -131.28515625 237.74609375 C-128.46024047 237.10452548 -126.53578479 236.2920172 -124 235 C-121.67077506 234.65021878 -119.37266137 234.49984461 -117.0234375 234.34375 C-114.77713524 234.16292808 -114.77713524 234.16292808 -113 232 C-110.87369586 231.31148247 -108.72289684 230.69763531 -106.5625 230.125 C-100.97992904 228.59725939 -95.59784665 226.83574232 -90.20703125 224.734375 C-88 224 -88 224 -85 224 C-85 223.34 -85 222.68 -85 222 C-80.98290717 220.18419289 -76.97104113 218.38429468 -72.87109375 216.76171875 C-71.82050781 216.34535156 -70.76992188 215.92898438 -69.6875 215.5 C-68.70136719 215.1184375 -67.71523438 214.736875 -66.69921875 214.34375 C-63.82475998 212.9127604 -62.20543805 211.30053908 -60 209 C-57.9296875 207.734375 -57.9296875 207.734375 -55.875 206.75 C-55.19179688 206.41484375 -54.50859375 206.0796875 -53.8046875 205.734375 C-52 205 -52 205 -50 205 C-49.814375 204.4225 -49.62875 203.845 -49.4375 203.25 C-47.72854796 200.57511854 -45.80673339 199.65001135 -43.05078125 198.18359375 C-36.30462823 194.29009972 -30.52354751 188.7793819 -24.84765625 183.50390625 C-23 182 -23 182 -21 182 C-20.62875 181.195625 -20.62875 181.195625 -20.25 180.375 C-18.69990968 177.42982839 -16.88498152 174.74179131 -15 172 C-14.46375 171.21625 -13.9275 170.4325 -13.375 169.625 C-12.694375 168.820625 -12.694375 168.820625 -12 168 C-11.34 168 -10.68 168 -10 168 C-9.7525 167.278125 -9.505 166.55625 -9.25 165.8125 C-8 163 -8 163 -6.09375 160.71875 C-3.84944662 157.80450531 -2.59981235 155.09952567 -1.25 151.6875 C-0.82203125 150.61886719 -0.3940625 149.55023437 0.046875 148.44921875 C0.36140625 147.64097656 0.6759375 146.83273437 1 146 C1.66 146 2.32 146 3 146 C3.12375 144.96875 3.2475 143.9375 3.375 142.875 C4.76923077 134.23076923 4.76923077 134.23076923 7 132 C7.28393978 129.48510484 7.4481124 126.97010418 7.62109375 124.4453125 C8 122 8 122 10 119 C10.29248104 116.31969435 10.29248104 116.31969435 10.23046875 113.30859375 C10.22853516 112.19935547 10.22660156 111.09011719 10.22460938 109.94726562 C10.21236328 108.78904297 10.20011719 107.63082031 10.1875 106.4375 C10.18685547 105.27541016 10.18621094 104.11332031 10.18554688 102.91601562 C10.43375785 97.2839128 10.43375785 97.2839128 9 92 C8.81807896 90.14902563 8.67866452 88.29376162 8.5625 86.4375 C7.99189244 79.09860891 6.89282189 72.77365874 3.78515625 66.07421875 C2.73097539 63.28929319 2.13899862 60.46977643 1.5 57.5625 C-0.00205278 50.7526752 -2.19081025 44.76585333 -5.0625 38.4375 C-6.75780583 34.69880273 -7.91233299 30.96221553 -9 27 C-9.33644531 26.38125 -9.67289063 25.7625 -10.01953125 25.125 C-11.17599172 22.61856774 -11.37187797 20.55826834 -11.5625 17.8125 C-11.54989247 14.59996202 -11.54989247 14.59996202 -13 12 C-13.57392389 4.99812851 -13.57392389 4.99812851 -11.5625 1.5 C-7.67918145 -0.77316208 -4.38393711 -0.81746682 0 0 Z " fill="#FEFEFE" transform="translate(790,412)"/>
<path d="M0 0 C1.01497559 0.03077637 2.02995117 0.06155273 3.07568359 0.09326172 C4.01621582 0.13209473 4.95674805 0.17092773 5.92578125 0.2109375 C6.75118408 0.2423584 7.57658691 0.2737793 8.42700195 0.30615234 C10.88437716 0.65276991 12.49889248 1.49202484 14.6875 2.625 C17.25293401 2.89489924 19.74192287 3.08654822 22.3125 3.1875 C29.44763514 3.50506757 29.44763514 3.50506757 31.6875 4.625 C31.6875 5.285 31.6875 5.945 31.6875 6.625 C32.36554688 6.67398437 33.04359375 6.72296875 33.7421875 6.7734375 C39.28256625 7.21850948 44.62751798 7.91296537 50.05859375 9.08984375 C54.08593627 9.90967425 58.15171037 10.47550459 62.21875 11.0625 C64.6875 11.625 64.6875 11.625 66.6875 13.625 C67.925 13.810625 67.925 13.810625 69.1875 14 C72.34078023 14.56308576 74.64502602 15.37721882 77.5625 16.625 C82.05449041 18.50003504 85.864231 19.1426731 90.6875 19.625 C92.70478138 20.23738899 94.71354477 20.88476679 96.6875 21.625 C96.6875 22.285 96.6875 22.945 96.6875 23.625 C98.2034375 23.5321875 98.2034375 23.5321875 99.75 23.4375 C104.13401262 23.64626251 106.74153939 24.75586076 110.6875 26.625 C114.78185392 28.26442303 118.92742465 29.71197576 123.125 31.0625 C127.00349946 32.33762311 130.67385792 33.897184 134.3828125 35.59765625 C136.73014834 36.64401104 139.10182988 37.57674281 141.5 38.5 C145.28729131 39.99036927 148.88117959 41.70071213 152.5 43.5625 C157.76970694 46.25515026 163.12285145 48.42285373 168.6796875 50.44921875 C177.28072034 53.81144068 177.28072034 53.81144068 178.6875 56.625 C179.44417969 56.90730469 180.20085937 57.18960938 180.98046875 57.48046875 C184.1517806 58.82129757 185.71700063 60.37933687 188 62.9375 C189.04607422 64.07638672 189.04607422 64.07638672 190.11328125 65.23828125 C191.94661087 68.01784551 192.18688184 69.36022411 191.6875 72.625 C188.43609108 76.73707598 185.70780235 78.35425377 180.6875 79.625 C177.37025335 79.90299969 174.07713959 79.904509 170.75 79.875 C169.44772461 79.88660156 169.44772461 79.88660156 168.11914062 79.8984375 C162.90941202 79.88268624 158.70774106 79.11226778 153.6875 77.625 C150.65053206 77.28283564 147.61587287 77.16630455 144.5625 77.0625 C139.80929828 76.87908417 135.35512708 76.57034219 130.6875 75.625 C127.1585166 75.40574363 123.63468496 75.23538832 120.1015625 75.10742188 C116.58890405 74.94119786 113.65386327 74.61525299 110.25 73.62890625 C105.81440437 72.37896318 101.6493579 72.16410787 97.0625 72 C96.16039795 71.96277832 95.2582959 71.92555664 94.32885742 71.88720703 C87.55385989 71.63309339 80.779488 71.52471259 74 71.5 C73.09749512 71.49532715 72.19499023 71.4906543 71.26513672 71.48583984 C70.43127441 71.48793457 69.59741211 71.4900293 68.73828125 71.4921875 C67.63480347 71.49387939 67.63480347 71.49387939 66.5090332 71.49560547 C64.58798113 71.51529584 64.58798113 71.51529584 62.6875 72.625 C59.49066086 72.8889592 56.30065987 73.06882184 53.09765625 73.23046875 C49.26623373 73.38855994 49.26623373 73.38855994 45.6875 74.625 C44.2506866 74.8086677 42.80762647 74.94499039 41.36328125 75.0546875 C40.49896484 75.12816406 39.63464844 75.20164062 38.74414062 75.27734375 C36.93473622 75.42415663 35.1248295 75.56492174 33.31445312 75.69921875 C27.79439982 76.18135516 23.6604651 77.18170697 18.6875 79.625 C17.12776003 80.25685638 15.56549656 80.88254411 14 81.5 C12.22897969 82.2078657 10.45816056 82.91623488 8.6875 83.625 C7.64207031 84.04136719 6.59664062 84.45773437 5.51953125 84.88671875 C3.93205078 85.53060547 3.93205078 85.53060547 2.3125 86.1875 C1.33539062 86.58066406 0.35828125 86.97382813 -0.6484375 87.37890625 C-3.1942767 88.56970201 -5.09369242 89.92260128 -7.3125 91.625 C-9.07223053 92.56280432 -10.84401763 93.47821114 -12.625 94.375 C-23.17476899 100.05780889 -28.43653773 108.68998595 -33.875 119.0625 C-34.26107422 119.78759766 -34.64714844 120.51269531 -35.04492188 121.25976562 C-39.72872737 129.68371862 -39.72872737 129.68371862 -41.875 138.9375 C-42.3125 142.625 -42.3125 142.625 -44.3125 144.625 C-44.73972953 147.71417709 -44.73972953 147.71417709 -44.875 151.1875 C-45.21527778 157.52777778 -45.21527778 157.52777778 -46.3125 158.625 C-46.49720684 161.02428666 -46.62075601 163.39731185 -46.69921875 165.80078125 C-46.72474319 166.52234909 -46.75026764 167.24391693 -46.77656555 167.98735046 C-46.82866925 169.51809172 -46.87808454 171.04892643 -46.92504883 172.57983398 C-46.99937048 174.91769769 -47.09010492 177.25455225 -47.18164062 179.59179688 C-47.23018028 181.07809224 -47.277738 182.56442007 -47.32421875 184.05078125 C-47.35327805 184.74883377 -47.38233734 185.44688629 -47.41227722 186.16609192 C-47.51081709 189.98782825 -47.08805639 192.2964157 -45.3125 195.625 C-45.02539062 198.51000977 -45.02539062 198.51000977 -44.96875 201.81640625 C-44.93910156 203.00814453 -44.90945313 204.19988281 -44.87890625 205.42773438 C-44.83456644 207.93814982 -44.79029583 210.4485665 -44.74609375 212.95898438 C-44.71644531 214.14943359 -44.68679688 215.33988281 -44.65625 216.56640625 C-44.63755859 217.65638916 -44.61886719 218.74637207 -44.59960938 219.86938477 C-44.50636207 222.83848615 -44.50636207 222.83848615 -42.3125 225.625 C-41.93359375 227.81640625 -41.93359375 227.81640625 -41.75 230.1875 C-41.49789562 233.53157232 -41.49789562 233.53157232 -40.3125 236.625 C-39.9914557 238.39074367 -39.70544936 240.16292307 -39.4375 241.9375 C-38.45183597 253.01457051 -38.45183597 253.01457051 -34.3125 262.625 C-34.18875 263.635625 -34.065 264.64625 -33.9375 265.6875 C-33.45315759 268.73885717 -32.93237613 270.83618227 -31.8125 273.625 C-30.35594443 277.26990718 -29.81803803 280.72513524 -29.3125 284.625 C-28.69867742 286.64184563 -28.02658334 288.64143517 -27.3125 290.625 C-25.73290018 295.2472476 -24.2187995 299.88751251 -22.77734375 304.5546875 C-22.52533203 305.369375 -22.27332031 306.1840625 -22.01367188 307.0234375 C-21.49761762 308.69698429 -20.98467568 310.37149349 -20.47460938 312.046875 C-20.22388672 312.85382813 -19.97316406 313.66078125 -19.71484375 314.4921875 C-19.49304443 315.21519043 -19.27124512 315.93819336 -19.04272461 316.68310547 C-18.29279136 318.89976926 -18.29279136 318.89976926 -16.3125 321.625 C-15.63310826 323.62071323 -14.96688441 325.62094773 -14.3125 327.625 C-13.9825 328.24375 -13.6525 328.8625 -13.3125 329.5 C-12.05710579 332.1677127 -11.4930192 334.84776337 -10.875 337.72265625 C-10.3255055 339.92616285 -10.3255055 339.92616285 -8.3125 342.625 C-7.81163175 344.17438914 -7.35736862 345.7392276 -6.9375 347.3125 C-5.74942525 351.4496537 -4.22659893 355.09486052 -2.21484375 358.890625 C-1.3125 360.625 -1.3125 360.625 -0.3125 363.1875 C0.6796452 365.84459939 0.6796452 365.84459939 2.8125 368.75 C5.54338266 373.44917922 5.59581751 378.35351444 4.6875 383.625 C2.75 386.875 2.75 386.875 -0.3125 388.625 C-3.34937908 388.38855946 -6.29881806 388.03790708 -9.3125 387.625 C-11.44211041 387.39161342 -13.57237039 387.16410468 -15.703125 386.94140625 C-17.98961777 386.69041768 -20.27607552 386.43910992 -22.5625 386.1875 C-24.29886719 386.00477539 -24.29886719 386.00477539 -26.0703125 385.81835938 C-27.74480469 385.63176758 -27.74480469 385.63176758 -29.453125 385.44140625 C-30.45891602 385.33256104 -31.46470703 385.22371582 -32.50097656 385.11157227 C-35.34208602 384.61987974 -37.66676788 383.74682596 -40.3125 382.625 C-42.38698183 382.22221355 -44.47161107 381.86892338 -46.5625 381.5625 C-52.20806509 380.72943491 -52.20806509 380.72943491 -53.3125 379.625 C-55.12061184 379.41603683 -56.93466032 379.25719639 -58.75 379.125 C-64.09265267 378.73492366 -64.09265267 378.73492366 -66.3125 377.625 C-68.20530431 377.44404906 -70.10214939 377.3041809 -72 377.1875 C-76.70433759 376.83467468 -80.78939265 375.99046637 -85.3125 374.625 C-87.67107346 374.30765041 -90.02330266 374.07107688 -92.39453125 373.87109375 C-94.3125 373.625 -94.3125 373.625 -96.3125 372.625 C-98.30738234 372.26229412 -100.30848989 371.93330925 -102.3125 371.625 C-108.09027778 370.73611111 -108.09027778 370.73611111 -110.3125 369.625 C-113.49098697 369.34493751 -116.66955616 369.17822277 -119.85546875 369.00390625 C-123.3125 368.625 -123.3125 368.625 -126.6328125 367.65234375 C-131.88279516 366.18658426 -137.13241562 365.86231733 -142.54882812 365.4140625 C-143.76795898 365.30191406 -143.76795898 365.30191406 -145.01171875 365.1875 C-145.74221436 365.12691406 -146.47270996 365.06632812 -147.2253418 365.00390625 C-149.54286039 364.58317998 -151.23397535 363.70935429 -153.3125 362.625 C-155.89188536 362.24390928 -155.89188536 362.24390928 -158.625 362.125 C-163.10990797 361.78685218 -167.00288515 360.95706277 -171.3125 359.625 C-177.74172821 358.06845001 -184.04521687 357.31720491 -190.6484375 356.96875 C-193.3125 356.625 -193.3125 356.625 -195.28125 355.625 C-198.83162356 353.87712378 -202.73462689 354.15937032 -206.6328125 353.96875 C-209.3125 353.625 -209.3125 353.625 -211.3125 351.625 C-213.86454128 351.08182905 -216.41528578 350.73595659 -219 350.3828125 C-221.3125 349.625 -221.3125 349.625 -222.59375 347.78125 C-223.3125 345.625 -223.3125 345.625 -223.8125 342 C-223.97949497 338.56077375 -223.97949497 338.56077375 -226.3125 336.625 C-226.87623589 334.01292533 -227.34370671 331.44926638 -227.75 328.8125 C-228.60316796 323.57911627 -229.54999874 318.45189884 -230.875 313.3125 C-232.48349203 306.7193582 -233.0624149 300.0906244 -233.57836914 293.33862305 C-233.64660889 292.51273682 -233.71484863 291.68685059 -233.78515625 290.8359375 C-233.83937744 290.09649902 -233.89359863 289.35706055 -233.94946289 288.59521484 C-234.23618209 286.31184288 -234.23618209 286.31184288 -236.3125 283.625 C-236.69140625 281.03125 -236.69140625 281.03125 -236.875 278.125 C-237.08067016 275.00217143 -237.31800945 272.60847164 -238.3125 269.625 C-238.35768168 266.9084512 -238.36021046 264.2147254 -238.3125 261.5 C-238.26673845 258.86871069 -238.26538277 256.25767512 -238.3125 253.625 C-238.6425 253.295 -238.9725 252.965 -239.3125 252.625 C-239.44039425 251.06183888 -239.50083168 249.49308896 -239.53369141 247.92504883 C-239.55686432 246.92343216 -239.58003723 245.92181549 -239.60391235 244.8898468 C-239.63368668 243.2524781 -239.63368668 243.2524781 -239.6640625 241.58203125 C-239.68721527 240.46567795 -239.71036804 239.34932465 -239.73422241 238.19914246 C-239.78196099 235.82934274 -239.82718263 233.45949123 -239.87011719 231.08959961 C-239.93689412 227.47033823 -240.01476997 223.85143505 -240.09375 220.23242188 C-240.13869573 217.93230476 -240.18298755 215.63217475 -240.2265625 213.33203125 C-240.25046051 212.25057327 -240.27435852 211.1691153 -240.29898071 210.05488586 C-240.38118111 205.09722067 -240.31129273 200.50515323 -239.3125 195.625 C-239.22191272 194.26868543 -239.16036616 192.90991188 -239.13671875 191.55078125 C-238.27715145 161.58965145 -238.27715145 161.58965145 -233.3125 156.625 C-233.00543009 154.94371626 -232.74361492 153.25414379 -232.5 151.5625 C-231.67026111 146.42426509 -230.650624 141.37122117 -229.4375 136.3125 C-229.28821045 135.65564209 -229.1389209 134.99878418 -228.98510742 134.32202148 C-228.14238513 130.9050089 -227.05723341 127.9879538 -225.265625 124.984375 C-223.4704932 121.89674831 -222.64522829 119.63895754 -221.9375 116.1875 C-220.72849424 111.32490542 -218.88182884 108.33377235 -215.71875 104.51171875 C-214.29282944 102.59860866 -213.56726145 101.00080648 -212.8125 98.75 C-209.79760356 89.77542455 -200.95063099 72.9440655 -192.3125 68.625 C-191.35210538 66.90291309 -190.3927249 65.18024225 -189.44140625 63.453125 C-187.78231309 60.76642743 -185.59229585 58.79623414 -183.3125 56.625 C-182.38827491 55.5062012 -181.47210149 54.38072008 -180.5625 53.25 C-175.96299695 47.81099897 -170.11152379 43.87300742 -164.3125 39.8125 C-161.28811188 37.95890552 -161.28811188 37.95890552 -160.3125 35.625 C-159.3225 35.625 -158.3325 35.625 -157.3125 35.625 C-157.3125 34.965 -157.3125 34.305 -157.3125 33.625 C-153.13186519 30.31533078 -148.9612268 27.81022451 -144.109375 25.6171875 C-142.26059621 24.72954855 -142.26059621 24.72954855 -141.0625 23.1953125 C-138.33276055 20.7458588 -134.9714777 19.81938635 -131.5625 18.625 C-130.17128172 18.12665315 -128.78065078 17.62666344 -127.390625 17.125 C-126.71 16.88007813 -126.029375 16.63515625 -125.328125 16.3828125 C-123.36220663 15.64368815 -121.44032517 14.84001745 -119.515625 14 C-116.16291319 12.56078713 -112.81766703 11.62647629 -109.3125 10.625 C-108.1575 10.13 -107.0025 9.635 -105.8125 9.125 C-99.51654282 6.42673264 -93.16061563 5.16371566 -86.4375 4.125 C-81.94486792 3.42374868 -77.52566352 2.69230328 -73.1171875 1.5703125 C-66.91958056 0.16085023 -60.64307678 0.15483931 -54.3125 0 C-52.97769526 -0.03736387 -51.64289714 -0.07496519 -50.30810547 -0.11279297 C-33.53045482 -0.56452514 -16.77462177 -0.58542644 0 0 Z " fill="#FEFEFE" transform="translate(581.3125,271.375)"/>
<path d="M0 0 C7.22981859 0.02062716 14.4513405 0.23731314 21.67578125 0.5078125 C22.66022217 0.53858887 23.64466309 0.56936523 24.65893555 0.60107422 C26.04786011 0.65932373 26.04786011 0.65932373 27.46484375 0.71875 C28.29967285 0.7501709 29.13450195 0.7815918 29.99462891 0.81396484 C32.05078125 1.1328125 32.05078125 1.1328125 34.05078125 3.1328125 C36.41125488 3.48560236 36.41125488 3.48560236 39.11328125 3.5703125 C44.52384565 3.97892283 49.02214519 5.15789834 54.05078125 7.1328125 C55.32308594 7.61814453 55.32308594 7.61814453 56.62109375 8.11328125 C61.22942543 9.90846717 65.62664493 11.92074434 70.05078125 14.1328125 C72.03945838 14.83253223 74.03686176 15.50945647 76.05078125 16.1328125 C76.05078125 16.7928125 76.05078125 17.4528125 76.05078125 18.1328125 C76.63988281 18.24882812 77.22898437 18.36484375 77.8359375 18.484375 C80.1783232 19.17015282 81.55824159 20.03688158 83.48828125 21.5078125 C85.4162059 22.96605713 87.2860283 24.26774517 89.38671875 25.47265625 C92.59695298 27.47316879 95.39208999 29.84632529 98.23828125 32.3203125 C102.19152635 35.73363772 106.17786657 39.00346994 110.36328125 42.1328125 C114.89832598 45.71233727 118.00022769 49.79149012 121.24609375 54.54296875 C122.78200331 56.7470987 124.35622845 58.66712981 126.17578125 60.6328125 C130.70191102 65.75415934 134.7065555 72.3800549 136.05078125 79.1328125 C136.71078125 79.1328125 137.37078125 79.1328125 138.05078125 79.1328125 C141.81312251 88.42065864 143.62824148 96.58871712 143.77319336 106.60864258 C143.83534228 110.25998806 143.98599481 112.94552884 145.1953125 116.44140625 C146.25661621 119.78039373 145.58984506 120.15102799 144.05078125 123.1328125 C143.66600076 125.23280303 143.66600076 125.23280303 143.55859375 127.43359375 C143.45998047 128.65272461 143.45998047 128.65272461 143.359375 129.89648438 C143.23785822 131.58349927 143.12317198 133.27102133 143.015625 134.95898438 C142.53543373 140.69862908 141.25317154 144.32922707 138.05078125 149.1328125 C137.39078125 149.1328125 136.73078125 149.1328125 136.05078125 149.1328125 C135.92703125 149.78507813 135.80328125 150.43734375 135.67578125 151.109375 C134.16030938 157.53118706 132.36625144 160.27507394 126.8359375 163.828125 C124.47668257 165.55239447 124.0647574 167.45301839 123.05078125 170.1328125 C121.08953437 171.20682865 119.07993894 172.19338764 117.05078125 173.1328125 C115.82624236 174.07035009 114.61906877 175.03080834 113.42578125 176.0078125 C102.63434369 184.2648973 86.576668 189.25477546 73.05078125 188.1328125 C73.05078125 188.7928125 73.05078125 189.4528125 73.05078125 190.1328125 C59.98490993 190.47765954 47.8323196 189.94709617 35.05078125 187.1328125 C35.05078125 186.4728125 35.05078125 185.8128125 35.05078125 185.1328125 C33.81328125 184.8646875 32.57578125 184.5965625 31.30078125 184.3203125 C29.5502154 183.92698916 27.80027628 183.53087176 26.05078125 183.1328125 C25.02984375 182.90335938 24.00890625 182.67390625 22.95703125 182.4375 C21.91546875 182.19257812 20.87390625 181.94765625 19.80078125 181.6953125 C18.33898437 181.35693359 18.33898437 181.35693359 16.84765625 181.01171875 C13.88417391 180.08045684 11.65491762 178.81112766 9.05078125 177.1328125 C7.63826617 176.333762 6.2216461 175.5419194 4.80078125 174.7578125 C4.0221875 174.32597656 3.24359375 173.89414062 2.44140625 173.44921875 C0.8928194 172.59648384 -0.65908263 171.74973078 -2.21484375 170.91015625 C-9.87157252 166.74714463 -16.90212181 162.47488978 -22.94921875 156.1328125 C-25.4665557 153.87546281 -28.00250214 151.64087881 -30.546875 149.4140625 C-32.945465 147.13637703 -34.918047 144.7375423 -36.94921875 142.1328125 C-38.12484375 141.0190625 -38.12484375 141.0190625 -39.32421875 139.8828125 C-47.94921875 130.84709821 -47.94921875 130.84709821 -47.94921875 125.1328125 C-48.60921875 125.1328125 -49.26921875 125.1328125 -49.94921875 125.1328125 C-54.01395404 120.30766754 -56.09626258 114.4593909 -58.0546875 108.55078125 C-58.91937282 105.92674122 -58.91937282 105.92674122 -60.94921875 103.1328125 C-64.28786764 94.36885916 -65.25422051 86.08374204 -65.13671875 76.7578125 C-65.13607422 75.79359375 -65.13542969 74.829375 -65.13476562 73.8359375 C-65.07659201 64.19204518 -64.93471517 55.02934717 -60.94921875 46.1328125 C-60.42831167 44.90367708 -59.90747611 43.67451135 -59.38671875 42.4453125 C-58.91234375 41.3521875 -58.43796875 40.2590625 -57.94921875 39.1328125 C-57.61921875 38.1840625 -57.28921875 37.2353125 -56.94921875 36.2578125 C-56.61921875 35.5565625 -56.28921875 34.8553125 -55.94921875 34.1328125 C-54.46421875 33.6378125 -54.46421875 33.6378125 -52.94921875 33.1328125 C-52.27276274 31.470095 -51.60759159 29.80277281 -50.94921875 28.1328125 C-46.16767168 22.42868477 -40.32120879 17.02935317 -33.94921875 13.1328125 C-33.28921875 13.1328125 -32.62921875 13.1328125 -31.94921875 13.1328125 C-31.94921875 12.4728125 -31.94921875 11.8128125 -31.94921875 11.1328125 C-19.64853538 4.24442981 -19.64853538 4.24442981 -11.94921875 5.1328125 C-11.94921875 4.4728125 -11.94921875 3.8128125 -11.94921875 3.1328125 C-10.99208984 2.93365234 -10.99208984 2.93365234 -10.015625 2.73046875 C-9.18933594 2.55386719 -8.36304688 2.37726563 -7.51171875 2.1953125 C-6.68800781 2.02128906 -5.86429688 1.84726562 -5.015625 1.66796875 C-2.76118637 1.08411602 -2.29710766 0.15651635 0 0 Z " fill="#FEFEFE" transform="translate(622.94921875,391.8671875)"/>
</svg>
